M48
; DRILL file {KiCad (6.0.1)} date Wed Mar 23 17:08:02 2022
; FORMAT={-:-/ absolute / metric / decimal}
; #@! TF.CreationDate,2022-03-23T17:08:02-04:00
; #@! TF.GenerationSoftware,Kicad,Pcbnew,(6.0.1)
; #@! TF.FileFunction,Plated,1,2,PTH
FMAT,2
METRIC
; #@! TA.AperFunction,Plated,PTH,ViaDrill
T1C0.400
; #@! TA.AperFunction,Plated,PTH,ComponentDrill
T2C0.508
; #@! TA.AperFunction,Plated,PTH,ComponentDrill
T3C0.750
; #@! TA.AperFunction,Plated,PTH,ComponentDrill
T4C0.800
; #@! TA.AperFunction,Plated,PTH,ComponentDrill
T5C0.813
; #@! TA.AperFunction,Plated,PTH,ComponentDrill
T6C0.900
; #@! TA.AperFunction,Plated,PTH,ComponentDrill
T7C1.520
%
G90
G05
T1
X110.744Y-57.15
X110.744Y-76.962
X110.744Y-96.901
X138.303Y-73.533
X148.59Y-79.756
T2
X132.175Y-69.85
X132.175Y-72.39
T3
X144.42Y-76.835
X144.42Y-78.105
X144.42Y-79.375
T4
X85.1Y-57.16
X85.1Y-59.7
X85.1Y-62.24
X85.1Y-64.78
X85.1Y-77.057
X85.1Y-79.597
X85.1Y-82.137
X85.1Y-84.677
X85.1Y-96.953
X85.1Y-99.493
X85.1Y-102.033
X85.1Y-104.573
X85.1Y-116.85
X85.1Y-119.39
X85.1Y-121.93
X85.1Y-124.47
X92.72Y-57.16
X92.72Y-59.7
X92.72Y-62.24
X92.72Y-64.78
X92.72Y-77.057
X92.72Y-79.597
X92.72Y-82.137
X92.72Y-84.677
X92.72Y-96.953
X92.72Y-99.493
X92.72Y-102.033
X92.72Y-104.573
X92.72Y-116.85
X92.72Y-119.39
X92.72Y-121.93
X92.72Y-124.47
X99.035Y-54.61
X99.035Y-74.93
X99.035Y-95.25
X99.035Y-115.57
X100.285Y-63.475
X100.285Y-65.975
X100.285Y-83.795
X100.285Y-86.295
X100.285Y-104.115
X100.285Y-106.615
X100.285Y-124.435
X100.285Y-126.935
X101.535Y-54.61
X101.535Y-74.93
X101.535Y-95.25
X101.535Y-115.57
X107.96Y-57.16
X107.96Y-59.7
X107.96Y-62.24
X107.96Y-64.78
X107.96Y-77.057
X107.96Y-79.597
X107.96Y-82.137
X107.96Y-84.677
X107.96Y-96.953
X107.96Y-99.493
X107.96Y-102.033
X107.96Y-104.573
X107.96Y-116.85
X107.96Y-119.39
X107.96Y-121.93
X107.96Y-124.47
X115.58Y-57.16
X115.58Y-59.7
X115.58Y-62.24
X115.58Y-64.78
X115.58Y-77.057
X115.58Y-79.597
X115.58Y-82.137
X115.58Y-84.677
X115.58Y-96.953
X115.58Y-99.493
X115.58Y-102.033
X115.58Y-104.573
X115.58Y-116.85
X115.58Y-119.39
X115.58Y-121.93
X115.58Y-124.47
X127.01Y-96.953
X127.01Y-99.493
X127.01Y-102.033
X127.01Y-104.573
X127.01Y-116.95
X127.01Y-119.49
X127.01Y-122.03
X127.01Y-124.57
X134.63Y-96.953
X134.63Y-99.493
X134.63Y-102.033
X134.63Y-104.573
X134.63Y-116.95
X134.63Y-119.49
X134.63Y-122.03
X134.63Y-124.57
X143.485Y-87.63
X144.78Y-67.876
X144.78Y-70.376
X145.0Y-95.95
X145.0Y-98.45
X145.0Y-102.997
X145.0Y-105.497
X145.0Y-116.27
X145.0Y-118.77
X145.0Y-123.27
X145.0Y-125.77
X145.985Y-87.63
X156.855Y-101.595
X156.855Y-104.135
X156.855Y-106.675
X156.855Y-109.215
X156.855Y-111.755
X156.855Y-114.295
X156.855Y-116.835
X164.475Y-101.595
X164.475Y-104.135
X164.475Y-106.675
X164.475Y-109.215
X164.475Y-111.755
X164.475Y-114.295
X164.475Y-116.835
T5
X74.93Y-58.42
X74.93Y-60.96
X74.93Y-63.5
X74.93Y-78.317
X74.93Y-80.857
X74.93Y-83.397
X74.93Y-98.213
X74.93Y-100.753
X74.93Y-103.293
X74.93Y-118.11
X74.93Y-120.65
X74.93Y-123.19
X157.937Y-126.111
X160.477Y-126.111
X163.017Y-126.111
T6
X127.635Y-84.09
X132.715Y-84.09
X161.285Y-55.245
X161.285Y-66.83
X161.285Y-78.415
X161.285Y-90.0
X163.825Y-55.245
X163.825Y-66.83
X163.825Y-78.415
X163.825Y-90.0
T7
X133.985Y-55.245
X139.065Y-55.245
X144.145Y-55.245
T0
M30
