%TF.GenerationSoftware,KiCad,Pcbnew,(6.0.1)*%
%TF.CreationDate,2022-03-23T17:06:24-04:00*%
%TF.ProjectId,accordeur,6163636f-7264-4657-9572-2e6b69636164,0*%
%TF.SameCoordinates,Original*%
%TF.FileFunction,Paste,Top*%
%TF.FilePolarity,Positive*%
%FSLAX46Y46*%
G04 Gerber Fmt 4.6, Leading zero omitted, Abs format (unit mm)*
G04 Created by KiCad (PCBNEW (6.0.1)) date 2022-03-23 17:06:24*
%MOMM*%
%LPD*%
G01*
G04 APERTURE LIST*
G04 Aperture macros list*
%AMRoundRect*
0 Rectangle with rounded corners*
0 $1 Rounding radius*
0 $2 $3 $4 $5 $6 $7 $8 $9 X,Y pos of 4 corners*
0 Add a 4 corners polygon primitive as box body*
4,1,4,$2,$3,$4,$5,$6,$7,$8,$9,$2,$3,0*
0 Add four circle primitives for the rounded corners*
1,1,$1+$1,$2,$3*
1,1,$1+$1,$4,$5*
1,1,$1+$1,$6,$7*
1,1,$1+$1,$8,$9*
0 Add four rect primitives between the rounded corners*
20,1,$1+$1,$2,$3,$4,$5,0*
20,1,$1+$1,$4,$5,$6,$7,0*
20,1,$1+$1,$6,$7,$8,$9,0*
20,1,$1+$1,$8,$9,$2,$3,0*%
G04 Aperture macros list end*
%ADD10RoundRect,0.250000X-0.450000X0.350000X-0.450000X-0.350000X0.450000X-0.350000X0.450000X0.350000X0*%
%ADD11RoundRect,0.250000X0.450000X-0.350000X0.450000X0.350000X-0.450000X0.350000X-0.450000X-0.350000X0*%
%ADD12RoundRect,0.250000X0.350000X0.450000X-0.350000X0.450000X-0.350000X-0.450000X0.350000X-0.450000X0*%
%ADD13RoundRect,0.250000X-0.337500X-0.475000X0.337500X-0.475000X0.337500X0.475000X-0.337500X0.475000X0*%
%ADD14RoundRect,0.250000X0.450000X-0.325000X0.450000X0.325000X-0.450000X0.325000X-0.450000X-0.325000X0*%
%ADD15RoundRect,0.250000X-0.350000X-0.450000X0.350000X-0.450000X0.350000X0.450000X-0.350000X0.450000X0*%
%ADD16RoundRect,0.250000X0.337500X0.475000X-0.337500X0.475000X-0.337500X-0.475000X0.337500X-0.475000X0*%
G04 APERTURE END LIST*
D10*
X97155000Y-58690000D03*
X97155000Y-60690000D03*
D11*
X81280000Y-63230000D03*
X81280000Y-61230000D03*
D10*
X97155000Y-119650000D03*
X97155000Y-121650000D03*
D12*
X89900000Y-73871666D03*
X87900000Y-73871666D03*
D11*
X119380000Y-101753332D03*
X119380000Y-99753332D03*
D13*
X134852500Y-60960000D03*
X136927500Y-60960000D03*
D14*
X138430000Y-101990000D03*
X138430000Y-99940000D03*
D12*
X89900000Y-113665000D03*
X87900000Y-113665000D03*
D10*
X97155000Y-99330000D03*
X97155000Y-101330000D03*
X151130000Y-95949888D03*
X151130000Y-97949888D03*
X151130000Y-123269888D03*
X151130000Y-125269888D03*
D15*
X110760000Y-73871666D03*
X112760000Y-73871666D03*
D10*
X97155000Y-79010000D03*
X97155000Y-81010000D03*
X151130000Y-76105000D03*
X151130000Y-78105000D03*
D11*
X103505000Y-58690000D03*
X103505000Y-60690000D03*
D10*
X151130000Y-82185000D03*
X151130000Y-84185000D03*
X151130000Y-102997000D03*
X151130000Y-104997000D03*
D11*
X81280000Y-122920000D03*
X81280000Y-120920000D03*
X81280000Y-83126666D03*
X81280000Y-81126666D03*
D15*
X110760000Y-53975000D03*
X112760000Y-53975000D03*
D16*
X143277500Y-60960000D03*
X141202500Y-60960000D03*
D11*
X119380000Y-121650000D03*
X119380000Y-119650000D03*
D15*
X110760000Y-113665000D03*
X112760000Y-113665000D03*
D11*
X151130000Y-67675000D03*
X151130000Y-65675000D03*
D15*
X110760000Y-93768332D03*
X112760000Y-93768332D03*
X161460000Y-60325000D03*
X163460000Y-60325000D03*
X161460000Y-71966666D03*
X163460000Y-71966666D03*
D11*
X103505000Y-121650000D03*
X103505000Y-119650000D03*
X103505000Y-101330000D03*
X103505000Y-99330000D03*
X119380000Y-61960000D03*
X119380000Y-59960000D03*
X138385000Y-78105000D03*
X138385000Y-76105000D03*
D10*
X151130000Y-116269888D03*
X151130000Y-118269888D03*
D14*
X138430000Y-121775000D03*
X138430000Y-119725000D03*
D10*
X104775000Y-73991666D03*
X104775000Y-75991666D03*
D11*
X81280000Y-103023332D03*
X81280000Y-101023332D03*
X119380000Y-81856666D03*
X119380000Y-79856666D03*
D15*
X161460000Y-83608332D03*
X163460000Y-83608332D03*
D11*
X103505000Y-81010000D03*
X103505000Y-79010000D03*
D15*
X161460000Y-95250000D03*
X163460000Y-95250000D03*
D12*
X89900000Y-93768332D03*
X87900000Y-93768332D03*
D10*
X104775000Y-114205000D03*
X104775000Y-116205000D03*
D12*
X89900000Y-53975000D03*
X87900000Y-53975000D03*
D10*
X104775000Y-53885000D03*
X104775000Y-55885000D03*
X151130000Y-70890000D03*
X151130000Y-72890000D03*
D14*
X123190000Y-118890000D03*
X123190000Y-116840000D03*
X123190000Y-98815000D03*
X123190000Y-96765000D03*
D10*
X104775000Y-94098332D03*
X104775000Y-96098332D03*
M02*
