%TF.GenerationSoftware,KiCad,Pcbnew,(6.0.1)*%
%TF.CreationDate,2022-03-23T17:06:24-04:00*%
%TF.ProjectId,accordeur,6163636f-7264-4657-9572-2e6b69636164,0*%
%TF.SameCoordinates,Original*%
%TF.FileFunction,Legend,Bot*%
%TF.FilePolarity,Positive*%
%FSLAX46Y46*%
G04 Gerber Fmt 4.6, Leading zero omitted, Abs format (unit mm)*
G04 Created by KiCad (PCBNEW (6.0.1)) date 2022-03-23 17:06:24*
%MOMM*%
%LPD*%
G01*
G04 APERTURE LIST*
%ADD10R,1.600000X1.600000*%
%ADD11C,1.600000*%
%ADD12O,1.600000X1.600000*%
%ADD13R,1.320800X1.320800*%
%ADD14C,1.320800*%
%ADD15R,1.800000X1.800000*%
%ADD16C,1.800000*%
%ADD17R,1.500000X1.050000*%
%ADD18O,1.500000X1.050000*%
%ADD19C,1.016000*%
%ADD20R,3.000000X3.000000*%
%ADD21C,3.000000*%
G04 APERTURE END LIST*
%LPC*%
D10*
X144780000Y-70376395D03*
D11*
X144780000Y-67876395D03*
D10*
X127010000Y-116950000D03*
D12*
X127010000Y-119490000D03*
X127010000Y-122030000D03*
X127010000Y-124570000D03*
X134630000Y-124570000D03*
X134630000Y-122030000D03*
X134630000Y-119490000D03*
X134630000Y-116950000D03*
D10*
X145000000Y-102997000D03*
D11*
X145000000Y-105497000D03*
D10*
X100285113Y-86295111D03*
D11*
X100285113Y-83795111D03*
D13*
X74930000Y-98213332D03*
D14*
X74930000Y-100753332D03*
X74930000Y-103293332D03*
D11*
X100285113Y-124435113D03*
D10*
X100285113Y-126935113D03*
X85100000Y-77056666D03*
D12*
X85100000Y-79596666D03*
X85100000Y-82136666D03*
X85100000Y-84676666D03*
X92720000Y-84676666D03*
X92720000Y-82136666D03*
X92720000Y-79596666D03*
X92720000Y-77056666D03*
D15*
X161285000Y-90000000D03*
D16*
X163825000Y-90000000D03*
D13*
X74930000Y-78316666D03*
D14*
X74930000Y-80856666D03*
X74930000Y-83396666D03*
D10*
X107960000Y-57160000D03*
D12*
X107960000Y-59700000D03*
X107960000Y-62240000D03*
X107960000Y-64780000D03*
X115580000Y-64780000D03*
X115580000Y-62240000D03*
X115580000Y-59700000D03*
X115580000Y-57160000D03*
D13*
X74930000Y-118110000D03*
D14*
X74930000Y-120650000D03*
X74930000Y-123190000D03*
D10*
X101535113Y-95249998D03*
D11*
X99035113Y-95249998D03*
D13*
X74930000Y-58420000D03*
D14*
X74930000Y-60960000D03*
X74930000Y-63500000D03*
D10*
X127010000Y-96953332D03*
D12*
X127010000Y-99493332D03*
X127010000Y-102033332D03*
X127010000Y-104573332D03*
X134630000Y-104573332D03*
X134630000Y-102033332D03*
X134630000Y-99493332D03*
X134630000Y-96953332D03*
D10*
X107960000Y-77056666D03*
D12*
X107960000Y-79596666D03*
X107960000Y-82136666D03*
X107960000Y-84676666D03*
X115580000Y-84676666D03*
X115580000Y-82136666D03*
X115580000Y-79596666D03*
X115580000Y-77056666D03*
D10*
X100285113Y-106615110D03*
D11*
X100285113Y-104115110D03*
D10*
X85100000Y-57160000D03*
D12*
X85100000Y-59700000D03*
X85100000Y-62240000D03*
X85100000Y-64780000D03*
X92720000Y-64780000D03*
X92720000Y-62240000D03*
X92720000Y-59700000D03*
X92720000Y-57160000D03*
D10*
X85100000Y-96953332D03*
D12*
X85100000Y-99493332D03*
X85100000Y-102033332D03*
X85100000Y-104573332D03*
X92720000Y-104573332D03*
X92720000Y-102033332D03*
X92720000Y-99493332D03*
X92720000Y-96953332D03*
D16*
X132715000Y-84090000D03*
X127635000Y-84090000D03*
D10*
X145000000Y-95949888D03*
D11*
X145000000Y-98449888D03*
D10*
X107960000Y-96953332D03*
D12*
X107960000Y-99493332D03*
X107960000Y-102033332D03*
X107960000Y-104573332D03*
X115580000Y-104573332D03*
X115580000Y-102033332D03*
X115580000Y-99493332D03*
X115580000Y-96953332D03*
D15*
X161285000Y-78415000D03*
D16*
X163825000Y-78415000D03*
D17*
X144420000Y-76835000D03*
D18*
X144420000Y-78105000D03*
X144420000Y-79375000D03*
D19*
X132175000Y-72390000D03*
X132175000Y-69850000D03*
D10*
X100285113Y-65975112D03*
D11*
X100285113Y-63475112D03*
D10*
X101535113Y-115569997D03*
D11*
X99035113Y-115569997D03*
D10*
X145985113Y-87630000D03*
D11*
X143485113Y-87630000D03*
D10*
X85100000Y-116850000D03*
D12*
X85100000Y-119390000D03*
X85100000Y-121930000D03*
X85100000Y-124470000D03*
X92720000Y-124470000D03*
X92720000Y-121930000D03*
X92720000Y-119390000D03*
X92720000Y-116850000D03*
D10*
X145000000Y-116269888D03*
D11*
X145000000Y-118769888D03*
D15*
X161285000Y-55245000D03*
D16*
X163825000Y-55245000D03*
D10*
X156855000Y-101595000D03*
D12*
X156855000Y-104135000D03*
X156855000Y-106675000D03*
X156855000Y-109215000D03*
X156855000Y-111755000D03*
X156855000Y-114295000D03*
X156855000Y-116835000D03*
X164475000Y-116835000D03*
X164475000Y-114295000D03*
X164475000Y-111755000D03*
X164475000Y-109215000D03*
X164475000Y-106675000D03*
X164475000Y-104135000D03*
X164475000Y-101595000D03*
D13*
X157937200Y-126111000D03*
D14*
X160477200Y-126111000D03*
X163017200Y-126111000D03*
D10*
X101535113Y-54610000D03*
D11*
X99035113Y-54610000D03*
D15*
X161285000Y-66830000D03*
D16*
X163825000Y-66830000D03*
D10*
X145000000Y-123269888D03*
D11*
X145000000Y-125769888D03*
D10*
X107960000Y-116850000D03*
D12*
X107960000Y-119390000D03*
X107960000Y-121930000D03*
X107960000Y-124470000D03*
X115580000Y-124470000D03*
X115580000Y-121930000D03*
X115580000Y-119390000D03*
X115580000Y-116850000D03*
D10*
X101535113Y-74929999D03*
D11*
X99035113Y-74929999D03*
D20*
X144145000Y-55245000D03*
D21*
X139065000Y-55245000D03*
X133985000Y-55245000D03*
M02*
