%TF.GenerationSoftware,KiCad,Pcbnew,(6.0.1)*%
%TF.CreationDate,2022-03-23T17:06:24-04:00*%
%TF.ProjectId,accordeur,6163636f-7264-4657-9572-2e6b69636164,0*%
%TF.SameCoordinates,Original*%
%TF.FileFunction,Legend,Top*%
%TF.FilePolarity,Positive*%
%FSLAX46Y46*%
G04 Gerber Fmt 4.6, Leading zero omitted, Abs format (unit mm)*
G04 Created by KiCad (PCBNEW (6.0.1)) date 2022-03-23 17:06:24*
%MOMM*%
%LPD*%
G01*
G04 APERTURE LIST*
G04 Aperture macros list*
%AMRoundRect*
0 Rectangle with rounded corners*
0 $1 Rounding radius*
0 $2 $3 $4 $5 $6 $7 $8 $9 X,Y pos of 4 corners*
0 Add a 4 corners polygon primitive as box body*
4,1,4,$2,$3,$4,$5,$6,$7,$8,$9,$2,$3,0*
0 Add four circle primitives for the rounded corners*
1,1,$1+$1,$2,$3*
1,1,$1+$1,$4,$5*
1,1,$1+$1,$6,$7*
1,1,$1+$1,$8,$9*
0 Add four rect primitives between the rounded corners*
20,1,$1+$1,$2,$3,$4,$5,0*
20,1,$1+$1,$4,$5,$6,$7,0*
20,1,$1+$1,$6,$7,$8,$9,0*
20,1,$1+$1,$8,$9,$2,$3,0*%
G04 Aperture macros list end*
%ADD10C,0.150000*%
%ADD11C,0.120000*%
%ADD12R,1.600000X1.600000*%
%ADD13C,1.600000*%
%ADD14O,1.600000X1.600000*%
%ADD15RoundRect,0.250000X-0.450000X0.350000X-0.450000X-0.350000X0.450000X-0.350000X0.450000X0.350000X0*%
%ADD16RoundRect,0.250000X0.450000X-0.350000X0.450000X0.350000X-0.450000X0.350000X-0.450000X-0.350000X0*%
%ADD17RoundRect,0.250000X0.350000X0.450000X-0.350000X0.450000X-0.350000X-0.450000X0.350000X-0.450000X0*%
%ADD18RoundRect,0.250000X-0.337500X-0.475000X0.337500X-0.475000X0.337500X0.475000X-0.337500X0.475000X0*%
%ADD19R,1.320800X1.320800*%
%ADD20C,1.320800*%
%ADD21RoundRect,0.250000X0.450000X-0.325000X0.450000X0.325000X-0.450000X0.325000X-0.450000X-0.325000X0*%
%ADD22R,1.800000X1.800000*%
%ADD23C,1.800000*%
%ADD24RoundRect,0.250000X-0.350000X-0.450000X0.350000X-0.450000X0.350000X0.450000X-0.350000X0.450000X0*%
%ADD25RoundRect,0.250000X0.337500X0.475000X-0.337500X0.475000X-0.337500X-0.475000X0.337500X-0.475000X0*%
%ADD26R,1.500000X1.050000*%
%ADD27O,1.500000X1.050000*%
%ADD28C,1.016000*%
%ADD29R,3.000000X3.000000*%
%ADD30C,3.000000*%
G04 APERTURE END LIST*
D10*
X140803333Y-65762142D02*
X140755714Y-65809761D01*
X140612857Y-65857380D01*
X140517619Y-65857380D01*
X140374761Y-65809761D01*
X140279523Y-65714523D01*
X140231904Y-65619285D01*
X140184285Y-65428809D01*
X140184285Y-65285952D01*
X140231904Y-65095476D01*
X140279523Y-65000238D01*
X140374761Y-64905000D01*
X140517619Y-64857380D01*
X140612857Y-64857380D01*
X140755714Y-64905000D01*
X140803333Y-64952619D01*
X141755714Y-65857380D02*
X141184285Y-65857380D01*
X141470000Y-65857380D02*
X141470000Y-64857380D01*
X141374761Y-65000238D01*
X141279523Y-65095476D01*
X141184285Y-65143095D01*
X130058095Y-114072380D02*
X130058095Y-114881904D01*
X130105714Y-114977142D01*
X130153333Y-115024761D01*
X130248571Y-115072380D01*
X130439047Y-115072380D01*
X130534285Y-115024761D01*
X130581904Y-114977142D01*
X130629523Y-114881904D01*
X130629523Y-114072380D01*
X131629523Y-115072380D02*
X131058095Y-115072380D01*
X131343809Y-115072380D02*
X131343809Y-114072380D01*
X131248571Y-114215238D01*
X131153333Y-114310476D01*
X131058095Y-114358095D01*
X95702380Y-60332857D02*
X95226190Y-60666190D01*
X95702380Y-60904285D02*
X94702380Y-60904285D01*
X94702380Y-60523333D01*
X94750000Y-60428095D01*
X94797619Y-60380476D01*
X94892857Y-60332857D01*
X95035714Y-60332857D01*
X95130952Y-60380476D01*
X95178571Y-60428095D01*
X95226190Y-60523333D01*
X95226190Y-60904285D01*
X95035714Y-59475714D02*
X95702380Y-59475714D01*
X94654761Y-59713809D02*
X95369047Y-59951904D01*
X95369047Y-59332857D01*
X95702380Y-58428095D02*
X95702380Y-58999523D01*
X95702380Y-58713809D02*
X94702380Y-58713809D01*
X94845238Y-58809047D01*
X94940476Y-58904285D01*
X94988095Y-58999523D01*
X81732380Y-59062857D02*
X81256190Y-59396190D01*
X81732380Y-59634285D02*
X80732380Y-59634285D01*
X80732380Y-59253333D01*
X80780000Y-59158095D01*
X80827619Y-59110476D01*
X80922857Y-59062857D01*
X81065714Y-59062857D01*
X81160952Y-59110476D01*
X81208571Y-59158095D01*
X81256190Y-59253333D01*
X81256190Y-59634285D01*
X81065714Y-58205714D02*
X81732380Y-58205714D01*
X80684761Y-58443809D02*
X81399047Y-58681904D01*
X81399047Y-58062857D01*
X80732380Y-57205714D02*
X80732380Y-57681904D01*
X81208571Y-57729523D01*
X81160952Y-57681904D01*
X81113333Y-57586666D01*
X81113333Y-57348571D01*
X81160952Y-57253333D01*
X81208571Y-57205714D01*
X81303809Y-57158095D01*
X81541904Y-57158095D01*
X81637142Y-57205714D01*
X81684761Y-57253333D01*
X81732380Y-57348571D01*
X81732380Y-57586666D01*
X81684761Y-57681904D01*
X81637142Y-57729523D01*
X95702380Y-121292857D02*
X95226190Y-121626190D01*
X95702380Y-121864285D02*
X94702380Y-121864285D01*
X94702380Y-121483333D01*
X94750000Y-121388095D01*
X94797619Y-121340476D01*
X94892857Y-121292857D01*
X95035714Y-121292857D01*
X95130952Y-121340476D01*
X95178571Y-121388095D01*
X95226190Y-121483333D01*
X95226190Y-121864285D01*
X95702380Y-120340476D02*
X95702380Y-120911904D01*
X95702380Y-120626190D02*
X94702380Y-120626190D01*
X94845238Y-120721428D01*
X94940476Y-120816666D01*
X94988095Y-120911904D01*
X94702380Y-120007142D02*
X94702380Y-119340476D01*
X95702380Y-119769047D01*
X88257142Y-72207380D02*
X87923809Y-71731190D01*
X87685714Y-72207380D02*
X87685714Y-71207380D01*
X88066666Y-71207380D01*
X88161904Y-71255000D01*
X88209523Y-71302619D01*
X88257142Y-71397857D01*
X88257142Y-71540714D01*
X88209523Y-71635952D01*
X88161904Y-71683571D01*
X88066666Y-71731190D01*
X87685714Y-71731190D01*
X88590476Y-71207380D02*
X89209523Y-71207380D01*
X88876190Y-71588333D01*
X89019047Y-71588333D01*
X89114285Y-71635952D01*
X89161904Y-71683571D01*
X89209523Y-71778809D01*
X89209523Y-72016904D01*
X89161904Y-72112142D01*
X89114285Y-72159761D01*
X89019047Y-72207380D01*
X88733333Y-72207380D01*
X88638095Y-72159761D01*
X88590476Y-72112142D01*
X90066666Y-71207380D02*
X89876190Y-71207380D01*
X89780952Y-71255000D01*
X89733333Y-71302619D01*
X89638095Y-71445476D01*
X89590476Y-71635952D01*
X89590476Y-72016904D01*
X89638095Y-72112142D01*
X89685714Y-72159761D01*
X89780952Y-72207380D01*
X89971428Y-72207380D01*
X90066666Y-72159761D01*
X90114285Y-72112142D01*
X90161904Y-72016904D01*
X90161904Y-71778809D01*
X90114285Y-71683571D01*
X90066666Y-71635952D01*
X89971428Y-71588333D01*
X89780952Y-71588333D01*
X89685714Y-71635952D01*
X89638095Y-71683571D01*
X89590476Y-71778809D01*
X117927380Y-101396189D02*
X117451190Y-101729522D01*
X117927380Y-101967617D02*
X116927380Y-101967617D01*
X116927380Y-101586665D01*
X116975000Y-101491427D01*
X117022619Y-101443808D01*
X117117857Y-101396189D01*
X117260714Y-101396189D01*
X117355952Y-101443808D01*
X117403571Y-101491427D01*
X117451190Y-101586665D01*
X117451190Y-101967617D01*
X117022619Y-101015236D02*
X116975000Y-100967617D01*
X116927380Y-100872379D01*
X116927380Y-100634284D01*
X116975000Y-100539046D01*
X117022619Y-100491427D01*
X117117857Y-100443808D01*
X117213095Y-100443808D01*
X117355952Y-100491427D01*
X117927380Y-101062855D01*
X117927380Y-100443808D01*
X116927380Y-99586665D02*
X116927380Y-99777141D01*
X116975000Y-99872379D01*
X117022619Y-99919998D01*
X117165476Y-100015236D01*
X117355952Y-100062855D01*
X117736904Y-100062855D01*
X117832142Y-100015236D01*
X117879761Y-99967617D01*
X117927380Y-99872379D01*
X117927380Y-99681903D01*
X117879761Y-99586665D01*
X117832142Y-99539046D01*
X117736904Y-99491427D01*
X117498809Y-99491427D01*
X117403571Y-99539046D01*
X117355952Y-99586665D01*
X117308333Y-99681903D01*
X117308333Y-99872379D01*
X117355952Y-99967617D01*
X117403571Y-100015236D01*
X117498809Y-100062855D01*
X135723333Y-63067142D02*
X135675714Y-63114761D01*
X135532857Y-63162380D01*
X135437619Y-63162380D01*
X135294761Y-63114761D01*
X135199523Y-63019523D01*
X135151904Y-62924285D01*
X135104285Y-62733809D01*
X135104285Y-62590952D01*
X135151904Y-62400476D01*
X135199523Y-62305238D01*
X135294761Y-62210000D01*
X135437619Y-62162380D01*
X135532857Y-62162380D01*
X135675714Y-62210000D01*
X135723333Y-62257619D01*
X136104285Y-62257619D02*
X136151904Y-62210000D01*
X136247142Y-62162380D01*
X136485238Y-62162380D01*
X136580476Y-62210000D01*
X136628095Y-62257619D01*
X136675714Y-62352857D01*
X136675714Y-62448095D01*
X136628095Y-62590952D01*
X136056666Y-63162380D01*
X136675714Y-63162380D01*
X141333333Y-102309254D02*
X141285714Y-102356873D01*
X141142857Y-102404492D01*
X141047619Y-102404492D01*
X140904761Y-102356873D01*
X140809523Y-102261635D01*
X140761904Y-102166397D01*
X140714285Y-101975921D01*
X140714285Y-101833064D01*
X140761904Y-101642588D01*
X140809523Y-101547350D01*
X140904761Y-101452112D01*
X141047619Y-101404492D01*
X141142857Y-101404492D01*
X141285714Y-101452112D01*
X141333333Y-101499731D01*
X141666666Y-101404492D02*
X142333333Y-101404492D01*
X141904761Y-102404492D01*
X103142255Y-87947140D02*
X103094636Y-87994759D01*
X102951779Y-88042378D01*
X102856541Y-88042378D01*
X102713684Y-87994759D01*
X102618446Y-87899521D01*
X102570827Y-87804283D01*
X102523208Y-87613807D01*
X102523208Y-87470950D01*
X102570827Y-87280474D01*
X102618446Y-87185236D01*
X102713684Y-87089998D01*
X102856541Y-87042378D01*
X102951779Y-87042378D01*
X103094636Y-87089998D01*
X103142255Y-87137617D01*
X104094636Y-88042378D02*
X103523208Y-88042378D01*
X103808922Y-88042378D02*
X103808922Y-87042378D01*
X103713684Y-87185236D01*
X103618446Y-87280474D01*
X103523208Y-87328093D01*
X104427970Y-87042378D02*
X105047017Y-87042378D01*
X104713684Y-87423331D01*
X104856541Y-87423331D01*
X104951779Y-87470950D01*
X104999398Y-87518569D01*
X105047017Y-87613807D01*
X105047017Y-87851902D01*
X104999398Y-87947140D01*
X104951779Y-87994759D01*
X104856541Y-88042378D01*
X104570827Y-88042378D01*
X104475589Y-87994759D01*
X104427970Y-87947140D01*
X72382380Y-104808570D02*
X71906190Y-105141903D01*
X72382380Y-105379998D02*
X71382380Y-105379998D01*
X71382380Y-104999046D01*
X71430000Y-104903808D01*
X71477619Y-104856189D01*
X71572857Y-104808570D01*
X71715714Y-104808570D01*
X71810952Y-104856189D01*
X71858571Y-104903808D01*
X71906190Y-104999046D01*
X71906190Y-105379998D01*
X71382380Y-104522855D02*
X72382380Y-104189522D01*
X71382380Y-103856189D01*
X71382380Y-103618093D02*
X71382380Y-102999046D01*
X71763333Y-103332379D01*
X71763333Y-103189522D01*
X71810952Y-103094284D01*
X71858571Y-103046665D01*
X71953809Y-102999046D01*
X72191904Y-102999046D01*
X72287142Y-103046665D01*
X72334761Y-103094284D01*
X72382380Y-103189522D01*
X72382380Y-103475236D01*
X72334761Y-103570474D01*
X72287142Y-103618093D01*
X71632380Y-97463332D02*
X71870476Y-97463332D01*
X71775238Y-97701427D02*
X71870476Y-97463332D01*
X71775238Y-97225236D01*
X72060952Y-97606189D02*
X71870476Y-97463332D01*
X72060952Y-97320474D01*
X96868446Y-128042255D02*
X96820827Y-128089874D01*
X96677970Y-128137493D01*
X96582732Y-128137493D01*
X96439874Y-128089874D01*
X96344636Y-127994636D01*
X96297017Y-127899398D01*
X96249398Y-127708922D01*
X96249398Y-127566065D01*
X96297017Y-127375589D01*
X96344636Y-127280351D01*
X96439874Y-127185113D01*
X96582732Y-127137493D01*
X96677970Y-127137493D01*
X96820827Y-127185113D01*
X96868446Y-127232732D01*
X97344636Y-128137493D02*
X97535113Y-128137493D01*
X97630351Y-128089874D01*
X97677970Y-128042255D01*
X97773208Y-127899398D01*
X97820827Y-127708922D01*
X97820827Y-127327970D01*
X97773208Y-127232732D01*
X97725589Y-127185113D01*
X97630351Y-127137493D01*
X97439874Y-127137493D01*
X97344636Y-127185113D01*
X97297017Y-127232732D01*
X97249398Y-127327970D01*
X97249398Y-127566065D01*
X97297017Y-127661303D01*
X97344636Y-127708922D01*
X97439874Y-127756541D01*
X97630351Y-127756541D01*
X97725589Y-127708922D01*
X97773208Y-127661303D01*
X97820827Y-127566065D01*
X137104380Y-101703095D02*
X136104380Y-101703095D01*
X136104380Y-101465000D01*
X136152000Y-101322142D01*
X136247238Y-101226904D01*
X136342476Y-101179285D01*
X136532952Y-101131666D01*
X136675809Y-101131666D01*
X136866285Y-101179285D01*
X136961523Y-101226904D01*
X137056761Y-101322142D01*
X137104380Y-101465000D01*
X137104380Y-101703095D01*
X136437714Y-100274523D02*
X137104380Y-100274523D01*
X136056761Y-100512619D02*
X136771047Y-100750714D01*
X136771047Y-100131666D01*
X83888095Y-74179046D02*
X83888095Y-74988570D01*
X83935714Y-75083808D01*
X83983333Y-75131427D01*
X84078571Y-75179046D01*
X84269047Y-75179046D01*
X84364285Y-75131427D01*
X84411904Y-75083808D01*
X84459523Y-74988570D01*
X84459523Y-74179046D01*
X84983333Y-75179046D02*
X85173809Y-75179046D01*
X85269047Y-75131427D01*
X85316666Y-75083808D01*
X85411904Y-74940951D01*
X85459523Y-74750475D01*
X85459523Y-74369523D01*
X85411904Y-74274285D01*
X85364285Y-74226666D01*
X85269047Y-74179046D01*
X85078571Y-74179046D01*
X84983333Y-74226666D01*
X84935714Y-74274285D01*
X84888095Y-74369523D01*
X84888095Y-74607618D01*
X84935714Y-74702856D01*
X84983333Y-74750475D01*
X85078571Y-74798094D01*
X85269047Y-74798094D01*
X85364285Y-74750475D01*
X85411904Y-74702856D01*
X85459523Y-74607618D01*
X159027380Y-90738095D02*
X158027380Y-90738095D01*
X158027380Y-90500000D01*
X158075000Y-90357142D01*
X158170238Y-90261904D01*
X158265476Y-90214285D01*
X158455952Y-90166666D01*
X158598809Y-90166666D01*
X158789285Y-90214285D01*
X158884523Y-90261904D01*
X158979761Y-90357142D01*
X159027380Y-90500000D01*
X159027380Y-90738095D01*
X158455952Y-89595238D02*
X158408333Y-89690476D01*
X158360714Y-89738095D01*
X158265476Y-89785714D01*
X158217857Y-89785714D01*
X158122619Y-89738095D01*
X158075000Y-89690476D01*
X158027380Y-89595238D01*
X158027380Y-89404761D01*
X158075000Y-89309523D01*
X158122619Y-89261904D01*
X158217857Y-89214285D01*
X158265476Y-89214285D01*
X158360714Y-89261904D01*
X158408333Y-89309523D01*
X158455952Y-89404761D01*
X158455952Y-89595238D01*
X158503571Y-89690476D01*
X158551190Y-89738095D01*
X158646428Y-89785714D01*
X158836904Y-89785714D01*
X158932142Y-89738095D01*
X158979761Y-89690476D01*
X159027380Y-89595238D01*
X159027380Y-89404761D01*
X158979761Y-89309523D01*
X158932142Y-89261904D01*
X158836904Y-89214285D01*
X158646428Y-89214285D01*
X158551190Y-89261904D01*
X158503571Y-89309523D01*
X158455952Y-89404761D01*
X88484206Y-112212380D02*
X88150873Y-111736190D01*
X87912778Y-112212380D02*
X87912778Y-111212380D01*
X88293730Y-111212380D01*
X88388968Y-111260000D01*
X88436587Y-111307619D01*
X88484206Y-111402857D01*
X88484206Y-111545714D01*
X88436587Y-111640952D01*
X88388968Y-111688571D01*
X88293730Y-111736190D01*
X87912778Y-111736190D01*
X88865159Y-111307619D02*
X88912778Y-111260000D01*
X89008016Y-111212380D01*
X89246111Y-111212380D01*
X89341349Y-111260000D01*
X89388968Y-111307619D01*
X89436587Y-111402857D01*
X89436587Y-111498095D01*
X89388968Y-111640952D01*
X88817540Y-112212380D01*
X89436587Y-112212380D01*
X90055635Y-111212380D02*
X90150873Y-111212380D01*
X90246111Y-111260000D01*
X90293730Y-111307619D01*
X90341349Y-111402857D01*
X90388968Y-111593333D01*
X90388968Y-111831428D01*
X90341349Y-112021904D01*
X90293730Y-112117142D01*
X90246111Y-112164761D01*
X90150873Y-112212380D01*
X90055635Y-112212380D01*
X89960397Y-112164761D01*
X89912778Y-112117142D01*
X89865159Y-112021904D01*
X89817540Y-111831428D01*
X89817540Y-111593333D01*
X89865159Y-111402857D01*
X89912778Y-111307619D01*
X89960397Y-111260000D01*
X90055635Y-111212380D01*
X95702380Y-100972857D02*
X95226190Y-101306190D01*
X95702380Y-101544285D02*
X94702380Y-101544285D01*
X94702380Y-101163333D01*
X94750000Y-101068095D01*
X94797619Y-101020476D01*
X94892857Y-100972857D01*
X95035714Y-100972857D01*
X95130952Y-101020476D01*
X95178571Y-101068095D01*
X95226190Y-101163333D01*
X95226190Y-101544285D01*
X94797619Y-100591904D02*
X94750000Y-100544285D01*
X94702380Y-100449047D01*
X94702380Y-100210952D01*
X94750000Y-100115714D01*
X94797619Y-100068095D01*
X94892857Y-100020476D01*
X94988095Y-100020476D01*
X95130952Y-100068095D01*
X95702380Y-100639523D01*
X95702380Y-100020476D01*
X94702380Y-99115714D02*
X94702380Y-99591904D01*
X95178571Y-99639523D01*
X95130952Y-99591904D01*
X95083333Y-99496666D01*
X95083333Y-99258571D01*
X95130952Y-99163333D01*
X95178571Y-99115714D01*
X95273809Y-99068095D01*
X95511904Y-99068095D01*
X95607142Y-99115714D01*
X95654761Y-99163333D01*
X95702380Y-99258571D01*
X95702380Y-99496666D01*
X95654761Y-99591904D01*
X95607142Y-99639523D01*
X72382380Y-84951904D02*
X71906190Y-85285237D01*
X72382380Y-85523332D02*
X71382380Y-85523332D01*
X71382380Y-85142380D01*
X71430000Y-85047142D01*
X71477619Y-84999523D01*
X71572857Y-84951904D01*
X71715714Y-84951904D01*
X71810952Y-84999523D01*
X71858571Y-85047142D01*
X71906190Y-85142380D01*
X71906190Y-85523332D01*
X71382380Y-84666189D02*
X72382380Y-84332856D01*
X71382380Y-83999523D01*
X71715714Y-83237618D02*
X72382380Y-83237618D01*
X71334761Y-83475713D02*
X72049047Y-83713808D01*
X72049047Y-83094761D01*
X71382380Y-77106666D02*
X71620476Y-77106666D01*
X71525238Y-77344761D02*
X71620476Y-77106666D01*
X71525238Y-76868570D01*
X71810952Y-77249523D02*
X71620476Y-77106666D01*
X71810952Y-76963808D01*
X114771904Y-54412380D02*
X114771904Y-55221904D01*
X114819523Y-55317142D01*
X114867142Y-55364761D01*
X114962380Y-55412380D01*
X115152857Y-55412380D01*
X115248095Y-55364761D01*
X115295714Y-55317142D01*
X115343333Y-55221904D01*
X115343333Y-54412380D01*
X116343333Y-55412380D02*
X115771904Y-55412380D01*
X116057619Y-55412380D02*
X116057619Y-54412380D01*
X115962380Y-54555238D01*
X115867142Y-54650476D01*
X115771904Y-54698095D01*
X116962380Y-54412380D02*
X117057619Y-54412380D01*
X117152857Y-54460000D01*
X117200476Y-54507619D01*
X117248095Y-54602857D01*
X117295714Y-54793333D01*
X117295714Y-55031428D01*
X117248095Y-55221904D01*
X117200476Y-55317142D01*
X117152857Y-55364761D01*
X117057619Y-55412380D01*
X116962380Y-55412380D01*
X116867142Y-55364761D01*
X116819523Y-55317142D01*
X116771904Y-55221904D01*
X116724285Y-55031428D01*
X116724285Y-54793333D01*
X116771904Y-54602857D01*
X116819523Y-54507619D01*
X116867142Y-54460000D01*
X116962380Y-54412380D01*
X72283380Y-125098038D02*
X71807190Y-125431371D01*
X72283380Y-125669466D02*
X71283380Y-125669466D01*
X71283380Y-125288514D01*
X71331000Y-125193276D01*
X71378619Y-125145657D01*
X71473857Y-125098038D01*
X71616714Y-125098038D01*
X71711952Y-125145657D01*
X71759571Y-125193276D01*
X71807190Y-125288514D01*
X71807190Y-125669466D01*
X71283380Y-124812323D02*
X72283380Y-124478990D01*
X71283380Y-124145657D01*
X71378619Y-123859942D02*
X71331000Y-123812323D01*
X71283380Y-123717085D01*
X71283380Y-123478990D01*
X71331000Y-123383752D01*
X71378619Y-123336133D01*
X71473857Y-123288514D01*
X71569095Y-123288514D01*
X71711952Y-123336133D01*
X72283380Y-123907561D01*
X72283380Y-123288514D01*
X71533380Y-116752800D02*
X71771476Y-116752800D01*
X71676238Y-116990895D02*
X71771476Y-116752800D01*
X71676238Y-116514704D01*
X71961952Y-116895657D02*
X71771476Y-116752800D01*
X71961952Y-116609942D01*
X153232380Y-97116554D02*
X152756190Y-97449888D01*
X153232380Y-97687983D02*
X152232380Y-97687983D01*
X152232380Y-97307030D01*
X152280000Y-97211792D01*
X152327619Y-97164173D01*
X152422857Y-97116554D01*
X152565714Y-97116554D01*
X152660952Y-97164173D01*
X152708571Y-97211792D01*
X152756190Y-97307030D01*
X152756190Y-97687983D01*
X152660952Y-96545126D02*
X152613333Y-96640364D01*
X152565714Y-96687983D01*
X152470476Y-96735602D01*
X152422857Y-96735602D01*
X152327619Y-96687983D01*
X152280000Y-96640364D01*
X152232380Y-96545126D01*
X152232380Y-96354649D01*
X152280000Y-96259411D01*
X152327619Y-96211792D01*
X152422857Y-96164173D01*
X152470476Y-96164173D01*
X152565714Y-96211792D01*
X152613333Y-96259411D01*
X152660952Y-96354649D01*
X152660952Y-96545126D01*
X152708571Y-96640364D01*
X152756190Y-96687983D01*
X152851428Y-96735602D01*
X153041904Y-96735602D01*
X153137142Y-96687983D01*
X153184761Y-96640364D01*
X153232380Y-96545126D01*
X153232380Y-96354649D01*
X153184761Y-96259411D01*
X153137142Y-96211792D01*
X153041904Y-96164173D01*
X152851428Y-96164173D01*
X152756190Y-96211792D01*
X152708571Y-96259411D01*
X152660952Y-96354649D01*
X153232380Y-124436554D02*
X152756190Y-124769888D01*
X153232380Y-125007983D02*
X152232380Y-125007983D01*
X152232380Y-124627030D01*
X152280000Y-124531792D01*
X152327619Y-124484173D01*
X152422857Y-124436554D01*
X152565714Y-124436554D01*
X152660952Y-124484173D01*
X152708571Y-124531792D01*
X152756190Y-124627030D01*
X152756190Y-125007983D01*
X152232380Y-124103221D02*
X152232380Y-123436554D01*
X153232380Y-123865126D01*
X99687142Y-91857140D02*
X99639523Y-91904759D01*
X99496666Y-91952378D01*
X99401428Y-91952378D01*
X99258571Y-91904759D01*
X99163333Y-91809521D01*
X99115714Y-91714283D01*
X99068095Y-91523807D01*
X99068095Y-91380950D01*
X99115714Y-91190474D01*
X99163333Y-91095236D01*
X99258571Y-90999998D01*
X99401428Y-90952378D01*
X99496666Y-90952378D01*
X99639523Y-90999998D01*
X99687142Y-91047617D01*
X100639523Y-91952378D02*
X100068095Y-91952378D01*
X100353809Y-91952378D02*
X100353809Y-90952378D01*
X100258571Y-91095236D01*
X100163333Y-91190474D01*
X100068095Y-91238093D01*
X101258571Y-90952378D02*
X101353809Y-90952378D01*
X101449047Y-90999998D01*
X101496666Y-91047617D01*
X101544285Y-91142855D01*
X101591904Y-91333331D01*
X101591904Y-91571426D01*
X101544285Y-91761902D01*
X101496666Y-91857140D01*
X101449047Y-91904759D01*
X101353809Y-91952378D01*
X101258571Y-91952378D01*
X101163333Y-91904759D01*
X101115714Y-91857140D01*
X101068095Y-91761902D01*
X101020476Y-91571426D01*
X101020476Y-91333331D01*
X101068095Y-91142855D01*
X101115714Y-91047617D01*
X101163333Y-90999998D01*
X101258571Y-90952378D01*
X111117142Y-72674046D02*
X110783809Y-72197856D01*
X110545714Y-72674046D02*
X110545714Y-71674046D01*
X110926666Y-71674046D01*
X111021904Y-71721666D01*
X111069523Y-71769285D01*
X111117142Y-71864523D01*
X111117142Y-72007380D01*
X111069523Y-72102618D01*
X111021904Y-72150237D01*
X110926666Y-72197856D01*
X110545714Y-72197856D01*
X111450476Y-71674046D02*
X112069523Y-71674046D01*
X111736190Y-72054999D01*
X111879047Y-72054999D01*
X111974285Y-72102618D01*
X112021904Y-72150237D01*
X112069523Y-72245475D01*
X112069523Y-72483570D01*
X112021904Y-72578808D01*
X111974285Y-72626427D01*
X111879047Y-72674046D01*
X111593333Y-72674046D01*
X111498095Y-72626427D01*
X111450476Y-72578808D01*
X112450476Y-71769285D02*
X112498095Y-71721666D01*
X112593333Y-71674046D01*
X112831428Y-71674046D01*
X112926666Y-71721666D01*
X112974285Y-71769285D01*
X113021904Y-71864523D01*
X113021904Y-71959761D01*
X112974285Y-72102618D01*
X112402857Y-72674046D01*
X113021904Y-72674046D01*
X95702380Y-80652857D02*
X95226190Y-80986190D01*
X95702380Y-81224285D02*
X94702380Y-81224285D01*
X94702380Y-80843333D01*
X94750000Y-80748095D01*
X94797619Y-80700476D01*
X94892857Y-80652857D01*
X95035714Y-80652857D01*
X95130952Y-80700476D01*
X95178571Y-80748095D01*
X95226190Y-80843333D01*
X95226190Y-81224285D01*
X94702380Y-80319523D02*
X94702380Y-79700476D01*
X95083333Y-80033809D01*
X95083333Y-79890952D01*
X95130952Y-79795714D01*
X95178571Y-79748095D01*
X95273809Y-79700476D01*
X95511904Y-79700476D01*
X95607142Y-79748095D01*
X95654761Y-79795714D01*
X95702380Y-79890952D01*
X95702380Y-80176666D01*
X95654761Y-80271904D01*
X95607142Y-80319523D01*
X94702380Y-79367142D02*
X94702380Y-78748095D01*
X95083333Y-79081428D01*
X95083333Y-78938571D01*
X95130952Y-78843333D01*
X95178571Y-78795714D01*
X95273809Y-78748095D01*
X95511904Y-78748095D01*
X95607142Y-78795714D01*
X95654761Y-78843333D01*
X95702380Y-78938571D01*
X95702380Y-79224285D01*
X95654761Y-79319523D01*
X95607142Y-79367142D01*
X72382380Y-65015238D02*
X71906190Y-65348571D01*
X72382380Y-65586666D02*
X71382380Y-65586666D01*
X71382380Y-65205714D01*
X71430000Y-65110476D01*
X71477619Y-65062857D01*
X71572857Y-65015238D01*
X71715714Y-65015238D01*
X71810952Y-65062857D01*
X71858571Y-65110476D01*
X71906190Y-65205714D01*
X71906190Y-65586666D01*
X71382380Y-64729523D02*
X72382380Y-64396190D01*
X71382380Y-64062857D01*
X71382380Y-63253333D02*
X71382380Y-63729523D01*
X71858571Y-63777142D01*
X71810952Y-63729523D01*
X71763333Y-63634285D01*
X71763333Y-63396190D01*
X71810952Y-63300952D01*
X71858571Y-63253333D01*
X71953809Y-63205714D01*
X72191904Y-63205714D01*
X72287142Y-63253333D01*
X72334761Y-63300952D01*
X72382380Y-63396190D01*
X72382380Y-63634285D01*
X72334761Y-63729523D01*
X72287142Y-63777142D01*
X71842380Y-56692800D02*
X72080476Y-56692800D01*
X71985238Y-56930895D02*
X72080476Y-56692800D01*
X71985238Y-56454704D01*
X72270952Y-56835657D02*
X72080476Y-56692800D01*
X72270952Y-56549942D01*
X130058095Y-94075712D02*
X130058095Y-94885236D01*
X130105714Y-94980474D01*
X130153333Y-95028093D01*
X130248571Y-95075712D01*
X130439047Y-95075712D01*
X130534285Y-95028093D01*
X130581904Y-94980474D01*
X130629523Y-94885236D01*
X130629523Y-94075712D01*
X131058095Y-94170951D02*
X131105714Y-94123332D01*
X131200952Y-94075712D01*
X131439047Y-94075712D01*
X131534285Y-94123332D01*
X131581904Y-94170951D01*
X131629523Y-94266189D01*
X131629523Y-94361427D01*
X131581904Y-94504284D01*
X131010476Y-95075712D01*
X131629523Y-95075712D01*
X153232380Y-77271666D02*
X152756190Y-77605000D01*
X153232380Y-77843095D02*
X152232380Y-77843095D01*
X152232380Y-77462142D01*
X152280000Y-77366904D01*
X152327619Y-77319285D01*
X152422857Y-77271666D01*
X152565714Y-77271666D01*
X152660952Y-77319285D01*
X152708571Y-77366904D01*
X152756190Y-77462142D01*
X152756190Y-77843095D01*
X152232380Y-76366904D02*
X152232380Y-76843095D01*
X152708571Y-76890714D01*
X152660952Y-76843095D01*
X152613333Y-76747857D01*
X152613333Y-76509761D01*
X152660952Y-76414523D01*
X152708571Y-76366904D01*
X152803809Y-76319285D01*
X153041904Y-76319285D01*
X153137142Y-76366904D01*
X153184761Y-76414523D01*
X153232380Y-76509761D01*
X153232380Y-76747857D01*
X153184761Y-76843095D01*
X153137142Y-76890714D01*
X102307380Y-60332857D02*
X101831190Y-60666190D01*
X102307380Y-60904285D02*
X101307380Y-60904285D01*
X101307380Y-60523333D01*
X101355000Y-60428095D01*
X101402619Y-60380476D01*
X101497857Y-60332857D01*
X101640714Y-60332857D01*
X101735952Y-60380476D01*
X101783571Y-60428095D01*
X101831190Y-60523333D01*
X101831190Y-60904285D01*
X101307380Y-59999523D02*
X101307380Y-59380476D01*
X101688333Y-59713809D01*
X101688333Y-59570952D01*
X101735952Y-59475714D01*
X101783571Y-59428095D01*
X101878809Y-59380476D01*
X102116904Y-59380476D01*
X102212142Y-59428095D01*
X102259761Y-59475714D01*
X102307380Y-59570952D01*
X102307380Y-59856666D01*
X102259761Y-59951904D01*
X102212142Y-59999523D01*
X102307380Y-58904285D02*
X102307380Y-58713809D01*
X102259761Y-58618571D01*
X102212142Y-58570952D01*
X102069285Y-58475714D01*
X101878809Y-58428095D01*
X101497857Y-58428095D01*
X101402619Y-58475714D01*
X101355000Y-58523333D01*
X101307380Y-58618571D01*
X101307380Y-58809047D01*
X101355000Y-58904285D01*
X101402619Y-58951904D01*
X101497857Y-58999523D01*
X101735952Y-58999523D01*
X101831190Y-58951904D01*
X101878809Y-58904285D01*
X101926428Y-58809047D01*
X101926428Y-58618571D01*
X101878809Y-58523333D01*
X101831190Y-58475714D01*
X101735952Y-58428095D01*
X153232380Y-83351666D02*
X152756190Y-83685000D01*
X153232380Y-83923095D02*
X152232380Y-83923095D01*
X152232380Y-83542142D01*
X152280000Y-83446904D01*
X152327619Y-83399285D01*
X152422857Y-83351666D01*
X152565714Y-83351666D01*
X152660952Y-83399285D01*
X152708571Y-83446904D01*
X152756190Y-83542142D01*
X152756190Y-83923095D01*
X152565714Y-82494523D02*
X153232380Y-82494523D01*
X152184761Y-82732619D02*
X152899047Y-82970714D01*
X152899047Y-82351666D01*
X113998095Y-74179046D02*
X113998095Y-74988570D01*
X114045714Y-75083808D01*
X114093333Y-75131427D01*
X114188571Y-75179046D01*
X114379047Y-75179046D01*
X114474285Y-75131427D01*
X114521904Y-75083808D01*
X114569523Y-74988570D01*
X114569523Y-74179046D01*
X115188571Y-74607618D02*
X115093333Y-74559999D01*
X115045714Y-74512380D01*
X114998095Y-74417142D01*
X114998095Y-74369523D01*
X115045714Y-74274285D01*
X115093333Y-74226666D01*
X115188571Y-74179046D01*
X115379047Y-74179046D01*
X115474285Y-74226666D01*
X115521904Y-74274285D01*
X115569523Y-74369523D01*
X115569523Y-74417142D01*
X115521904Y-74512380D01*
X115474285Y-74559999D01*
X115379047Y-74607618D01*
X115188571Y-74607618D01*
X115093333Y-74655237D01*
X115045714Y-74702856D01*
X114998095Y-74798094D01*
X114998095Y-74988570D01*
X115045714Y-75083808D01*
X115093333Y-75131427D01*
X115188571Y-75179046D01*
X115379047Y-75179046D01*
X115474285Y-75131427D01*
X115521904Y-75083808D01*
X115569523Y-74988570D01*
X115569523Y-74798094D01*
X115521904Y-74702856D01*
X115474285Y-74655237D01*
X115379047Y-74607618D01*
X96392255Y-108267139D02*
X96344636Y-108314758D01*
X96201779Y-108362377D01*
X96106541Y-108362377D01*
X95963684Y-108314758D01*
X95868446Y-108219520D01*
X95820827Y-108124282D01*
X95773208Y-107933806D01*
X95773208Y-107790949D01*
X95820827Y-107600473D01*
X95868446Y-107505235D01*
X95963684Y-107409997D01*
X96106541Y-107362377D01*
X96201779Y-107362377D01*
X96344636Y-107409997D01*
X96392255Y-107457616D01*
X97344636Y-108362377D02*
X96773208Y-108362377D01*
X97058922Y-108362377D02*
X97058922Y-107362377D01*
X96963684Y-107505235D01*
X96868446Y-107600473D01*
X96773208Y-107648092D01*
X98297017Y-108362377D02*
X97725589Y-108362377D01*
X98011303Y-108362377D02*
X98011303Y-107362377D01*
X97916065Y-107505235D01*
X97820827Y-107600473D01*
X97725589Y-107648092D01*
X84411904Y-54147380D02*
X84411904Y-54956904D01*
X84459523Y-55052142D01*
X84507142Y-55099761D01*
X84602380Y-55147380D01*
X84792857Y-55147380D01*
X84888095Y-55099761D01*
X84935714Y-55052142D01*
X84983333Y-54956904D01*
X84983333Y-54147380D01*
X85983333Y-55147380D02*
X85411904Y-55147380D01*
X85697619Y-55147380D02*
X85697619Y-54147380D01*
X85602380Y-54290238D01*
X85507142Y-54385476D01*
X85411904Y-54433095D01*
X86935714Y-55147380D02*
X86364285Y-55147380D01*
X86650000Y-55147380D02*
X86650000Y-54147380D01*
X86554761Y-54290238D01*
X86459523Y-54385476D01*
X86364285Y-54433095D01*
X153232380Y-104163666D02*
X152756190Y-104497000D01*
X153232380Y-104735095D02*
X152232380Y-104735095D01*
X152232380Y-104354142D01*
X152280000Y-104258904D01*
X152327619Y-104211285D01*
X152422857Y-104163666D01*
X152565714Y-104163666D01*
X152660952Y-104211285D01*
X152708571Y-104258904D01*
X152756190Y-104354142D01*
X152756190Y-104735095D01*
X153232380Y-103687476D02*
X153232380Y-103497000D01*
X153184761Y-103401761D01*
X153137142Y-103354142D01*
X152994285Y-103258904D01*
X152803809Y-103211285D01*
X152422857Y-103211285D01*
X152327619Y-103258904D01*
X152280000Y-103306523D01*
X152232380Y-103401761D01*
X152232380Y-103592238D01*
X152280000Y-103687476D01*
X152327619Y-103735095D01*
X152422857Y-103782714D01*
X152660952Y-103782714D01*
X152756190Y-103735095D01*
X152803809Y-103687476D01*
X152851428Y-103592238D01*
X152851428Y-103401761D01*
X152803809Y-103306523D01*
X152756190Y-103258904D01*
X152660952Y-103211285D01*
X81732380Y-118752857D02*
X81256190Y-119086190D01*
X81732380Y-119324285D02*
X80732380Y-119324285D01*
X80732380Y-118943333D01*
X80780000Y-118848095D01*
X80827619Y-118800476D01*
X80922857Y-118752857D01*
X81065714Y-118752857D01*
X81160952Y-118800476D01*
X81208571Y-118848095D01*
X81256190Y-118943333D01*
X81256190Y-119324285D01*
X80827619Y-118371904D02*
X80780000Y-118324285D01*
X80732380Y-118229047D01*
X80732380Y-117990952D01*
X80780000Y-117895714D01*
X80827619Y-117848095D01*
X80922857Y-117800476D01*
X81018095Y-117800476D01*
X81160952Y-117848095D01*
X81732380Y-118419523D01*
X81732380Y-117800476D01*
X81732380Y-116848095D02*
X81732380Y-117419523D01*
X81732380Y-117133809D02*
X80732380Y-117133809D01*
X80875238Y-117229047D01*
X80970476Y-117324285D01*
X81018095Y-117419523D01*
X84388095Y-94190712D02*
X84388095Y-95000236D01*
X84435714Y-95095474D01*
X84483333Y-95143093D01*
X84578571Y-95190712D01*
X84769047Y-95190712D01*
X84864285Y-95143093D01*
X84911904Y-95095474D01*
X84959523Y-95000236D01*
X84959523Y-94190712D01*
X85340476Y-94190712D02*
X86007142Y-94190712D01*
X85578571Y-95190712D01*
X81732380Y-79382857D02*
X81256190Y-79716190D01*
X81732380Y-79954285D02*
X80732380Y-79954285D01*
X80732380Y-79573333D01*
X80780000Y-79478095D01*
X80827619Y-79430476D01*
X80922857Y-79382857D01*
X81065714Y-79382857D01*
X81160952Y-79430476D01*
X81208571Y-79478095D01*
X81256190Y-79573333D01*
X81256190Y-79954285D01*
X80732380Y-79049523D02*
X80732380Y-78430476D01*
X81113333Y-78763809D01*
X81113333Y-78620952D01*
X81160952Y-78525714D01*
X81208571Y-78478095D01*
X81303809Y-78430476D01*
X81541904Y-78430476D01*
X81637142Y-78478095D01*
X81684761Y-78525714D01*
X81732380Y-78620952D01*
X81732380Y-78906666D01*
X81684761Y-79001904D01*
X81637142Y-79049523D01*
X80732380Y-78097142D02*
X80732380Y-77430476D01*
X81732380Y-77859047D01*
X111117142Y-52777380D02*
X110783809Y-52301190D01*
X110545714Y-52777380D02*
X110545714Y-51777380D01*
X110926666Y-51777380D01*
X111021904Y-51825000D01*
X111069523Y-51872619D01*
X111117142Y-51967857D01*
X111117142Y-52110714D01*
X111069523Y-52205952D01*
X111021904Y-52253571D01*
X110926666Y-52301190D01*
X110545714Y-52301190D01*
X111974285Y-52110714D02*
X111974285Y-52777380D01*
X111736190Y-51729761D02*
X111498095Y-52444047D01*
X112117142Y-52444047D01*
X112688571Y-51777380D02*
X112783809Y-51777380D01*
X112879047Y-51825000D01*
X112926666Y-51872619D01*
X112974285Y-51967857D01*
X113021904Y-52158333D01*
X113021904Y-52396428D01*
X112974285Y-52586904D01*
X112926666Y-52682142D01*
X112879047Y-52729761D01*
X112783809Y-52777380D01*
X112688571Y-52777380D01*
X112593333Y-52729761D01*
X112545714Y-52682142D01*
X112498095Y-52586904D01*
X112450476Y-52396428D01*
X112450476Y-52158333D01*
X112498095Y-51967857D01*
X112545714Y-51872619D01*
X112593333Y-51825000D01*
X112688571Y-51777380D01*
X141597142Y-63317142D02*
X141549523Y-63364761D01*
X141406666Y-63412380D01*
X141311428Y-63412380D01*
X141168571Y-63364761D01*
X141073333Y-63269523D01*
X141025714Y-63174285D01*
X140978095Y-62983809D01*
X140978095Y-62840952D01*
X141025714Y-62650476D01*
X141073333Y-62555238D01*
X141168571Y-62460000D01*
X141311428Y-62412380D01*
X141406666Y-62412380D01*
X141549523Y-62460000D01*
X141597142Y-62507619D01*
X142549523Y-63412380D02*
X141978095Y-63412380D01*
X142263809Y-63412380D02*
X142263809Y-62412380D01*
X142168571Y-62555238D01*
X142073333Y-62650476D01*
X141978095Y-62698095D01*
X143406666Y-62412380D02*
X143216190Y-62412380D01*
X143120952Y-62460000D01*
X143073333Y-62507619D01*
X142978095Y-62650476D01*
X142930476Y-62840952D01*
X142930476Y-63221904D01*
X142978095Y-63317142D01*
X143025714Y-63364761D01*
X143120952Y-63412380D01*
X143311428Y-63412380D01*
X143406666Y-63364761D01*
X143454285Y-63317142D01*
X143501904Y-63221904D01*
X143501904Y-62983809D01*
X143454285Y-62888571D01*
X143406666Y-62840952D01*
X143311428Y-62793333D01*
X143120952Y-62793333D01*
X143025714Y-62840952D01*
X142978095Y-62888571D01*
X142930476Y-62983809D01*
X118182380Y-121292857D02*
X117706190Y-121626190D01*
X118182380Y-121864285D02*
X117182380Y-121864285D01*
X117182380Y-121483333D01*
X117230000Y-121388095D01*
X117277619Y-121340476D01*
X117372857Y-121292857D01*
X117515714Y-121292857D01*
X117610952Y-121340476D01*
X117658571Y-121388095D01*
X117706190Y-121483333D01*
X117706190Y-121864285D01*
X118182380Y-120340476D02*
X118182380Y-120911904D01*
X118182380Y-120626190D02*
X117182380Y-120626190D01*
X117325238Y-120721428D01*
X117420476Y-120816666D01*
X117468095Y-120911904D01*
X117610952Y-119769047D02*
X117563333Y-119864285D01*
X117515714Y-119911904D01*
X117420476Y-119959523D01*
X117372857Y-119959523D01*
X117277619Y-119911904D01*
X117230000Y-119864285D01*
X117182380Y-119769047D01*
X117182380Y-119578571D01*
X117230000Y-119483333D01*
X117277619Y-119435714D01*
X117372857Y-119388095D01*
X117420476Y-119388095D01*
X117515714Y-119435714D01*
X117563333Y-119483333D01*
X117610952Y-119578571D01*
X117610952Y-119769047D01*
X117658571Y-119864285D01*
X117706190Y-119911904D01*
X117801428Y-119959523D01*
X117991904Y-119959523D01*
X118087142Y-119911904D01*
X118134761Y-119864285D01*
X118182380Y-119769047D01*
X118182380Y-119578571D01*
X118134761Y-119483333D01*
X118087142Y-119435714D01*
X117991904Y-119388095D01*
X117801428Y-119388095D01*
X117706190Y-119435714D01*
X117658571Y-119483333D01*
X117610952Y-119578571D01*
X128841666Y-81494761D02*
X128984523Y-81542380D01*
X129222619Y-81542380D01*
X129317857Y-81494761D01*
X129365476Y-81447142D01*
X129413095Y-81351904D01*
X129413095Y-81256666D01*
X129365476Y-81161428D01*
X129317857Y-81113809D01*
X129222619Y-81066190D01*
X129032142Y-81018571D01*
X128936904Y-80970952D01*
X128889285Y-80923333D01*
X128841666Y-80828095D01*
X128841666Y-80732857D01*
X128889285Y-80637619D01*
X128936904Y-80590000D01*
X129032142Y-80542380D01*
X129270238Y-80542380D01*
X129413095Y-80590000D01*
X129746428Y-80542380D02*
X129984523Y-81542380D01*
X130175000Y-80828095D01*
X130365476Y-81542380D01*
X130603571Y-80542380D01*
X131508333Y-81542380D02*
X130936904Y-81542380D01*
X131222619Y-81542380D02*
X131222619Y-80542380D01*
X131127380Y-80685238D01*
X131032142Y-80780476D01*
X130936904Y-80828095D01*
X141083333Y-95512142D02*
X141035714Y-95559761D01*
X140892857Y-95607380D01*
X140797619Y-95607380D01*
X140654761Y-95559761D01*
X140559523Y-95464523D01*
X140511904Y-95369285D01*
X140464285Y-95178809D01*
X140464285Y-95035952D01*
X140511904Y-94845476D01*
X140559523Y-94750238D01*
X140654761Y-94655000D01*
X140797619Y-94607380D01*
X140892857Y-94607380D01*
X141035714Y-94655000D01*
X141083333Y-94702619D01*
X141940476Y-94607380D02*
X141750000Y-94607380D01*
X141654761Y-94655000D01*
X141607142Y-94702619D01*
X141511904Y-94845476D01*
X141464285Y-95035952D01*
X141464285Y-95416904D01*
X141511904Y-95512142D01*
X141559523Y-95559761D01*
X141654761Y-95607380D01*
X141845238Y-95607380D01*
X141940476Y-95559761D01*
X141988095Y-95512142D01*
X142035714Y-95416904D01*
X142035714Y-95178809D01*
X141988095Y-95083571D01*
X141940476Y-95035952D01*
X141845238Y-94988333D01*
X141654761Y-94988333D01*
X141559523Y-95035952D01*
X141511904Y-95083571D01*
X141464285Y-95178809D01*
X114748095Y-93940712D02*
X114748095Y-94750236D01*
X114795714Y-94845474D01*
X114843333Y-94893093D01*
X114938571Y-94940712D01*
X115129047Y-94940712D01*
X115224285Y-94893093D01*
X115271904Y-94845474D01*
X115319523Y-94750236D01*
X115319523Y-93940712D01*
X116224285Y-93940712D02*
X116033809Y-93940712D01*
X115938571Y-93988332D01*
X115890952Y-94035951D01*
X115795714Y-94178808D01*
X115748095Y-94369284D01*
X115748095Y-94750236D01*
X115795714Y-94845474D01*
X115843333Y-94893093D01*
X115938571Y-94940712D01*
X116129047Y-94940712D01*
X116224285Y-94893093D01*
X116271904Y-94845474D01*
X116319523Y-94750236D01*
X116319523Y-94512141D01*
X116271904Y-94416903D01*
X116224285Y-94369284D01*
X116129047Y-94321665D01*
X115938571Y-94321665D01*
X115843333Y-94369284D01*
X115795714Y-94416903D01*
X115748095Y-94512141D01*
X111117142Y-112467380D02*
X110783809Y-111991190D01*
X110545714Y-112467380D02*
X110545714Y-111467380D01*
X110926666Y-111467380D01*
X111021904Y-111515000D01*
X111069523Y-111562619D01*
X111117142Y-111657857D01*
X111117142Y-111800714D01*
X111069523Y-111895952D01*
X111021904Y-111943571D01*
X110926666Y-111991190D01*
X110545714Y-111991190D01*
X112069523Y-112467380D02*
X111498095Y-112467380D01*
X111783809Y-112467380D02*
X111783809Y-111467380D01*
X111688571Y-111610238D01*
X111593333Y-111705476D01*
X111498095Y-111753095D01*
X112926666Y-111467380D02*
X112736190Y-111467380D01*
X112640952Y-111515000D01*
X112593333Y-111562619D01*
X112498095Y-111705476D01*
X112450476Y-111895952D01*
X112450476Y-112276904D01*
X112498095Y-112372142D01*
X112545714Y-112419761D01*
X112640952Y-112467380D01*
X112831428Y-112467380D01*
X112926666Y-112419761D01*
X112974285Y-112372142D01*
X113021904Y-112276904D01*
X113021904Y-112038809D01*
X112974285Y-111943571D01*
X112926666Y-111895952D01*
X112831428Y-111848333D01*
X112640952Y-111848333D01*
X112545714Y-111895952D01*
X112498095Y-111943571D01*
X112450476Y-112038809D01*
X149932380Y-66841666D02*
X149456190Y-67175000D01*
X149932380Y-67413095D02*
X148932380Y-67413095D01*
X148932380Y-67032142D01*
X148980000Y-66936904D01*
X149027619Y-66889285D01*
X149122857Y-66841666D01*
X149265714Y-66841666D01*
X149360952Y-66889285D01*
X149408571Y-66936904D01*
X149456190Y-67032142D01*
X149456190Y-67413095D01*
X149932380Y-65889285D02*
X149932380Y-66460714D01*
X149932380Y-66175000D02*
X148932380Y-66175000D01*
X149075238Y-66270238D01*
X149170476Y-66365476D01*
X149218095Y-66460714D01*
X111117142Y-92570712D02*
X110783809Y-92094522D01*
X110545714Y-92570712D02*
X110545714Y-91570712D01*
X110926666Y-91570712D01*
X111021904Y-91618332D01*
X111069523Y-91665951D01*
X111117142Y-91761189D01*
X111117142Y-91904046D01*
X111069523Y-91999284D01*
X111021904Y-92046903D01*
X110926666Y-92094522D01*
X110545714Y-92094522D01*
X111498095Y-91665951D02*
X111545714Y-91618332D01*
X111640952Y-91570712D01*
X111879047Y-91570712D01*
X111974285Y-91618332D01*
X112021904Y-91665951D01*
X112069523Y-91761189D01*
X112069523Y-91856427D01*
X112021904Y-91999284D01*
X111450476Y-92570712D01*
X112069523Y-92570712D01*
X112926666Y-91904046D02*
X112926666Y-92570712D01*
X112688571Y-91523093D02*
X112450476Y-92237379D01*
X113069523Y-92237379D01*
X159027380Y-79153095D02*
X158027380Y-79153095D01*
X158027380Y-78915000D01*
X158075000Y-78772142D01*
X158170238Y-78676904D01*
X158265476Y-78629285D01*
X158455952Y-78581666D01*
X158598809Y-78581666D01*
X158789285Y-78629285D01*
X158884523Y-78676904D01*
X158979761Y-78772142D01*
X159027380Y-78915000D01*
X159027380Y-79153095D01*
X158027380Y-78248333D02*
X158027380Y-77581666D01*
X159027380Y-78010238D01*
X161817142Y-62682380D02*
X161483809Y-62206190D01*
X161245714Y-62682380D02*
X161245714Y-61682380D01*
X161626666Y-61682380D01*
X161721904Y-61730000D01*
X161769523Y-61777619D01*
X161817142Y-61872857D01*
X161817142Y-62015714D01*
X161769523Y-62110952D01*
X161721904Y-62158571D01*
X161626666Y-62206190D01*
X161245714Y-62206190D01*
X162769523Y-62682380D02*
X162198095Y-62682380D01*
X162483809Y-62682380D02*
X162483809Y-61682380D01*
X162388571Y-61825238D01*
X162293333Y-61920476D01*
X162198095Y-61968095D01*
X163388571Y-61682380D02*
X163483809Y-61682380D01*
X163579047Y-61730000D01*
X163626666Y-61777619D01*
X163674285Y-61872857D01*
X163721904Y-62063333D01*
X163721904Y-62301428D01*
X163674285Y-62491904D01*
X163626666Y-62587142D01*
X163579047Y-62634761D01*
X163483809Y-62682380D01*
X163388571Y-62682380D01*
X163293333Y-62634761D01*
X163245714Y-62587142D01*
X163198095Y-62491904D01*
X163150476Y-62301428D01*
X163150476Y-62063333D01*
X163198095Y-61872857D01*
X163245714Y-61777619D01*
X163293333Y-61730000D01*
X163388571Y-61682380D01*
X141509761Y-80684619D02*
X141414523Y-80637000D01*
X141319285Y-80541761D01*
X141176428Y-80398904D01*
X141081190Y-80351285D01*
X140985952Y-80351285D01*
X141033571Y-80589380D02*
X140938333Y-80541761D01*
X140843095Y-80446523D01*
X140795476Y-80256047D01*
X140795476Y-79922714D01*
X140843095Y-79732238D01*
X140938333Y-79637000D01*
X141033571Y-79589380D01*
X141224047Y-79589380D01*
X141319285Y-79637000D01*
X141414523Y-79732238D01*
X141462142Y-79922714D01*
X141462142Y-80256047D01*
X141414523Y-80446523D01*
X141319285Y-80541761D01*
X141224047Y-80589380D01*
X141033571Y-80589380D01*
X142414523Y-80589380D02*
X141843095Y-80589380D01*
X142128809Y-80589380D02*
X142128809Y-79589380D01*
X142033571Y-79732238D01*
X141938333Y-79827476D01*
X141843095Y-79875095D01*
X161790142Y-74239380D02*
X161456809Y-73763190D01*
X161218714Y-74239380D02*
X161218714Y-73239380D01*
X161599666Y-73239380D01*
X161694904Y-73287000D01*
X161742523Y-73334619D01*
X161790142Y-73429857D01*
X161790142Y-73572714D01*
X161742523Y-73667952D01*
X161694904Y-73715571D01*
X161599666Y-73763190D01*
X161218714Y-73763190D01*
X162742523Y-74239380D02*
X162171095Y-74239380D01*
X162456809Y-74239380D02*
X162456809Y-73239380D01*
X162361571Y-73382238D01*
X162266333Y-73477476D01*
X162171095Y-73525095D01*
X163694904Y-74239380D02*
X163123476Y-74239380D01*
X163409190Y-74239380D02*
X163409190Y-73239380D01*
X163313952Y-73382238D01*
X163218714Y-73477476D01*
X163123476Y-73525095D01*
X128377380Y-79159523D02*
X127377380Y-79159523D01*
X128091666Y-78826190D01*
X127377380Y-78492857D01*
X128377380Y-78492857D01*
X128377380Y-78016666D02*
X127377380Y-78016666D01*
X128377380Y-77445238D02*
X127805952Y-77873809D01*
X127377380Y-77445238D02*
X127948809Y-78016666D01*
X128377380Y-76492857D02*
X128377380Y-77064285D01*
X128377380Y-76778571D02*
X127377380Y-76778571D01*
X127520238Y-76873809D01*
X127615476Y-76969047D01*
X127663095Y-77064285D01*
X132377380Y-76850000D02*
X132615476Y-76850000D01*
X132520238Y-77088095D02*
X132615476Y-76850000D01*
X132520238Y-76611904D01*
X132805952Y-76992857D02*
X132615476Y-76850000D01*
X132805952Y-76707142D01*
X95892255Y-67377141D02*
X95844636Y-67424760D01*
X95701779Y-67472379D01*
X95606541Y-67472379D01*
X95463684Y-67424760D01*
X95368446Y-67329522D01*
X95320827Y-67234284D01*
X95273208Y-67043808D01*
X95273208Y-66900951D01*
X95320827Y-66710475D01*
X95368446Y-66615237D01*
X95463684Y-66519999D01*
X95606541Y-66472379D01*
X95701779Y-66472379D01*
X95844636Y-66519999D01*
X95892255Y-66567618D01*
X96844636Y-67472379D02*
X96273208Y-67472379D01*
X96558922Y-67472379D02*
X96558922Y-66472379D01*
X96463684Y-66615237D01*
X96368446Y-66710475D01*
X96273208Y-66758094D01*
X97749398Y-66472379D02*
X97273208Y-66472379D01*
X97225589Y-66948570D01*
X97273208Y-66900951D01*
X97368446Y-66853332D01*
X97606541Y-66853332D01*
X97701779Y-66900951D01*
X97749398Y-66948570D01*
X97797017Y-67043808D01*
X97797017Y-67281903D01*
X97749398Y-67377141D01*
X97701779Y-67424760D01*
X97606541Y-67472379D01*
X97368446Y-67472379D01*
X97273208Y-67424760D01*
X97225589Y-67377141D01*
X96913333Y-113927139D02*
X96865714Y-113974758D01*
X96722857Y-114022377D01*
X96627619Y-114022377D01*
X96484761Y-113974758D01*
X96389523Y-113879520D01*
X96341904Y-113784282D01*
X96294285Y-113593806D01*
X96294285Y-113450949D01*
X96341904Y-113260473D01*
X96389523Y-113165235D01*
X96484761Y-113069997D01*
X96627619Y-113022377D01*
X96722857Y-113022377D01*
X96865714Y-113069997D01*
X96913333Y-113117616D01*
X97484761Y-113450949D02*
X97389523Y-113403330D01*
X97341904Y-113355711D01*
X97294285Y-113260473D01*
X97294285Y-113212854D01*
X97341904Y-113117616D01*
X97389523Y-113069997D01*
X97484761Y-113022377D01*
X97675238Y-113022377D01*
X97770476Y-113069997D01*
X97818095Y-113117616D01*
X97865714Y-113212854D01*
X97865714Y-113260473D01*
X97818095Y-113355711D01*
X97770476Y-113403330D01*
X97675238Y-113450949D01*
X97484761Y-113450949D01*
X97389523Y-113498568D01*
X97341904Y-113546187D01*
X97294285Y-113641425D01*
X97294285Y-113831901D01*
X97341904Y-113927139D01*
X97389523Y-113974758D01*
X97484761Y-114022377D01*
X97675238Y-114022377D01*
X97770476Y-113974758D01*
X97818095Y-113927139D01*
X97865714Y-113831901D01*
X97865714Y-113641425D01*
X97818095Y-113546187D01*
X97770476Y-113498568D01*
X97675238Y-113450949D01*
X141113334Y-89987142D02*
X141065715Y-90034761D01*
X140922858Y-90082380D01*
X140827620Y-90082380D01*
X140684762Y-90034761D01*
X140589524Y-89939523D01*
X140541905Y-89844285D01*
X140494286Y-89653809D01*
X140494286Y-89510952D01*
X140541905Y-89320476D01*
X140589524Y-89225238D01*
X140684762Y-89130000D01*
X140827620Y-89082380D01*
X140922858Y-89082380D01*
X141065715Y-89130000D01*
X141113334Y-89177619D01*
X141446667Y-89082380D02*
X142065715Y-89082380D01*
X141732381Y-89463333D01*
X141875239Y-89463333D01*
X141970477Y-89510952D01*
X142018096Y-89558571D01*
X142065715Y-89653809D01*
X142065715Y-89891904D01*
X142018096Y-89987142D01*
X141970477Y-90034761D01*
X141875239Y-90082380D01*
X141589524Y-90082380D01*
X141494286Y-90034761D01*
X141446667Y-89987142D01*
X102307380Y-121292857D02*
X101831190Y-121626190D01*
X102307380Y-121864285D02*
X101307380Y-121864285D01*
X101307380Y-121483333D01*
X101355000Y-121388095D01*
X101402619Y-121340476D01*
X101497857Y-121292857D01*
X101640714Y-121292857D01*
X101735952Y-121340476D01*
X101783571Y-121388095D01*
X101831190Y-121483333D01*
X101831190Y-121864285D01*
X102307380Y-120340476D02*
X102307380Y-120911904D01*
X102307380Y-120626190D02*
X101307380Y-120626190D01*
X101450238Y-120721428D01*
X101545476Y-120816666D01*
X101593095Y-120911904D01*
X101307380Y-119435714D02*
X101307380Y-119911904D01*
X101783571Y-119959523D01*
X101735952Y-119911904D01*
X101688333Y-119816666D01*
X101688333Y-119578571D01*
X101735952Y-119483333D01*
X101783571Y-119435714D01*
X101878809Y-119388095D01*
X102116904Y-119388095D01*
X102212142Y-119435714D01*
X102259761Y-119483333D01*
X102307380Y-119578571D01*
X102307380Y-119816666D01*
X102259761Y-119911904D01*
X102212142Y-119959523D01*
X102307380Y-100972857D02*
X101831190Y-101306190D01*
X102307380Y-101544285D02*
X101307380Y-101544285D01*
X101307380Y-101163333D01*
X101355000Y-101068095D01*
X101402619Y-101020476D01*
X101497857Y-100972857D01*
X101640714Y-100972857D01*
X101735952Y-101020476D01*
X101783571Y-101068095D01*
X101831190Y-101163333D01*
X101831190Y-101544285D01*
X101402619Y-100591904D02*
X101355000Y-100544285D01*
X101307380Y-100449047D01*
X101307380Y-100210952D01*
X101355000Y-100115714D01*
X101402619Y-100068095D01*
X101497857Y-100020476D01*
X101593095Y-100020476D01*
X101735952Y-100068095D01*
X102307380Y-100639523D01*
X102307380Y-100020476D01*
X101307380Y-99687142D02*
X101307380Y-99068095D01*
X101688333Y-99401428D01*
X101688333Y-99258571D01*
X101735952Y-99163333D01*
X101783571Y-99115714D01*
X101878809Y-99068095D01*
X102116904Y-99068095D01*
X102212142Y-99115714D01*
X102259761Y-99163333D01*
X102307380Y-99258571D01*
X102307380Y-99544285D01*
X102259761Y-99639523D01*
X102212142Y-99687142D01*
X118182380Y-61602857D02*
X117706190Y-61936190D01*
X118182380Y-62174285D02*
X117182380Y-62174285D01*
X117182380Y-61793333D01*
X117230000Y-61698095D01*
X117277619Y-61650476D01*
X117372857Y-61602857D01*
X117515714Y-61602857D01*
X117610952Y-61650476D01*
X117658571Y-61698095D01*
X117706190Y-61793333D01*
X117706190Y-62174285D01*
X117515714Y-60745714D02*
X118182380Y-60745714D01*
X117134761Y-60983809D02*
X117849047Y-61221904D01*
X117849047Y-60602857D01*
X117277619Y-60269523D02*
X117230000Y-60221904D01*
X117182380Y-60126666D01*
X117182380Y-59888571D01*
X117230000Y-59793333D01*
X117277619Y-59745714D01*
X117372857Y-59698095D01*
X117468095Y-59698095D01*
X117610952Y-59745714D01*
X118182380Y-60317142D01*
X118182380Y-59698095D01*
X84638095Y-113972380D02*
X84638095Y-114781904D01*
X84685714Y-114877142D01*
X84733333Y-114924761D01*
X84828571Y-114972380D01*
X85019047Y-114972380D01*
X85114285Y-114924761D01*
X85161904Y-114877142D01*
X85209523Y-114781904D01*
X85209523Y-113972380D01*
X86161904Y-113972380D02*
X85685714Y-113972380D01*
X85638095Y-114448571D01*
X85685714Y-114400952D01*
X85780952Y-114353333D01*
X86019047Y-114353333D01*
X86114285Y-114400952D01*
X86161904Y-114448571D01*
X86209523Y-114543809D01*
X86209523Y-114781904D01*
X86161904Y-114877142D01*
X86114285Y-114924761D01*
X86019047Y-114972380D01*
X85780952Y-114972380D01*
X85685714Y-114924761D01*
X85638095Y-114877142D01*
X137187380Y-77271666D02*
X136711190Y-77605000D01*
X137187380Y-77843095D02*
X136187380Y-77843095D01*
X136187380Y-77462142D01*
X136235000Y-77366904D01*
X136282619Y-77319285D01*
X136377857Y-77271666D01*
X136520714Y-77271666D01*
X136615952Y-77319285D01*
X136663571Y-77366904D01*
X136711190Y-77462142D01*
X136711190Y-77843095D01*
X136187380Y-76938333D02*
X136187380Y-76319285D01*
X136568333Y-76652619D01*
X136568333Y-76509761D01*
X136615952Y-76414523D01*
X136663571Y-76366904D01*
X136758809Y-76319285D01*
X136996904Y-76319285D01*
X137092142Y-76366904D01*
X137139761Y-76414523D01*
X137187380Y-76509761D01*
X137187380Y-76795476D01*
X137139761Y-76890714D01*
X137092142Y-76938333D01*
X141583333Y-115377030D02*
X141535714Y-115424649D01*
X141392857Y-115472268D01*
X141297619Y-115472268D01*
X141154761Y-115424649D01*
X141059523Y-115329411D01*
X141011904Y-115234173D01*
X140964285Y-115043697D01*
X140964285Y-114900840D01*
X141011904Y-114710364D01*
X141059523Y-114615126D01*
X141154761Y-114519888D01*
X141297619Y-114472268D01*
X141392857Y-114472268D01*
X141535714Y-114519888D01*
X141583333Y-114567507D01*
X142440476Y-114805602D02*
X142440476Y-115472268D01*
X142202380Y-114424649D02*
X141964285Y-115138935D01*
X142583333Y-115138935D01*
X153232380Y-117436554D02*
X152756190Y-117769888D01*
X153232380Y-118007983D02*
X152232380Y-118007983D01*
X152232380Y-117627030D01*
X152280000Y-117531792D01*
X152327619Y-117484173D01*
X152422857Y-117436554D01*
X152565714Y-117436554D01*
X152660952Y-117484173D01*
X152708571Y-117531792D01*
X152756190Y-117627030D01*
X152756190Y-118007983D01*
X152232380Y-116579411D02*
X152232380Y-116769888D01*
X152280000Y-116865126D01*
X152327619Y-116912745D01*
X152470476Y-117007983D01*
X152660952Y-117055602D01*
X153041904Y-117055602D01*
X153137142Y-117007983D01*
X153184761Y-116960364D01*
X153232380Y-116865126D01*
X153232380Y-116674649D01*
X153184761Y-116579411D01*
X153137142Y-116531792D01*
X153041904Y-116484173D01*
X152803809Y-116484173D01*
X152708571Y-116531792D01*
X152660952Y-116579411D01*
X152613333Y-116674649D01*
X152613333Y-116865126D01*
X152660952Y-116960364D01*
X152708571Y-117007983D01*
X152803809Y-117055602D01*
X137104380Y-121515095D02*
X136104380Y-121515095D01*
X136104380Y-121277000D01*
X136152000Y-121134142D01*
X136247238Y-121038904D01*
X136342476Y-120991285D01*
X136532952Y-120943666D01*
X136675809Y-120943666D01*
X136866285Y-120991285D01*
X136961523Y-121038904D01*
X137056761Y-121134142D01*
X137104380Y-121277000D01*
X137104380Y-121515095D01*
X136199619Y-120562714D02*
X136152000Y-120515095D01*
X136104380Y-120419857D01*
X136104380Y-120181761D01*
X136152000Y-120086523D01*
X136199619Y-120038904D01*
X136294857Y-119991285D01*
X136390095Y-119991285D01*
X136532952Y-120038904D01*
X137104380Y-120610333D01*
X137104380Y-119991285D01*
X106877380Y-75634523D02*
X106401190Y-75967856D01*
X106877380Y-76205951D02*
X105877380Y-76205951D01*
X105877380Y-75824999D01*
X105925000Y-75729761D01*
X105972619Y-75682142D01*
X106067857Y-75634523D01*
X106210714Y-75634523D01*
X106305952Y-75682142D01*
X106353571Y-75729761D01*
X106401190Y-75824999D01*
X106401190Y-76205951D01*
X105877380Y-75301189D02*
X105877380Y-74682142D01*
X106258333Y-75015475D01*
X106258333Y-74872618D01*
X106305952Y-74777380D01*
X106353571Y-74729761D01*
X106448809Y-74682142D01*
X106686904Y-74682142D01*
X106782142Y-74729761D01*
X106829761Y-74777380D01*
X106877380Y-74872618D01*
X106877380Y-75158332D01*
X106829761Y-75253570D01*
X106782142Y-75301189D01*
X105877380Y-74063094D02*
X105877380Y-73967856D01*
X105925000Y-73872618D01*
X105972619Y-73824999D01*
X106067857Y-73777380D01*
X106258333Y-73729761D01*
X106496428Y-73729761D01*
X106686904Y-73777380D01*
X106782142Y-73824999D01*
X106829761Y-73872618D01*
X106877380Y-73967856D01*
X106877380Y-74063094D01*
X106829761Y-74158332D01*
X106782142Y-74205951D01*
X106686904Y-74253570D01*
X106496428Y-74301189D01*
X106258333Y-74301189D01*
X106067857Y-74253570D01*
X105972619Y-74205951D01*
X105925000Y-74158332D01*
X105877380Y-74063094D01*
X81732380Y-99067857D02*
X81256190Y-99401190D01*
X81732380Y-99639285D02*
X80732380Y-99639285D01*
X80732380Y-99258333D01*
X80780000Y-99163095D01*
X80827619Y-99115476D01*
X80922857Y-99067857D01*
X81065714Y-99067857D01*
X81160952Y-99115476D01*
X81208571Y-99163095D01*
X81256190Y-99258333D01*
X81256190Y-99639285D01*
X80827619Y-98686904D02*
X80780000Y-98639285D01*
X80732380Y-98544047D01*
X80732380Y-98305952D01*
X80780000Y-98210714D01*
X80827619Y-98163095D01*
X80922857Y-98115476D01*
X81018095Y-98115476D01*
X81160952Y-98163095D01*
X81732380Y-98734523D01*
X81732380Y-98115476D01*
X81732380Y-97639285D02*
X81732380Y-97448809D01*
X81684761Y-97353571D01*
X81637142Y-97305952D01*
X81494285Y-97210714D01*
X81303809Y-97163095D01*
X80922857Y-97163095D01*
X80827619Y-97210714D01*
X80780000Y-97258333D01*
X80732380Y-97353571D01*
X80732380Y-97544047D01*
X80780000Y-97639285D01*
X80827619Y-97686904D01*
X80922857Y-97734523D01*
X81160952Y-97734523D01*
X81256190Y-97686904D01*
X81303809Y-97639285D01*
X81351428Y-97544047D01*
X81351428Y-97353571D01*
X81303809Y-97258333D01*
X81256190Y-97210714D01*
X81160952Y-97163095D01*
X118182380Y-81499523D02*
X117706190Y-81832856D01*
X118182380Y-82070951D02*
X117182380Y-82070951D01*
X117182380Y-81689999D01*
X117230000Y-81594761D01*
X117277619Y-81547142D01*
X117372857Y-81499523D01*
X117515714Y-81499523D01*
X117610952Y-81547142D01*
X117658571Y-81594761D01*
X117706190Y-81689999D01*
X117706190Y-82070951D01*
X117182380Y-81166189D02*
X117182380Y-80547142D01*
X117563333Y-80880475D01*
X117563333Y-80737618D01*
X117610952Y-80642380D01*
X117658571Y-80594761D01*
X117753809Y-80547142D01*
X117991904Y-80547142D01*
X118087142Y-80594761D01*
X118134761Y-80642380D01*
X118182380Y-80737618D01*
X118182380Y-81023332D01*
X118134761Y-81118570D01*
X118087142Y-81166189D01*
X117515714Y-79689999D02*
X118182380Y-79689999D01*
X117134761Y-79928094D02*
X117849047Y-80166189D01*
X117849047Y-79547142D01*
X161816904Y-51737380D02*
X161816904Y-50737380D01*
X162055000Y-50737380D01*
X162197857Y-50785000D01*
X162293095Y-50880238D01*
X162340714Y-50975476D01*
X162388333Y-51165952D01*
X162388333Y-51308809D01*
X162340714Y-51499285D01*
X162293095Y-51594523D01*
X162197857Y-51689761D01*
X162055000Y-51737380D01*
X161816904Y-51737380D01*
X163293095Y-50737380D02*
X162816904Y-50737380D01*
X162769285Y-51213571D01*
X162816904Y-51165952D01*
X162912142Y-51118333D01*
X163150238Y-51118333D01*
X163245476Y-51165952D01*
X163293095Y-51213571D01*
X163340714Y-51308809D01*
X163340714Y-51546904D01*
X163293095Y-51642142D01*
X163245476Y-51689761D01*
X163150238Y-51737380D01*
X162912142Y-51737380D01*
X162816904Y-51689761D01*
X162769285Y-51642142D01*
X161817142Y-85880712D02*
X161483809Y-85404522D01*
X161245714Y-85880712D02*
X161245714Y-84880712D01*
X161626666Y-84880712D01*
X161721904Y-84928332D01*
X161769523Y-84975951D01*
X161817142Y-85071189D01*
X161817142Y-85214046D01*
X161769523Y-85309284D01*
X161721904Y-85356903D01*
X161626666Y-85404522D01*
X161245714Y-85404522D01*
X162769523Y-85880712D02*
X162198095Y-85880712D01*
X162483809Y-85880712D02*
X162483809Y-84880712D01*
X162388571Y-85023570D01*
X162293333Y-85118808D01*
X162198095Y-85166427D01*
X163150476Y-84975951D02*
X163198095Y-84928332D01*
X163293333Y-84880712D01*
X163531428Y-84880712D01*
X163626666Y-84928332D01*
X163674285Y-84975951D01*
X163721904Y-85071189D01*
X163721904Y-85166427D01*
X163674285Y-85309284D01*
X163102857Y-85880712D01*
X163721904Y-85880712D01*
X102307380Y-80652857D02*
X101831190Y-80986190D01*
X102307380Y-81224285D02*
X101307380Y-81224285D01*
X101307380Y-80843333D01*
X101355000Y-80748095D01*
X101402619Y-80700476D01*
X101497857Y-80652857D01*
X101640714Y-80652857D01*
X101735952Y-80700476D01*
X101783571Y-80748095D01*
X101831190Y-80843333D01*
X101831190Y-81224285D01*
X101307380Y-80319523D02*
X101307380Y-79700476D01*
X101688333Y-80033809D01*
X101688333Y-79890952D01*
X101735952Y-79795714D01*
X101783571Y-79748095D01*
X101878809Y-79700476D01*
X102116904Y-79700476D01*
X102212142Y-79748095D01*
X102259761Y-79795714D01*
X102307380Y-79890952D01*
X102307380Y-80176666D01*
X102259761Y-80271904D01*
X102212142Y-80319523D01*
X102307380Y-78748095D02*
X102307380Y-79319523D01*
X102307380Y-79033809D02*
X101307380Y-79033809D01*
X101450238Y-79129047D01*
X101545476Y-79224285D01*
X101593095Y-79319523D01*
X159903095Y-98717380D02*
X159903095Y-99526904D01*
X159950714Y-99622142D01*
X159998333Y-99669761D01*
X160093571Y-99717380D01*
X160284047Y-99717380D01*
X160379285Y-99669761D01*
X160426904Y-99622142D01*
X160474523Y-99526904D01*
X160474523Y-98717380D01*
X160855476Y-98717380D02*
X161474523Y-98717380D01*
X161141190Y-99098333D01*
X161284047Y-99098333D01*
X161379285Y-99145952D01*
X161426904Y-99193571D01*
X161474523Y-99288809D01*
X161474523Y-99526904D01*
X161426904Y-99622142D01*
X161379285Y-99669761D01*
X161284047Y-99717380D01*
X160998333Y-99717380D01*
X160903095Y-99669761D01*
X160855476Y-99622142D01*
X161817142Y-97607380D02*
X161483809Y-97131190D01*
X161245714Y-97607380D02*
X161245714Y-96607380D01*
X161626666Y-96607380D01*
X161721904Y-96655000D01*
X161769523Y-96702619D01*
X161817142Y-96797857D01*
X161817142Y-96940714D01*
X161769523Y-97035952D01*
X161721904Y-97083571D01*
X161626666Y-97131190D01*
X161245714Y-97131190D01*
X162769523Y-97607380D02*
X162198095Y-97607380D01*
X162483809Y-97607380D02*
X162483809Y-96607380D01*
X162388571Y-96750238D01*
X162293333Y-96845476D01*
X162198095Y-96893095D01*
X163102857Y-96607380D02*
X163721904Y-96607380D01*
X163388571Y-96988333D01*
X163531428Y-96988333D01*
X163626666Y-97035952D01*
X163674285Y-97083571D01*
X163721904Y-97178809D01*
X163721904Y-97416904D01*
X163674285Y-97512142D01*
X163626666Y-97559761D01*
X163531428Y-97607380D01*
X163245714Y-97607380D01*
X163150476Y-97559761D01*
X163102857Y-97512142D01*
X88257142Y-91892380D02*
X87923809Y-91416190D01*
X87685714Y-91892380D02*
X87685714Y-90892380D01*
X88066666Y-90892380D01*
X88161904Y-90940000D01*
X88209523Y-90987619D01*
X88257142Y-91082857D01*
X88257142Y-91225714D01*
X88209523Y-91320952D01*
X88161904Y-91368571D01*
X88066666Y-91416190D01*
X87685714Y-91416190D01*
X88638095Y-90987619D02*
X88685714Y-90940000D01*
X88780952Y-90892380D01*
X89019047Y-90892380D01*
X89114285Y-90940000D01*
X89161904Y-90987619D01*
X89209523Y-91082857D01*
X89209523Y-91178095D01*
X89161904Y-91320952D01*
X88590476Y-91892380D01*
X89209523Y-91892380D01*
X89780952Y-91320952D02*
X89685714Y-91273333D01*
X89638095Y-91225714D01*
X89590476Y-91130476D01*
X89590476Y-91082857D01*
X89638095Y-90987619D01*
X89685714Y-90940000D01*
X89780952Y-90892380D01*
X89971428Y-90892380D01*
X90066666Y-90940000D01*
X90114285Y-90987619D01*
X90161904Y-91082857D01*
X90161904Y-91130476D01*
X90114285Y-91225714D01*
X90066666Y-91273333D01*
X89971428Y-91320952D01*
X89780952Y-91320952D01*
X89685714Y-91368571D01*
X89638095Y-91416190D01*
X89590476Y-91511428D01*
X89590476Y-91701904D01*
X89638095Y-91797142D01*
X89685714Y-91844761D01*
X89780952Y-91892380D01*
X89971428Y-91892380D01*
X90066666Y-91844761D01*
X90114285Y-91797142D01*
X90161904Y-91701904D01*
X90161904Y-91511428D01*
X90114285Y-91416190D01*
X90066666Y-91368571D01*
X89971428Y-91320952D01*
X106877380Y-115847857D02*
X106401190Y-116181190D01*
X106877380Y-116419285D02*
X105877380Y-116419285D01*
X105877380Y-116038333D01*
X105925000Y-115943095D01*
X105972619Y-115895476D01*
X106067857Y-115847857D01*
X106210714Y-115847857D01*
X106305952Y-115895476D01*
X106353571Y-115943095D01*
X106401190Y-116038333D01*
X106401190Y-116419285D01*
X106877380Y-114895476D02*
X106877380Y-115466904D01*
X106877380Y-115181190D02*
X105877380Y-115181190D01*
X106020238Y-115276428D01*
X106115476Y-115371666D01*
X106163095Y-115466904D01*
X106210714Y-114038333D02*
X106877380Y-114038333D01*
X105829761Y-114276428D02*
X106544047Y-114514523D01*
X106544047Y-113895476D01*
X88257142Y-52522380D02*
X87923809Y-52046190D01*
X87685714Y-52522380D02*
X87685714Y-51522380D01*
X88066666Y-51522380D01*
X88161904Y-51570000D01*
X88209523Y-51617619D01*
X88257142Y-51712857D01*
X88257142Y-51855714D01*
X88209523Y-51950952D01*
X88161904Y-51998571D01*
X88066666Y-52046190D01*
X87685714Y-52046190D01*
X89114285Y-51855714D02*
X89114285Y-52522380D01*
X88876190Y-51474761D02*
X88638095Y-52189047D01*
X89257142Y-52189047D01*
X90066666Y-51855714D02*
X90066666Y-52522380D01*
X89828571Y-51474761D02*
X89590476Y-52189047D01*
X90209523Y-52189047D01*
X106877380Y-55527857D02*
X106401190Y-55861190D01*
X106877380Y-56099285D02*
X105877380Y-56099285D01*
X105877380Y-55718333D01*
X105925000Y-55623095D01*
X105972619Y-55575476D01*
X106067857Y-55527857D01*
X106210714Y-55527857D01*
X106305952Y-55575476D01*
X106353571Y-55623095D01*
X106401190Y-55718333D01*
X106401190Y-56099285D01*
X105877380Y-55194523D02*
X105877380Y-54575476D01*
X106258333Y-54908809D01*
X106258333Y-54765952D01*
X106305952Y-54670714D01*
X106353571Y-54623095D01*
X106448809Y-54575476D01*
X106686904Y-54575476D01*
X106782142Y-54623095D01*
X106829761Y-54670714D01*
X106877380Y-54765952D01*
X106877380Y-55051666D01*
X106829761Y-55146904D01*
X106782142Y-55194523D01*
X106305952Y-54004047D02*
X106258333Y-54099285D01*
X106210714Y-54146904D01*
X106115476Y-54194523D01*
X106067857Y-54194523D01*
X105972619Y-54146904D01*
X105925000Y-54099285D01*
X105877380Y-54004047D01*
X105877380Y-53813571D01*
X105925000Y-53718333D01*
X105972619Y-53670714D01*
X106067857Y-53623095D01*
X106115476Y-53623095D01*
X106210714Y-53670714D01*
X106258333Y-53718333D01*
X106305952Y-53813571D01*
X106305952Y-54004047D01*
X106353571Y-54099285D01*
X106401190Y-54146904D01*
X106496428Y-54194523D01*
X106686904Y-54194523D01*
X106782142Y-54146904D01*
X106829761Y-54099285D01*
X106877380Y-54004047D01*
X106877380Y-53813571D01*
X106829761Y-53718333D01*
X106782142Y-53670714D01*
X106686904Y-53623095D01*
X106496428Y-53623095D01*
X106401190Y-53670714D01*
X106353571Y-53718333D01*
X106305952Y-53813571D01*
X153232380Y-72056666D02*
X152756190Y-72390000D01*
X153232380Y-72628095D02*
X152232380Y-72628095D01*
X152232380Y-72247142D01*
X152280000Y-72151904D01*
X152327619Y-72104285D01*
X152422857Y-72056666D01*
X152565714Y-72056666D01*
X152660952Y-72104285D01*
X152708571Y-72151904D01*
X152756190Y-72247142D01*
X152756190Y-72628095D01*
X152327619Y-71675714D02*
X152280000Y-71628095D01*
X152232380Y-71532857D01*
X152232380Y-71294761D01*
X152280000Y-71199523D01*
X152327619Y-71151904D01*
X152422857Y-71104285D01*
X152518095Y-71104285D01*
X152660952Y-71151904D01*
X153232380Y-71723333D01*
X153232380Y-71104285D01*
X166889580Y-127456238D02*
X166413390Y-127789571D01*
X166889580Y-128027666D02*
X165889580Y-128027666D01*
X165889580Y-127646714D01*
X165937200Y-127551476D01*
X165984819Y-127503857D01*
X166080057Y-127456238D01*
X166222914Y-127456238D01*
X166318152Y-127503857D01*
X166365771Y-127551476D01*
X166413390Y-127646714D01*
X166413390Y-128027666D01*
X165889580Y-127170523D02*
X166889580Y-126837190D01*
X165889580Y-126503857D01*
X166889580Y-125646714D02*
X166889580Y-126218142D01*
X166889580Y-125932428D02*
X165889580Y-125932428D01*
X166032438Y-126027666D01*
X166127676Y-126122904D01*
X166175295Y-126218142D01*
X157937200Y-127313380D02*
X157937200Y-127551476D01*
X157699104Y-127456238D02*
X157937200Y-127551476D01*
X158175295Y-127456238D01*
X157794342Y-127741952D02*
X157937200Y-127551476D01*
X158080057Y-127741952D01*
X95937142Y-52467142D02*
X95889523Y-52514761D01*
X95746666Y-52562380D01*
X95651428Y-52562380D01*
X95508571Y-52514761D01*
X95413333Y-52419523D01*
X95365714Y-52324285D01*
X95318095Y-52133809D01*
X95318095Y-51990952D01*
X95365714Y-51800476D01*
X95413333Y-51705238D01*
X95508571Y-51610000D01*
X95651428Y-51562380D01*
X95746666Y-51562380D01*
X95889523Y-51610000D01*
X95937142Y-51657619D01*
X96889523Y-52562380D02*
X96318095Y-52562380D01*
X96603809Y-52562380D02*
X96603809Y-51562380D01*
X96508571Y-51705238D01*
X96413333Y-51800476D01*
X96318095Y-51848095D01*
X97746666Y-51895714D02*
X97746666Y-52562380D01*
X97508571Y-51514761D02*
X97270476Y-52229047D01*
X97889523Y-52229047D01*
X159027380Y-67318095D02*
X158027380Y-67318095D01*
X158027380Y-67080000D01*
X158075000Y-66937142D01*
X158170238Y-66841904D01*
X158265476Y-66794285D01*
X158455952Y-66746666D01*
X158598809Y-66746666D01*
X158789285Y-66794285D01*
X158884523Y-66841904D01*
X158979761Y-66937142D01*
X159027380Y-67080000D01*
X159027380Y-67318095D01*
X158027380Y-65889523D02*
X158027380Y-66080000D01*
X158075000Y-66175238D01*
X158122619Y-66222857D01*
X158265476Y-66318095D01*
X158455952Y-66365714D01*
X158836904Y-66365714D01*
X158932142Y-66318095D01*
X158979761Y-66270476D01*
X159027380Y-66175238D01*
X159027380Y-65984761D01*
X158979761Y-65889523D01*
X158932142Y-65841904D01*
X158836904Y-65794285D01*
X158598809Y-65794285D01*
X158503571Y-65841904D01*
X158455952Y-65889523D01*
X158408333Y-65984761D01*
X158408333Y-66175238D01*
X158455952Y-66270476D01*
X158503571Y-66318095D01*
X158598809Y-66365714D01*
X141833333Y-122627030D02*
X141785714Y-122674649D01*
X141642857Y-122722268D01*
X141547619Y-122722268D01*
X141404761Y-122674649D01*
X141309523Y-122579411D01*
X141261904Y-122484173D01*
X141214285Y-122293697D01*
X141214285Y-122150840D01*
X141261904Y-121960364D01*
X141309523Y-121865126D01*
X141404761Y-121769888D01*
X141547619Y-121722268D01*
X141642857Y-121722268D01*
X141785714Y-121769888D01*
X141833333Y-121817507D01*
X142738095Y-121722268D02*
X142261904Y-121722268D01*
X142214285Y-122198459D01*
X142261904Y-122150840D01*
X142357142Y-122103221D01*
X142595238Y-122103221D01*
X142690476Y-122150840D01*
X142738095Y-122198459D01*
X142785714Y-122293697D01*
X142785714Y-122531792D01*
X142738095Y-122627030D01*
X142690476Y-122674649D01*
X142595238Y-122722268D01*
X142357142Y-122722268D01*
X142261904Y-122674649D01*
X142214285Y-122627030D01*
X121864380Y-118594095D02*
X120864380Y-118594095D01*
X120864380Y-118356000D01*
X120912000Y-118213142D01*
X121007238Y-118117904D01*
X121102476Y-118070285D01*
X121292952Y-118022666D01*
X121435809Y-118022666D01*
X121626285Y-118070285D01*
X121721523Y-118117904D01*
X121816761Y-118213142D01*
X121864380Y-118356000D01*
X121864380Y-118594095D01*
X121864380Y-117070285D02*
X121864380Y-117641714D01*
X121864380Y-117356000D02*
X120864380Y-117356000D01*
X121007238Y-117451238D01*
X121102476Y-117546476D01*
X121150095Y-117641714D01*
X114498095Y-111997380D02*
X114498095Y-112806904D01*
X114545714Y-112902142D01*
X114593333Y-112949761D01*
X114688571Y-112997380D01*
X114879047Y-112997380D01*
X114974285Y-112949761D01*
X115021904Y-112902142D01*
X115069523Y-112806904D01*
X115069523Y-111997380D01*
X115974285Y-112330714D02*
X115974285Y-112997380D01*
X115736190Y-111949761D02*
X115498095Y-112664047D01*
X116117142Y-112664047D01*
X121864380Y-98528095D02*
X120864380Y-98528095D01*
X120864380Y-98290000D01*
X120912000Y-98147142D01*
X121007238Y-98051904D01*
X121102476Y-98004285D01*
X121292952Y-97956666D01*
X121435809Y-97956666D01*
X121626285Y-98004285D01*
X121721523Y-98051904D01*
X121816761Y-98147142D01*
X121864380Y-98290000D01*
X121864380Y-98528095D01*
X120864380Y-97623333D02*
X120864380Y-97004285D01*
X121245333Y-97337619D01*
X121245333Y-97194761D01*
X121292952Y-97099523D01*
X121340571Y-97051904D01*
X121435809Y-97004285D01*
X121673904Y-97004285D01*
X121769142Y-97051904D01*
X121816761Y-97099523D01*
X121864380Y-97194761D01*
X121864380Y-97480476D01*
X121816761Y-97575714D01*
X121769142Y-97623333D01*
X106877380Y-95741189D02*
X106401190Y-96074522D01*
X106877380Y-96312617D02*
X105877380Y-96312617D01*
X105877380Y-95931665D01*
X105925000Y-95836427D01*
X105972619Y-95788808D01*
X106067857Y-95741189D01*
X106210714Y-95741189D01*
X106305952Y-95788808D01*
X106353571Y-95836427D01*
X106401190Y-95931665D01*
X106401190Y-96312617D01*
X105972619Y-95360236D02*
X105925000Y-95312617D01*
X105877380Y-95217379D01*
X105877380Y-94979284D01*
X105925000Y-94884046D01*
X105972619Y-94836427D01*
X106067857Y-94788808D01*
X106163095Y-94788808D01*
X106305952Y-94836427D01*
X106877380Y-95407855D01*
X106877380Y-94788808D01*
X105972619Y-94407855D02*
X105925000Y-94360236D01*
X105877380Y-94264998D01*
X105877380Y-94026903D01*
X105925000Y-93931665D01*
X105972619Y-93884046D01*
X106067857Y-93836427D01*
X106163095Y-93836427D01*
X106305952Y-93884046D01*
X106877380Y-94455474D01*
X106877380Y-93836427D01*
X100687142Y-71787141D02*
X100639523Y-71834760D01*
X100496666Y-71882379D01*
X100401428Y-71882379D01*
X100258571Y-71834760D01*
X100163333Y-71739522D01*
X100115714Y-71644284D01*
X100068095Y-71453808D01*
X100068095Y-71310951D01*
X100115714Y-71120475D01*
X100163333Y-71025237D01*
X100258571Y-70929999D01*
X100401428Y-70882379D01*
X100496666Y-70882379D01*
X100639523Y-70929999D01*
X100687142Y-70977618D01*
X101639523Y-71882379D02*
X101068095Y-71882379D01*
X101353809Y-71882379D02*
X101353809Y-70882379D01*
X101258571Y-71025237D01*
X101163333Y-71120475D01*
X101068095Y-71168094D01*
X102020476Y-70977618D02*
X102068095Y-70929999D01*
X102163333Y-70882379D01*
X102401428Y-70882379D01*
X102496666Y-70929999D01*
X102544285Y-70977618D01*
X102591904Y-71072856D01*
X102591904Y-71168094D01*
X102544285Y-71310951D01*
X101972857Y-71882379D01*
X102591904Y-71882379D01*
X138731666Y-59777380D02*
X138731666Y-60491666D01*
X138684047Y-60634523D01*
X138588809Y-60729761D01*
X138445952Y-60777380D01*
X138350714Y-60777380D01*
X139731666Y-60777380D02*
X139160238Y-60777380D01*
X139445952Y-60777380D02*
X139445952Y-59777380D01*
X139350714Y-59920238D01*
X139255476Y-60015476D01*
X139160238Y-60063095D01*
D11*
X145820000Y-67525395D02*
X148264000Y-67525395D01*
X145820000Y-66965395D02*
X147952000Y-66965395D01*
X141917000Y-66565395D02*
X147643000Y-66565395D01*
X141531000Y-67085395D02*
X143740000Y-67085395D01*
X145820000Y-67205395D02*
X148101000Y-67205395D01*
X145820000Y-66845395D02*
X147868000Y-66845395D01*
X141437000Y-67245395D02*
X143740000Y-67245395D01*
X142831000Y-65805395D02*
X146729000Y-65805395D01*
X141373000Y-67365395D02*
X143740000Y-67365395D01*
X142148000Y-66325395D02*
X147412000Y-66325395D01*
X141033000Y-68325395D02*
X143740000Y-68325395D01*
X145820000Y-68085395D02*
X148468000Y-68085395D01*
X145820000Y-67965395D02*
X148433000Y-67965395D01*
X145820000Y-68365395D02*
X148535000Y-68365395D01*
X141722000Y-66805395D02*
X147838000Y-66805395D01*
X141556000Y-67045395D02*
X143740000Y-67045395D01*
X141167000Y-67845395D02*
X143740000Y-67845395D01*
X145820000Y-68566395D02*
X148570000Y-68566395D01*
X145820000Y-68606395D02*
X148575000Y-68606395D01*
X141025000Y-68365395D02*
X143740000Y-68365395D01*
X143302000Y-65565395D02*
X146258000Y-65565395D01*
X145820000Y-68005395D02*
X148445000Y-68005395D01*
X145820000Y-67685395D02*
X148333000Y-67685395D01*
X145820000Y-68846395D02*
X148600000Y-68846395D01*
X141394000Y-67325395D02*
X143740000Y-67325395D01*
X141212000Y-67725395D02*
X143740000Y-67725395D01*
X140975000Y-68686395D02*
X143740000Y-68686395D01*
X141314000Y-67485395D02*
X143740000Y-67485395D01*
X145820000Y-68325395D02*
X148527000Y-68325395D01*
X145820000Y-67885395D02*
X148406000Y-67885395D01*
X141459000Y-67205395D02*
X143740000Y-67205395D01*
X140950000Y-69046395D02*
X148610000Y-69046395D01*
X145820000Y-67405395D02*
X148207000Y-67405395D01*
X145820000Y-67005395D02*
X147978000Y-67005395D01*
X141154000Y-67885395D02*
X143740000Y-67885395D01*
X140953000Y-68966395D02*
X148607000Y-68966395D01*
X145820000Y-68165395D02*
X148490000Y-68165395D01*
X142703000Y-65885395D02*
X146857000Y-65885395D01*
X143399000Y-65525395D02*
X146161000Y-65525395D01*
X141752000Y-66765395D02*
X147808000Y-66765395D01*
X142230000Y-72893606D02*
X142980000Y-72893606D01*
X141664000Y-66885395D02*
X143740000Y-66885395D01*
X141196000Y-67765395D02*
X143740000Y-67765395D01*
X142425000Y-66085395D02*
X147135000Y-66085395D01*
X140966000Y-68766395D02*
X143740000Y-68766395D01*
X145820000Y-68245395D02*
X148509000Y-68245395D01*
X141953000Y-66525395D02*
X147607000Y-66525395D01*
X142585000Y-65965395D02*
X146975000Y-65965395D01*
X141081000Y-68125395D02*
X143740000Y-68125395D01*
X140985000Y-68606395D02*
X143740000Y-68606395D01*
X145820000Y-67565395D02*
X148282000Y-67565395D01*
X145820000Y-67045395D02*
X148004000Y-67045395D01*
X141692000Y-66845395D02*
X143740000Y-66845395D01*
X141882000Y-66605395D02*
X147678000Y-66605395D01*
X141849000Y-66645395D02*
X147711000Y-66645395D01*
X140963000Y-68806395D02*
X143740000Y-68806395D01*
X140996000Y-68526395D02*
X143740000Y-68526395D01*
X145820000Y-68045395D02*
X148457000Y-68045395D01*
X141990000Y-66485395D02*
X147570000Y-66485395D01*
X141003000Y-68486395D02*
X143740000Y-68486395D01*
X145820000Y-67605395D02*
X148300000Y-67605395D01*
X140950000Y-69086395D02*
X148610000Y-69086395D01*
X141051000Y-68245395D02*
X143740000Y-68245395D01*
X145820000Y-68285395D02*
X148518000Y-68285395D01*
X141115000Y-68005395D02*
X143740000Y-68005395D01*
X142234000Y-66245395D02*
X147326000Y-66245395D01*
X142530000Y-66005395D02*
X147030000Y-66005395D01*
X144339000Y-65285395D02*
X145221000Y-65285395D01*
X141353000Y-67405395D02*
X143740000Y-67405395D01*
X145820000Y-66925395D02*
X147924000Y-66925395D01*
X142280000Y-66205395D02*
X147280000Y-66205395D01*
X145820000Y-67925395D02*
X148420000Y-67925395D01*
X145820000Y-67805395D02*
X148378000Y-67805395D01*
X141182000Y-67805395D02*
X143740000Y-67805395D01*
X145820000Y-67365395D02*
X148187000Y-67365395D01*
X145820000Y-67445395D02*
X148227000Y-67445395D01*
X141636000Y-66925395D02*
X143740000Y-66925395D01*
X142107000Y-66365395D02*
X147453000Y-66365395D01*
X145820000Y-68405395D02*
X148543000Y-68405395D01*
X145820000Y-67125395D02*
X148054000Y-67125395D01*
X141415000Y-67285395D02*
X143740000Y-67285395D01*
X141103000Y-68045395D02*
X143740000Y-68045395D01*
X142643000Y-65925395D02*
X146917000Y-65925395D01*
X141296000Y-67525395D02*
X143740000Y-67525395D01*
X141784000Y-66725395D02*
X147776000Y-66725395D01*
X145820000Y-67845395D02*
X148393000Y-67845395D01*
X142899000Y-65765395D02*
X146661000Y-65765395D01*
X142028000Y-66445395D02*
X147532000Y-66445395D01*
X142191000Y-66285395D02*
X147369000Y-66285395D01*
X141140000Y-67925395D02*
X143740000Y-67925395D01*
X141010000Y-68446395D02*
X143740000Y-68446395D01*
X145820000Y-68646395D02*
X148581000Y-68646395D01*
X144087000Y-65325395D02*
X145473000Y-65325395D01*
X145820000Y-68125395D02*
X148479000Y-68125395D01*
X142067000Y-66405395D02*
X147493000Y-66405395D01*
X140970000Y-68726395D02*
X143740000Y-68726395D01*
X145820000Y-67645395D02*
X148316000Y-67645395D01*
X145820000Y-68446395D02*
X148550000Y-68446395D01*
X141227000Y-67685395D02*
X143740000Y-67685395D01*
X145820000Y-68486395D02*
X148557000Y-68486395D01*
X141582000Y-67005395D02*
X143740000Y-67005395D01*
X143752000Y-65405395D02*
X145808000Y-65405395D01*
X145820000Y-68205395D02*
X148500000Y-68205395D01*
X142476000Y-66045395D02*
X147084000Y-66045395D01*
X142605000Y-73268606D02*
X142605000Y-72518606D01*
X143211000Y-65605395D02*
X146349000Y-65605395D01*
X141608000Y-66965395D02*
X143740000Y-66965395D01*
X140979000Y-68646395D02*
X143740000Y-68646395D01*
X141017000Y-68405395D02*
X143740000Y-68405395D01*
X141244000Y-67645395D02*
X143740000Y-67645395D01*
X143505000Y-65485395D02*
X146055000Y-65485395D01*
X141127000Y-67965395D02*
X143740000Y-67965395D01*
X145820000Y-68686395D02*
X148585000Y-68686395D01*
X141260000Y-67605395D02*
X143740000Y-67605395D01*
X140951000Y-69006395D02*
X148609000Y-69006395D01*
X140990000Y-68566395D02*
X143740000Y-68566395D01*
X143126000Y-65645395D02*
X146434000Y-65645395D01*
X143622000Y-65445395D02*
X145938000Y-65445395D01*
X142971000Y-65725395D02*
X146589000Y-65725395D01*
X145820000Y-67765395D02*
X148364000Y-67765395D01*
X140960000Y-68846395D02*
X143740000Y-68846395D01*
X141816000Y-66685395D02*
X147744000Y-66685395D01*
X145820000Y-67485395D02*
X148246000Y-67485395D01*
X141092000Y-68085395D02*
X143740000Y-68085395D01*
X142326000Y-66165395D02*
X147234000Y-66165395D01*
X145820000Y-67325395D02*
X148166000Y-67325395D01*
X145820000Y-67725395D02*
X148348000Y-67725395D01*
X145820000Y-68766395D02*
X148594000Y-68766395D01*
X141070000Y-68165395D02*
X143740000Y-68165395D01*
X140957000Y-68886395D02*
X143740000Y-68886395D01*
X142766000Y-65845395D02*
X146794000Y-65845395D01*
X145820000Y-67165395D02*
X148077000Y-67165395D01*
X141060000Y-68205395D02*
X143740000Y-68205395D01*
X140955000Y-68926395D02*
X148605000Y-68926395D01*
X145820000Y-67245395D02*
X148123000Y-67245395D01*
X145820000Y-68886395D02*
X148603000Y-68886395D01*
X141333000Y-67445395D02*
X143740000Y-67445395D01*
X142375000Y-66125395D02*
X147185000Y-66125395D01*
X145820000Y-67085395D02*
X148029000Y-67085395D01*
X145820000Y-68806395D02*
X148597000Y-68806395D01*
X143903000Y-65365395D02*
X145657000Y-65365395D01*
X145820000Y-68526395D02*
X148564000Y-68526395D01*
X141042000Y-68285395D02*
X143740000Y-68285395D01*
X141483000Y-67165395D02*
X143740000Y-67165395D01*
X141506000Y-67125395D02*
X143740000Y-67125395D01*
X141278000Y-67565395D02*
X143740000Y-67565395D01*
X140950000Y-69126395D02*
X148610000Y-69126395D01*
X145820000Y-66885395D02*
X147896000Y-66885395D01*
X145820000Y-67285395D02*
X148145000Y-67285395D01*
X145820000Y-68726395D02*
X148590000Y-68726395D01*
X143047000Y-65685395D02*
X146513000Y-65685395D01*
X148650000Y-69126395D02*
G75*
G03*
X148650000Y-69126395I-3870000J0D01*
G01*
X133470000Y-125900000D02*
X133470000Y-115620000D01*
X128170000Y-115620000D02*
X128170000Y-125900000D01*
X133470000Y-115620000D02*
X131820000Y-115620000D01*
X128170000Y-125900000D02*
X133470000Y-125900000D01*
X129820000Y-115620000D02*
X128170000Y-115620000D01*
X129820000Y-115620000D02*
G75*
G03*
X131820000Y-115620000I1000000J0D01*
G01*
X97890000Y-59462936D02*
X97890000Y-59917064D01*
X96420000Y-59462936D02*
X96420000Y-59917064D01*
X80545000Y-62457064D02*
X80545000Y-62002936D01*
X82015000Y-62457064D02*
X82015000Y-62002936D01*
X96420000Y-120422936D02*
X96420000Y-120877064D01*
X97890000Y-120422936D02*
X97890000Y-120877064D01*
X89127064Y-73136666D02*
X88672936Y-73136666D01*
X89127064Y-74606666D02*
X88672936Y-74606666D01*
X120115000Y-100980396D02*
X120115000Y-100526268D01*
X118645000Y-100980396D02*
X118645000Y-100526268D01*
X135628748Y-61695000D02*
X136151252Y-61695000D01*
X135628748Y-60225000D02*
X136151252Y-60225000D01*
X147501000Y-104887000D02*
X146040000Y-104887000D01*
X146971000Y-105928000D02*
X146040000Y-105928000D01*
X145518000Y-106808000D02*
X144482000Y-106808000D01*
X143960000Y-105768000D02*
X142905000Y-105768000D01*
X146098000Y-106608000D02*
X143902000Y-106608000D01*
X146937000Y-105968000D02*
X146040000Y-105968000D01*
X145284000Y-106848000D02*
X144716000Y-106848000D01*
X147224000Y-105568000D02*
X146040000Y-105568000D01*
X147290000Y-105448000D02*
X146040000Y-105448000D01*
X147310000Y-105408000D02*
X146040000Y-105408000D01*
X146826000Y-106088000D02*
X146040000Y-106088000D01*
X147480000Y-104968000D02*
X146040000Y-104968000D01*
X146785000Y-106128000D02*
X146040000Y-106128000D01*
X143960000Y-104887000D02*
X142499000Y-104887000D01*
X147095000Y-105768000D02*
X146040000Y-105768000D01*
X143960000Y-105568000D02*
X142776000Y-105568000D01*
X145805000Y-106728000D02*
X144195000Y-106728000D01*
X146901000Y-106008000D02*
X146040000Y-106008000D01*
X147556000Y-104607000D02*
X146040000Y-104607000D01*
X147200000Y-105608000D02*
X146040000Y-105608000D01*
X147065000Y-105808000D02*
X146040000Y-105808000D01*
X147511000Y-104847000D02*
X146040000Y-104847000D01*
X146653000Y-106248000D02*
X146040000Y-106248000D01*
X143960000Y-104727000D02*
X142464000Y-104727000D01*
X143960000Y-105808000D02*
X142935000Y-105808000D01*
X147580000Y-104287000D02*
X142420000Y-104287000D01*
X146443000Y-106408000D02*
X146040000Y-106408000D01*
X143960000Y-104687000D02*
X142457000Y-104687000D01*
X146864000Y-106048000D02*
X146040000Y-106048000D01*
X143960000Y-105728000D02*
X142878000Y-105728000D01*
X143960000Y-105408000D02*
X142690000Y-105408000D01*
X143960000Y-106208000D02*
X143301000Y-106208000D01*
X147414000Y-105168000D02*
X146040000Y-105168000D01*
X147520000Y-104807000D02*
X146040000Y-104807000D01*
X147565000Y-104527000D02*
X146040000Y-104527000D01*
X143960000Y-105848000D02*
X142965000Y-105848000D01*
X145915000Y-106688000D02*
X144085000Y-106688000D01*
X146383000Y-106448000D02*
X146040000Y-106448000D01*
X145677000Y-106768000D02*
X144323000Y-106768000D01*
X143960000Y-104807000D02*
X142480000Y-104807000D01*
X143960000Y-106088000D02*
X143174000Y-106088000D01*
X143960000Y-104968000D02*
X142520000Y-104968000D01*
X143960000Y-104647000D02*
X142450000Y-104647000D01*
X143960000Y-106408000D02*
X143557000Y-106408000D01*
X143960000Y-105888000D02*
X142996000Y-105888000D01*
X147247000Y-105528000D02*
X146040000Y-105528000D01*
X146319000Y-106488000D02*
X146040000Y-106488000D01*
X147175000Y-105648000D02*
X146040000Y-105648000D01*
X147398000Y-105208000D02*
X146040000Y-105208000D01*
X143960000Y-105448000D02*
X142710000Y-105448000D01*
X147149000Y-105688000D02*
X146040000Y-105688000D01*
X143960000Y-105168000D02*
X142586000Y-105168000D01*
X143960000Y-104927000D02*
X142509000Y-104927000D01*
X143960000Y-105928000D02*
X143029000Y-105928000D01*
X146743000Y-106168000D02*
X146040000Y-106168000D01*
X143960000Y-106488000D02*
X143681000Y-106488000D01*
X147569000Y-104487000D02*
X146040000Y-104487000D01*
X143960000Y-105128000D02*
X142572000Y-105128000D01*
X147536000Y-104727000D02*
X146040000Y-104727000D01*
X147428000Y-105128000D02*
X146040000Y-105128000D01*
X147348000Y-105328000D02*
X146040000Y-105328000D01*
X146605000Y-106288000D02*
X146040000Y-106288000D01*
X143960000Y-106448000D02*
X143617000Y-106448000D01*
X147573000Y-104447000D02*
X142427000Y-104447000D01*
X147455000Y-105048000D02*
X146040000Y-105048000D01*
X147491000Y-104927000D02*
X146040000Y-104927000D01*
X146554000Y-106328000D02*
X146040000Y-106328000D01*
X143960000Y-104567000D02*
X142439000Y-104567000D01*
X143960000Y-105248000D02*
X142618000Y-105248000D01*
X143960000Y-106288000D02*
X143395000Y-106288000D01*
X143960000Y-106248000D02*
X143347000Y-106248000D01*
X143960000Y-106128000D02*
X143215000Y-106128000D01*
X147442000Y-105088000D02*
X146040000Y-105088000D01*
X143960000Y-104767000D02*
X142472000Y-104767000D01*
X146475000Y-101442225D02*
X146475000Y-101942225D01*
X147035000Y-105848000D02*
X146040000Y-105848000D01*
X147576000Y-104407000D02*
X142424000Y-104407000D01*
X143960000Y-105328000D02*
X142652000Y-105328000D01*
X143960000Y-104487000D02*
X142431000Y-104487000D01*
X143960000Y-105688000D02*
X142851000Y-105688000D01*
X143960000Y-104527000D02*
X142435000Y-104527000D01*
X143960000Y-106528000D02*
X143749000Y-106528000D01*
X146011000Y-106648000D02*
X143989000Y-106648000D01*
X147268000Y-105488000D02*
X146040000Y-105488000D01*
X147365000Y-105288000D02*
X146040000Y-105288000D01*
X143960000Y-105608000D02*
X142800000Y-105608000D01*
X143960000Y-105368000D02*
X142671000Y-105368000D01*
X147122000Y-105728000D02*
X146040000Y-105728000D01*
X143960000Y-105048000D02*
X142545000Y-105048000D01*
X147528000Y-104767000D02*
X146040000Y-104767000D01*
X143960000Y-106008000D02*
X143099000Y-106008000D01*
X143960000Y-106168000D02*
X143257000Y-106168000D01*
X143960000Y-105968000D02*
X143063000Y-105968000D01*
X143960000Y-104607000D02*
X142444000Y-104607000D01*
X146725000Y-101692225D02*
X146225000Y-101692225D01*
X143960000Y-105648000D02*
X142825000Y-105648000D01*
X146699000Y-106208000D02*
X146040000Y-106208000D01*
X143960000Y-106048000D02*
X143136000Y-106048000D01*
X147561000Y-104567000D02*
X146040000Y-104567000D01*
X143960000Y-105528000D02*
X142753000Y-105528000D01*
X147580000Y-104247000D02*
X142420000Y-104247000D01*
X147329000Y-105368000D02*
X146040000Y-105368000D01*
X147382000Y-105248000D02*
X146040000Y-105248000D01*
X147579000Y-104327000D02*
X142421000Y-104327000D01*
X147543000Y-104687000D02*
X146040000Y-104687000D01*
X147550000Y-104647000D02*
X146040000Y-104647000D01*
X143960000Y-105288000D02*
X142635000Y-105288000D01*
X143960000Y-104847000D02*
X142489000Y-104847000D01*
X147004000Y-105888000D02*
X146040000Y-105888000D01*
X143960000Y-105088000D02*
X142558000Y-105088000D01*
X147468000Y-105008000D02*
X146040000Y-105008000D01*
X146251000Y-106528000D02*
X146040000Y-106528000D01*
X143960000Y-105008000D02*
X142532000Y-105008000D01*
X143960000Y-106328000D02*
X143446000Y-106328000D01*
X143960000Y-106368000D02*
X143500000Y-106368000D01*
X146500000Y-106368000D02*
X146040000Y-106368000D01*
X143960000Y-105208000D02*
X142602000Y-105208000D01*
X143960000Y-105488000D02*
X142732000Y-105488000D01*
X147578000Y-104367000D02*
X142422000Y-104367000D01*
X146178000Y-106568000D02*
X143822000Y-106568000D01*
X147620000Y-104247000D02*
G75*
G03*
X147620000Y-104247000I-2620000J0D01*
G01*
X99370113Y-82604111D02*
X101200113Y-82604111D01*
X99187113Y-82684111D02*
X101383113Y-82684111D01*
X97757113Y-84525111D02*
X99245113Y-84525111D01*
X101325113Y-84365111D02*
X102776113Y-84365111D01*
X101325113Y-83484111D02*
X102350113Y-83484111D01*
X101325113Y-82884111D02*
X101728113Y-82884111D01*
X97707113Y-84925111D02*
X102863113Y-84925111D01*
X101325113Y-82924111D02*
X101785113Y-82924111D01*
X101325113Y-84445111D02*
X102796113Y-84445111D01*
X101325113Y-84244111D02*
X102740113Y-84244111D01*
X97765113Y-84485111D02*
X99245113Y-84485111D01*
X99034113Y-82764111D02*
X99245113Y-82764111D01*
X101325113Y-83364111D02*
X102256113Y-83364111D01*
X101325113Y-84164111D02*
X102713113Y-84164111D01*
X101325113Y-83124111D02*
X102028113Y-83124111D01*
X98586113Y-83084111D02*
X99245113Y-83084111D01*
X98163113Y-83564111D02*
X99245113Y-83564111D01*
X98680113Y-83004111D02*
X99245113Y-83004111D01*
X97705113Y-85005111D02*
X102865113Y-85005111D01*
X98500113Y-83164111D02*
X99245113Y-83164111D01*
X97843113Y-84204111D02*
X99245113Y-84204111D01*
X98038113Y-83764111D02*
X99245113Y-83764111D01*
X101325113Y-83244111D02*
X102149113Y-83244111D01*
X97995113Y-83844111D02*
X99245113Y-83844111D01*
X101325113Y-83684111D02*
X102485113Y-83684111D01*
X98560113Y-87599886D02*
X99060113Y-87599886D01*
X97920113Y-84004111D02*
X99245113Y-84004111D01*
X97830113Y-84244111D02*
X99245113Y-84244111D01*
X101325113Y-83204111D02*
X102111113Y-83204111D01*
X99480113Y-82564111D02*
X101090113Y-82564111D01*
X101325113Y-84405111D02*
X102786113Y-84405111D01*
X97706113Y-84965111D02*
X102864113Y-84965111D01*
X101325113Y-84324111D02*
X102765113Y-84324111D01*
X97709113Y-84885111D02*
X102861113Y-84885111D01*
X98731113Y-82964111D02*
X99245113Y-82964111D01*
X97742113Y-84605111D02*
X99245113Y-84605111D01*
X98110113Y-83644111D02*
X99245113Y-83644111D01*
X98842113Y-82884111D02*
X99245113Y-82884111D01*
X101325113Y-83084111D02*
X101984113Y-83084111D01*
X101325113Y-82764111D02*
X101536113Y-82764111D01*
X98136113Y-83604111D02*
X99245113Y-83604111D01*
X98085113Y-83684111D02*
X99245113Y-83684111D01*
X97903113Y-84044111D02*
X99245113Y-84044111D01*
X101325113Y-83524111D02*
X102380113Y-83524111D01*
X101325113Y-84805111D02*
X102854113Y-84805111D01*
X99274113Y-82644111D02*
X101296113Y-82644111D01*
X101325113Y-84004111D02*
X102650113Y-84004111D01*
X101325113Y-83004111D02*
X101890113Y-83004111D01*
X98061113Y-83724111D02*
X99245113Y-83724111D01*
X98421113Y-83244111D02*
X99245113Y-83244111D01*
X97749113Y-84565111D02*
X99245113Y-84565111D01*
X98785113Y-82924111D02*
X99245113Y-82924111D01*
X97956113Y-83924111D02*
X99245113Y-83924111D01*
X97817113Y-84284111D02*
X99245113Y-84284111D01*
X97720113Y-84765111D02*
X99245113Y-84765111D01*
X101325113Y-83804111D02*
X102553113Y-83804111D01*
X97729113Y-84685111D02*
X99245113Y-84685111D01*
X98017113Y-83804111D02*
X99245113Y-83804111D01*
X97975113Y-83884111D02*
X99245113Y-83884111D01*
X101325113Y-83764111D02*
X102532113Y-83764111D01*
X101325113Y-83884111D02*
X102595113Y-83884111D01*
X97857113Y-84164111D02*
X99245113Y-84164111D01*
X99107113Y-82724111D02*
X101463113Y-82724111D01*
X97805113Y-84324111D02*
X99245113Y-84324111D01*
X98250113Y-83444111D02*
X99245113Y-83444111D01*
X97784113Y-84405111D02*
X99245113Y-84405111D01*
X101325113Y-83404111D02*
X102289113Y-83404111D01*
X98810113Y-87849886D02*
X98810113Y-87349886D01*
X101325113Y-83164111D02*
X102070113Y-83164111D01*
X97937113Y-83964111D02*
X99245113Y-83964111D01*
X101325113Y-84565111D02*
X102821113Y-84565111D01*
X97774113Y-84445111D02*
X99245113Y-84445111D01*
X101325113Y-84725111D02*
X102846113Y-84725111D01*
X101325113Y-83444111D02*
X102320113Y-83444111D01*
X97724113Y-84725111D02*
X99245113Y-84725111D01*
X101325113Y-83724111D02*
X102509113Y-83724111D01*
X101325113Y-83564111D02*
X102407113Y-83564111D01*
X101325113Y-84605111D02*
X102828113Y-84605111D01*
X101325113Y-84765111D02*
X102850113Y-84765111D01*
X101325113Y-84204111D02*
X102727113Y-84204111D01*
X97735113Y-84645111D02*
X99245113Y-84645111D01*
X97716113Y-84805111D02*
X99245113Y-84805111D01*
X101325113Y-84284111D02*
X102753113Y-84284111D01*
X98966113Y-82804111D02*
X99245113Y-82804111D01*
X100001113Y-82444111D02*
X100569113Y-82444111D01*
X97871113Y-84124111D02*
X99245113Y-84124111D01*
X97712113Y-84845111D02*
X102858113Y-84845111D01*
X101325113Y-84044111D02*
X102667113Y-84044111D01*
X98459113Y-83204111D02*
X99245113Y-83204111D01*
X99608113Y-82524111D02*
X100962113Y-82524111D01*
X101325113Y-83324111D02*
X102222113Y-83324111D01*
X101325113Y-83604111D02*
X102434113Y-83604111D01*
X98348113Y-83324111D02*
X99245113Y-83324111D01*
X98190113Y-83524111D02*
X99245113Y-83524111D01*
X99767113Y-82484111D02*
X100803113Y-82484111D01*
X101325113Y-82804111D02*
X101604113Y-82804111D01*
X101325113Y-83644111D02*
X102460113Y-83644111D01*
X101325113Y-82964111D02*
X101839113Y-82964111D01*
X101325113Y-84084111D02*
X102683113Y-84084111D01*
X101325113Y-83964111D02*
X102633113Y-83964111D01*
X98384113Y-83284111D02*
X99245113Y-83284111D01*
X101325113Y-84685111D02*
X102841113Y-84685111D01*
X101325113Y-83924111D02*
X102614113Y-83924111D01*
X98902113Y-82844111D02*
X99245113Y-82844111D01*
X101325113Y-82844111D02*
X101668113Y-82844111D01*
X97887113Y-84084111D02*
X99245113Y-84084111D01*
X101325113Y-84525111D02*
X102813113Y-84525111D01*
X98632113Y-83044111D02*
X99245113Y-83044111D01*
X98281113Y-83404111D02*
X99245113Y-83404111D01*
X97794113Y-84365111D02*
X99245113Y-84365111D01*
X101325113Y-84485111D02*
X102805113Y-84485111D01*
X98220113Y-83484111D02*
X99245113Y-83484111D01*
X101325113Y-83844111D02*
X102575113Y-83844111D01*
X101325113Y-83284111D02*
X102186113Y-83284111D01*
X101325113Y-83044111D02*
X101938113Y-83044111D01*
X97705113Y-85045111D02*
X102865113Y-85045111D01*
X101325113Y-84645111D02*
X102835113Y-84645111D01*
X98314113Y-83364111D02*
X99245113Y-83364111D01*
X101325113Y-84124111D02*
X102699113Y-84124111D01*
X98542113Y-83124111D02*
X99245113Y-83124111D01*
X102905113Y-85045111D02*
G75*
G03*
X102905113Y-85045111I-2620000J0D01*
G01*
X72898000Y-105630132D02*
X79248000Y-105630132D01*
X72898000Y-95851132D02*
X72898000Y-105630132D01*
X79248000Y-95851132D02*
X72898000Y-95851132D01*
X79248000Y-105630132D02*
X79248000Y-95851132D01*
X71882000Y-98505432D02*
G75*
G03*
X71882000Y-98505432I-127000J0D01*
G01*
X102905113Y-125685113D02*
G75*
G03*
X102905113Y-125685113I-2620000J0D01*
G01*
X101325113Y-124884113D02*
X102740113Y-124884113D01*
X101325113Y-123404113D02*
X101536113Y-123404113D01*
X99767113Y-123124113D02*
X100803113Y-123124113D01*
X101325113Y-124764113D02*
X102699113Y-124764113D01*
X98061113Y-124364113D02*
X99245113Y-124364113D01*
X98281113Y-124044113D02*
X99245113Y-124044113D01*
X97903113Y-124684113D02*
X99245113Y-124684113D01*
X101325113Y-124004113D02*
X102256113Y-124004113D01*
X97742113Y-125245113D02*
X99245113Y-125245113D01*
X101325113Y-125405113D02*
X102850113Y-125405113D01*
X98136113Y-124244113D02*
X99245113Y-124244113D01*
X101325113Y-124244113D02*
X102434113Y-124244113D01*
X101325113Y-124204113D02*
X102407113Y-124204113D01*
X101325113Y-124644113D02*
X102650113Y-124644113D01*
X101325113Y-124484113D02*
X102575113Y-124484113D01*
X101325113Y-123524113D02*
X101728113Y-123524113D01*
X99187113Y-123324113D02*
X101383113Y-123324113D01*
X101325113Y-123444113D02*
X101604113Y-123444113D01*
X97716113Y-125445113D02*
X99245113Y-125445113D01*
X97735113Y-125285113D02*
X99245113Y-125285113D01*
X101325113Y-125085113D02*
X102796113Y-125085113D01*
X101325113Y-123564113D02*
X101785113Y-123564113D01*
X97712113Y-125485113D02*
X102858113Y-125485113D01*
X101325113Y-124604113D02*
X102633113Y-124604113D01*
X98190113Y-124164113D02*
X99245113Y-124164113D01*
X101325113Y-124284113D02*
X102460113Y-124284113D01*
X99370113Y-123244113D02*
X101200113Y-123244113D01*
X99274113Y-123284113D02*
X101296113Y-123284113D01*
X101325113Y-124124113D02*
X102350113Y-124124113D01*
X97857113Y-124804113D02*
X99245113Y-124804113D01*
X98810113Y-128489888D02*
X98810113Y-127989888D01*
X101325113Y-123964113D02*
X102222113Y-123964113D01*
X101325113Y-123484113D02*
X101668113Y-123484113D01*
X101325113Y-125325113D02*
X102841113Y-125325113D01*
X101325113Y-125045113D02*
X102786113Y-125045113D01*
X97706113Y-125605113D02*
X102864113Y-125605113D01*
X101325113Y-125005113D02*
X102776113Y-125005113D01*
X101325113Y-123844113D02*
X102111113Y-123844113D01*
X101325113Y-125365113D02*
X102846113Y-125365113D01*
X97995113Y-124484113D02*
X99245113Y-124484113D01*
X97707113Y-125565113D02*
X102863113Y-125565113D01*
X98314113Y-124004113D02*
X99245113Y-124004113D01*
X101325113Y-124324113D02*
X102485113Y-124324113D01*
X98586113Y-123724113D02*
X99245113Y-123724113D01*
X97705113Y-125685113D02*
X102865113Y-125685113D01*
X99480113Y-123204113D02*
X101090113Y-123204113D01*
X101325113Y-125165113D02*
X102813113Y-125165113D01*
X98902113Y-123484113D02*
X99245113Y-123484113D01*
X101325113Y-124404113D02*
X102532113Y-124404113D01*
X97705113Y-125645113D02*
X102865113Y-125645113D01*
X101325113Y-124084113D02*
X102320113Y-124084113D01*
X98842113Y-123524113D02*
X99245113Y-123524113D01*
X97843113Y-124844113D02*
X99245113Y-124844113D01*
X101325113Y-123804113D02*
X102070113Y-123804113D01*
X98220113Y-124124113D02*
X99245113Y-124124113D01*
X98110113Y-124284113D02*
X99245113Y-124284113D01*
X101325113Y-123884113D02*
X102149113Y-123884113D01*
X97757113Y-125165113D02*
X99245113Y-125165113D01*
X97805113Y-124964113D02*
X99245113Y-124964113D01*
X97937113Y-124604113D02*
X99245113Y-124604113D01*
X97975113Y-124524113D02*
X99245113Y-124524113D01*
X98731113Y-123604113D02*
X99245113Y-123604113D01*
X98785113Y-123564113D02*
X99245113Y-123564113D01*
X97765113Y-125125113D02*
X99245113Y-125125113D01*
X98384113Y-123924113D02*
X99245113Y-123924113D01*
X97956113Y-124564113D02*
X99245113Y-124564113D01*
X101325113Y-124444113D02*
X102553113Y-124444113D01*
X101325113Y-124964113D02*
X102765113Y-124964113D01*
X97774113Y-125085113D02*
X99245113Y-125085113D01*
X98966113Y-123444113D02*
X99245113Y-123444113D01*
X98542113Y-123764113D02*
X99245113Y-123764113D01*
X98560113Y-128239888D02*
X99060113Y-128239888D01*
X97830113Y-124884113D02*
X99245113Y-124884113D01*
X101325113Y-123604113D02*
X101839113Y-123604113D01*
X98500113Y-123804113D02*
X99245113Y-123804113D01*
X101325113Y-124804113D02*
X102713113Y-124804113D01*
X101325113Y-123924113D02*
X102186113Y-123924113D01*
X101325113Y-125445113D02*
X102854113Y-125445113D01*
X101325113Y-125125113D02*
X102805113Y-125125113D01*
X98085113Y-124324113D02*
X99245113Y-124324113D01*
X101325113Y-125205113D02*
X102821113Y-125205113D01*
X101325113Y-124044113D02*
X102289113Y-124044113D01*
X101325113Y-123684113D02*
X101938113Y-123684113D01*
X97887113Y-124724113D02*
X99245113Y-124724113D01*
X98421113Y-123884113D02*
X99245113Y-123884113D01*
X98017113Y-124444113D02*
X99245113Y-124444113D01*
X101325113Y-124524113D02*
X102595113Y-124524113D01*
X98680113Y-123644113D02*
X99245113Y-123644113D01*
X98038113Y-124404113D02*
X99245113Y-124404113D01*
X99034113Y-123404113D02*
X99245113Y-123404113D01*
X98163113Y-124204113D02*
X99245113Y-124204113D01*
X99107113Y-123364113D02*
X101463113Y-123364113D01*
X101325113Y-125285113D02*
X102835113Y-125285113D01*
X101325113Y-124924113D02*
X102753113Y-124924113D01*
X101325113Y-124364113D02*
X102509113Y-124364113D01*
X97871113Y-124764113D02*
X99245113Y-124764113D01*
X101325113Y-124564113D02*
X102614113Y-124564113D01*
X97794113Y-125005113D02*
X99245113Y-125005113D01*
X98459113Y-123844113D02*
X99245113Y-123844113D01*
X101325113Y-124724113D02*
X102683113Y-124724113D01*
X98632113Y-123684113D02*
X99245113Y-123684113D01*
X101325113Y-124844113D02*
X102727113Y-124844113D01*
X97784113Y-125045113D02*
X99245113Y-125045113D01*
X100001113Y-123084113D02*
X100569113Y-123084113D01*
X97920113Y-124644113D02*
X99245113Y-124644113D01*
X97709113Y-125525113D02*
X102861113Y-125525113D01*
X101325113Y-123644113D02*
X101890113Y-123644113D01*
X97817113Y-124924113D02*
X99245113Y-124924113D01*
X101325113Y-123764113D02*
X102028113Y-123764113D01*
X97749113Y-125205113D02*
X99245113Y-125205113D01*
X97724113Y-125365113D02*
X99245113Y-125365113D01*
X101325113Y-125245113D02*
X102828113Y-125245113D01*
X101325113Y-124164113D02*
X102380113Y-124164113D01*
X97729113Y-125325113D02*
X99245113Y-125325113D01*
X98250113Y-124084113D02*
X99245113Y-124084113D01*
X98348113Y-123964113D02*
X99245113Y-123964113D01*
X99608113Y-123164113D02*
X100962113Y-123164113D01*
X101325113Y-123724113D02*
X101984113Y-123724113D01*
X101325113Y-124684113D02*
X102667113Y-124684113D01*
X97720113Y-125405113D02*
X99245113Y-125405113D01*
X139390000Y-102825000D02*
X139390000Y-99965000D01*
X137470000Y-102825000D02*
X139390000Y-102825000D01*
X137470000Y-99965000D02*
X137470000Y-102825000D01*
X91560000Y-75726666D02*
X89910000Y-75726666D01*
X91560000Y-86006666D02*
X91560000Y-75726666D01*
X87910000Y-75726666D02*
X86260000Y-75726666D01*
X86260000Y-75726666D02*
X86260000Y-86006666D01*
X86260000Y-86006666D02*
X91560000Y-86006666D01*
X87910000Y-75726666D02*
G75*
G03*
X89910000Y-75726666I1000000J0D01*
G01*
X159995000Y-88455000D02*
X159995000Y-91545000D01*
X159995000Y-91544830D02*
G75*
G03*
X165545000Y-89999538I2560000J1544830D01*
G01*
X165545000Y-90000462D02*
G75*
G03*
X159995000Y-88455170I-2990000J462D01*
G01*
X165355000Y-90000000D02*
G75*
G03*
X165355000Y-90000000I-2800000J0D01*
G01*
X89127064Y-114400000D02*
X88672936Y-114400000D01*
X89127064Y-112930000D02*
X88672936Y-112930000D01*
X96420000Y-100102936D02*
X96420000Y-100557064D01*
X97890000Y-100102936D02*
X97890000Y-100557064D01*
X72898000Y-85733466D02*
X79248000Y-85733466D01*
X79248000Y-75954466D02*
X72898000Y-75954466D01*
X79248000Y-85733466D02*
X79248000Y-75954466D01*
X72898000Y-75954466D02*
X72898000Y-85733466D01*
X71882000Y-78608766D02*
G75*
G03*
X71882000Y-78608766I-127000J0D01*
G01*
X109120000Y-66110000D02*
X114420000Y-66110000D01*
X114420000Y-66110000D02*
X114420000Y-55830000D01*
X109120000Y-55830000D02*
X109120000Y-66110000D01*
X110770000Y-55830000D02*
X109120000Y-55830000D01*
X114420000Y-55830000D02*
X112770000Y-55830000D01*
X110770000Y-55830000D02*
G75*
G03*
X112770000Y-55830000I1000000J0D01*
G01*
X72898000Y-125526800D02*
X79248000Y-125526800D01*
X79248000Y-125526800D02*
X79248000Y-115747800D01*
X79248000Y-115747800D02*
X72898000Y-115747800D01*
X72898000Y-115747800D02*
X72898000Y-125526800D01*
X71882000Y-118402100D02*
G75*
G03*
X71882000Y-118402100I-127000J0D01*
G01*
X150395000Y-96722824D02*
X150395000Y-97176952D01*
X151865000Y-96722824D02*
X151865000Y-97176952D01*
X151865000Y-124042824D02*
X151865000Y-124496952D01*
X150395000Y-124042824D02*
X150395000Y-124496952D01*
X99004113Y-94209998D02*
X99004113Y-93002998D01*
X103089888Y-96724998D02*
X102589888Y-96724998D01*
X98724113Y-97314998D02*
X98724113Y-96289998D01*
X99404113Y-97677998D02*
X99404113Y-96289998D01*
X97964113Y-96427998D02*
X97964113Y-94071998D01*
X99164113Y-94209998D02*
X99164113Y-92920998D01*
X100245113Y-97829998D02*
X100245113Y-92669998D01*
X99204113Y-94209998D02*
X99204113Y-92901998D01*
X98604113Y-97220998D02*
X98604113Y-96289998D01*
X98244113Y-94209998D02*
X98244113Y-93644998D01*
X99244113Y-97614998D02*
X99244113Y-96289998D01*
X98764113Y-97344998D02*
X98764113Y-96289998D01*
X97724113Y-95767998D02*
X97724113Y-94731998D01*
X99765113Y-97777998D02*
X99765113Y-96289998D01*
X97684113Y-95533998D02*
X97684113Y-94965998D01*
X99404113Y-94209998D02*
X99404113Y-92821998D01*
X99605113Y-97740998D02*
X99605113Y-96289998D01*
X100125113Y-97825998D02*
X100125113Y-92673998D01*
X98204113Y-94209998D02*
X98204113Y-93695998D01*
X98124113Y-94209998D02*
X98124113Y-93806998D01*
X98044113Y-96568998D02*
X98044113Y-96289998D01*
X97844113Y-96164998D02*
X97844113Y-94334998D01*
X98924113Y-97449998D02*
X98924113Y-96289998D01*
X99965113Y-94209998D02*
X99965113Y-92688998D01*
X100045113Y-94209998D02*
X100045113Y-92680998D01*
X98684113Y-94209998D02*
X98684113Y-93214998D01*
X99004113Y-97496998D02*
X99004113Y-96289998D01*
X99965113Y-97810998D02*
X99965113Y-96289998D01*
X100005113Y-97814998D02*
X100005113Y-96289998D01*
X99244113Y-94209998D02*
X99244113Y-92884998D01*
X99605113Y-94209998D02*
X99605113Y-92758998D01*
X99284113Y-97631998D02*
X99284113Y-96289998D01*
X97764113Y-95926998D02*
X97764113Y-94572998D01*
X100005113Y-94209998D02*
X100005113Y-92684998D01*
X98324113Y-94209998D02*
X98324113Y-93550998D01*
X99164113Y-97578998D02*
X99164113Y-96289998D01*
X99204113Y-97597998D02*
X99204113Y-96289998D01*
X99444113Y-97691998D02*
X99444113Y-96289998D01*
X98404113Y-94209998D02*
X98404113Y-93464998D01*
X99845113Y-97792998D02*
X99845113Y-96289998D01*
X98324113Y-96948998D02*
X98324113Y-96289998D01*
X99084113Y-94209998D02*
X99084113Y-92959998D01*
X98444113Y-94209998D02*
X98444113Y-93423998D01*
X98444113Y-97075998D02*
X98444113Y-96289998D01*
X98244113Y-96854998D02*
X98244113Y-96289998D01*
X102839888Y-96974998D02*
X102839888Y-96474998D01*
X99725113Y-97769998D02*
X99725113Y-96289998D01*
X98884113Y-94209998D02*
X98884113Y-93074998D01*
X98004113Y-94209998D02*
X98004113Y-93998998D01*
X99885113Y-94209998D02*
X99885113Y-92699998D01*
X98724113Y-94209998D02*
X98724113Y-93184998D01*
X99765113Y-94209998D02*
X99765113Y-92721998D01*
X99484113Y-94209998D02*
X99484113Y-92794998D01*
X97884113Y-96260998D02*
X97884113Y-94238998D01*
X99925113Y-94209998D02*
X99925113Y-92693998D01*
X99524113Y-97717998D02*
X99524113Y-96289998D01*
X99564113Y-97729998D02*
X99564113Y-96289998D01*
X98084113Y-94209998D02*
X98084113Y-93866998D01*
X99364113Y-97663998D02*
X99364113Y-96289998D01*
X98164113Y-96749998D02*
X98164113Y-96289998D01*
X98684113Y-97284998D02*
X98684113Y-96289998D01*
X99044113Y-94209998D02*
X99044113Y-92981998D01*
X100045113Y-97818998D02*
X100045113Y-96289998D01*
X97804113Y-96054998D02*
X97804113Y-94444998D01*
X99044113Y-97517998D02*
X99044113Y-96289998D01*
X99805113Y-94209998D02*
X99805113Y-92713998D01*
X98364113Y-96992998D02*
X98364113Y-96289998D01*
X99564113Y-94209998D02*
X99564113Y-92769998D01*
X100085113Y-97822998D02*
X100085113Y-92676998D01*
X98964113Y-94209998D02*
X98964113Y-93025998D01*
X98044113Y-94209998D02*
X98044113Y-93930998D01*
X99444113Y-94209998D02*
X99444113Y-92807998D01*
X98844113Y-97398998D02*
X98844113Y-96289998D01*
X99124113Y-97559998D02*
X99124113Y-96289998D01*
X99725113Y-94209998D02*
X99725113Y-92729998D01*
X98844113Y-94209998D02*
X98844113Y-93100998D01*
X99324113Y-94209998D02*
X99324113Y-92851998D01*
X99364113Y-94209998D02*
X99364113Y-92835998D01*
X98644113Y-97253998D02*
X98644113Y-96289998D01*
X98124113Y-96692998D02*
X98124113Y-96289998D01*
X99284113Y-94209998D02*
X99284113Y-92867998D01*
X99685113Y-94209998D02*
X99685113Y-92738998D01*
X98884113Y-97424998D02*
X98884113Y-96289998D01*
X99885113Y-97799998D02*
X99885113Y-96289998D01*
X99524113Y-94209998D02*
X99524113Y-92781998D01*
X99645113Y-94209998D02*
X99645113Y-92748998D01*
X98284113Y-96902998D02*
X98284113Y-96289998D01*
X99124113Y-94209998D02*
X99124113Y-92939998D01*
X98484113Y-94209998D02*
X98484113Y-93385998D01*
X99805113Y-97785998D02*
X99805113Y-96289998D01*
X99084113Y-97539998D02*
X99084113Y-96289998D01*
X98924113Y-94209998D02*
X98924113Y-93049998D01*
X98524113Y-97150998D02*
X98524113Y-96289998D01*
X100165113Y-97827998D02*
X100165113Y-92671998D01*
X100285113Y-97829998D02*
X100285113Y-92669998D01*
X98604113Y-94209998D02*
X98604113Y-93278998D01*
X98284113Y-94209998D02*
X98284113Y-93596998D01*
X98764113Y-94209998D02*
X98764113Y-93154998D01*
X98804113Y-94209998D02*
X98804113Y-93127998D01*
X99645113Y-97750998D02*
X99645113Y-96289998D01*
X98564113Y-97186998D02*
X98564113Y-96289998D01*
X98484113Y-97113998D02*
X98484113Y-96289998D01*
X99925113Y-97805998D02*
X99925113Y-96289998D01*
X97924113Y-96347998D02*
X97924113Y-94151998D01*
X99484113Y-97704998D02*
X99484113Y-96289998D01*
X98524113Y-94209998D02*
X98524113Y-93348998D01*
X98564113Y-94209998D02*
X98564113Y-93312998D01*
X99324113Y-97647998D02*
X99324113Y-96289998D01*
X98404113Y-97034998D02*
X98404113Y-96289998D01*
X98804113Y-97371998D02*
X98804113Y-96289998D01*
X99845113Y-94209998D02*
X99845113Y-92706998D01*
X98964113Y-97473998D02*
X98964113Y-96289998D01*
X98364113Y-94209998D02*
X98364113Y-93506998D01*
X98164113Y-94209998D02*
X98164113Y-93749998D01*
X98644113Y-94209998D02*
X98644113Y-93245998D01*
X99685113Y-97760998D02*
X99685113Y-96289998D01*
X98084113Y-96632998D02*
X98084113Y-96289998D01*
X100205113Y-97828998D02*
X100205113Y-92670998D01*
X98004113Y-96500998D02*
X98004113Y-96289998D01*
X98204113Y-96803998D02*
X98204113Y-96289998D01*
X102905113Y-95249998D02*
G75*
G03*
X102905113Y-95249998I-2620000J0D01*
G01*
X111532936Y-74606666D02*
X111987064Y-74606666D01*
X111532936Y-73136666D02*
X111987064Y-73136666D01*
X97890000Y-79782936D02*
X97890000Y-80237064D01*
X96420000Y-79782936D02*
X96420000Y-80237064D01*
X72898000Y-56057800D02*
X72898000Y-65836800D01*
X72898000Y-65836800D02*
X79248000Y-65836800D01*
X79248000Y-65836800D02*
X79248000Y-56057800D01*
X79248000Y-56057800D02*
X72898000Y-56057800D01*
X71882000Y-58712100D02*
G75*
G03*
X71882000Y-58712100I-127000J0D01*
G01*
X129820000Y-95623332D02*
X128170000Y-95623332D01*
X128170000Y-105903332D02*
X133470000Y-105903332D01*
X133470000Y-105903332D02*
X133470000Y-95623332D01*
X133470000Y-95623332D02*
X131820000Y-95623332D01*
X128170000Y-95623332D02*
X128170000Y-105903332D01*
X129820000Y-95623332D02*
G75*
G03*
X131820000Y-95623332I1000000J0D01*
G01*
X151865000Y-76877936D02*
X151865000Y-77332064D01*
X150395000Y-76877936D02*
X150395000Y-77332064D01*
X102770000Y-59917064D02*
X102770000Y-59462936D01*
X104240000Y-59917064D02*
X104240000Y-59462936D01*
X150395000Y-82957936D02*
X150395000Y-83412064D01*
X151865000Y-82957936D02*
X151865000Y-83412064D01*
X110770000Y-75726666D02*
X109120000Y-75726666D01*
X109120000Y-75726666D02*
X109120000Y-86006666D01*
X114420000Y-75726666D02*
X112770000Y-75726666D01*
X114420000Y-86006666D02*
X114420000Y-75726666D01*
X109120000Y-86006666D02*
X114420000Y-86006666D01*
X110770000Y-75726666D02*
G75*
G03*
X112770000Y-75726666I1000000J0D01*
G01*
X101325113Y-103724110D02*
X102289113Y-103724110D01*
X101325113Y-103804110D02*
X102350113Y-103804110D01*
X98731113Y-103284110D02*
X99245113Y-103284110D01*
X101325113Y-104725110D02*
X102786113Y-104725110D01*
X101325113Y-103244110D02*
X101785113Y-103244110D01*
X101325113Y-104364110D02*
X102667113Y-104364110D01*
X101325113Y-104845110D02*
X102813113Y-104845110D01*
X101325113Y-103484110D02*
X102070113Y-103484110D01*
X97794113Y-104685110D02*
X99245113Y-104685110D01*
X101325113Y-103884110D02*
X102407113Y-103884110D01*
X101325113Y-103444110D02*
X102028113Y-103444110D01*
X101325113Y-104925110D02*
X102828113Y-104925110D01*
X101325113Y-104484110D02*
X102713113Y-104484110D01*
X97920113Y-104324110D02*
X99245113Y-104324110D01*
X98190113Y-103844110D02*
X99245113Y-103844110D01*
X101325113Y-104765110D02*
X102796113Y-104765110D01*
X101325113Y-103524110D02*
X102111113Y-103524110D01*
X98250113Y-103764110D02*
X99245113Y-103764110D01*
X99107113Y-103044110D02*
X101463113Y-103044110D01*
X101325113Y-103324110D02*
X101890113Y-103324110D01*
X101325113Y-104404110D02*
X102683113Y-104404110D01*
X101325113Y-103644110D02*
X102222113Y-103644110D01*
X101325113Y-103364110D02*
X101938113Y-103364110D01*
X97720113Y-105085110D02*
X99245113Y-105085110D01*
X97805113Y-104644110D02*
X99245113Y-104644110D01*
X98220113Y-103804110D02*
X99245113Y-103804110D01*
X98902113Y-103164110D02*
X99245113Y-103164110D01*
X97724113Y-105045110D02*
X99245113Y-105045110D01*
X101325113Y-104805110D02*
X102805113Y-104805110D01*
X98785113Y-103244110D02*
X99245113Y-103244110D01*
X97757113Y-104845110D02*
X99245113Y-104845110D01*
X97817113Y-104604110D02*
X99245113Y-104604110D01*
X101325113Y-103844110D02*
X102380113Y-103844110D01*
X99480113Y-102884110D02*
X101090113Y-102884110D01*
X98421113Y-103564110D02*
X99245113Y-103564110D01*
X98085113Y-104004110D02*
X99245113Y-104004110D01*
X99274113Y-102964110D02*
X101296113Y-102964110D01*
X97716113Y-105125110D02*
X99245113Y-105125110D01*
X97830113Y-104564110D02*
X99245113Y-104564110D01*
X101325113Y-103164110D02*
X101668113Y-103164110D01*
X97705113Y-105325110D02*
X102865113Y-105325110D01*
X98136113Y-103924110D02*
X99245113Y-103924110D01*
X99187113Y-103004110D02*
X101383113Y-103004110D01*
X97871113Y-104444110D02*
X99245113Y-104444110D01*
X101325113Y-104685110D02*
X102776113Y-104685110D01*
X97903113Y-104364110D02*
X99245113Y-104364110D01*
X101325113Y-103084110D02*
X101536113Y-103084110D01*
X98560113Y-107919885D02*
X99060113Y-107919885D01*
X97709113Y-105205110D02*
X102861113Y-105205110D01*
X101325113Y-103284110D02*
X101839113Y-103284110D01*
X101325113Y-104524110D02*
X102727113Y-104524110D01*
X98500113Y-103484110D02*
X99245113Y-103484110D01*
X101325113Y-103604110D02*
X102186113Y-103604110D01*
X101325113Y-104164110D02*
X102575113Y-104164110D01*
X101325113Y-105005110D02*
X102841113Y-105005110D01*
X98038113Y-104084110D02*
X99245113Y-104084110D01*
X97784113Y-104725110D02*
X99245113Y-104725110D01*
X97729113Y-105005110D02*
X99245113Y-105005110D01*
X98110113Y-103964110D02*
X99245113Y-103964110D01*
X98281113Y-103724110D02*
X99245113Y-103724110D01*
X101325113Y-104324110D02*
X102650113Y-104324110D01*
X98384113Y-103604110D02*
X99245113Y-103604110D01*
X101325113Y-103964110D02*
X102460113Y-103964110D01*
X97707113Y-105245110D02*
X102863113Y-105245110D01*
X101325113Y-104965110D02*
X102835113Y-104965110D01*
X98810113Y-108169885D02*
X98810113Y-107669885D01*
X101325113Y-104644110D02*
X102765113Y-104644110D01*
X97774113Y-104765110D02*
X99245113Y-104765110D01*
X97706113Y-105285110D02*
X102864113Y-105285110D01*
X99767113Y-102804110D02*
X100803113Y-102804110D01*
X101325113Y-104084110D02*
X102532113Y-104084110D01*
X98348113Y-103644110D02*
X99245113Y-103644110D01*
X101325113Y-104885110D02*
X102821113Y-104885110D01*
X97995113Y-104164110D02*
X99245113Y-104164110D01*
X98163113Y-103884110D02*
X99245113Y-103884110D01*
X98314113Y-103684110D02*
X99245113Y-103684110D01*
X97742113Y-104925110D02*
X99245113Y-104925110D01*
X98842113Y-103204110D02*
X99245113Y-103204110D01*
X101325113Y-104284110D02*
X102633113Y-104284110D01*
X101325113Y-104604110D02*
X102753113Y-104604110D01*
X98680113Y-103324110D02*
X99245113Y-103324110D01*
X100001113Y-102764110D02*
X100569113Y-102764110D01*
X101325113Y-103684110D02*
X102256113Y-103684110D01*
X101325113Y-105045110D02*
X102846113Y-105045110D01*
X99370113Y-102924110D02*
X101200113Y-102924110D01*
X98632113Y-103364110D02*
X99245113Y-103364110D01*
X101325113Y-103564110D02*
X102149113Y-103564110D01*
X101325113Y-103124110D02*
X101604113Y-103124110D01*
X98017113Y-104124110D02*
X99245113Y-104124110D01*
X97749113Y-104885110D02*
X99245113Y-104885110D01*
X97843113Y-104524110D02*
X99245113Y-104524110D01*
X97705113Y-105365110D02*
X102865113Y-105365110D01*
X101325113Y-104204110D02*
X102595113Y-104204110D01*
X101325113Y-103204110D02*
X101728113Y-103204110D01*
X98966113Y-103124110D02*
X99245113Y-103124110D01*
X101325113Y-104124110D02*
X102553113Y-104124110D01*
X97956113Y-104244110D02*
X99245113Y-104244110D01*
X101325113Y-103764110D02*
X102320113Y-103764110D01*
X98459113Y-103524110D02*
X99245113Y-103524110D01*
X101325113Y-105125110D02*
X102854113Y-105125110D01*
X98061113Y-104044110D02*
X99245113Y-104044110D01*
X101325113Y-105085110D02*
X102850113Y-105085110D01*
X97735113Y-104965110D02*
X99245113Y-104965110D01*
X101325113Y-104564110D02*
X102740113Y-104564110D01*
X101325113Y-104244110D02*
X102614113Y-104244110D01*
X98586113Y-103404110D02*
X99245113Y-103404110D01*
X97887113Y-104404110D02*
X99245113Y-104404110D01*
X99034113Y-103084110D02*
X99245113Y-103084110D01*
X97712113Y-105165110D02*
X102858113Y-105165110D01*
X97857113Y-104484110D02*
X99245113Y-104484110D01*
X97937113Y-104284110D02*
X99245113Y-104284110D01*
X98542113Y-103444110D02*
X99245113Y-103444110D01*
X101325113Y-104004110D02*
X102485113Y-104004110D01*
X101325113Y-103404110D02*
X101984113Y-103404110D01*
X97975113Y-104204110D02*
X99245113Y-104204110D01*
X101325113Y-104044110D02*
X102509113Y-104044110D01*
X97765113Y-104805110D02*
X99245113Y-104805110D01*
X101325113Y-103924110D02*
X102434113Y-103924110D01*
X99608113Y-102844110D02*
X100962113Y-102844110D01*
X101325113Y-104444110D02*
X102699113Y-104444110D01*
X102905113Y-105365110D02*
G75*
G03*
X102905113Y-105365110I-2620000J0D01*
G01*
X91560000Y-66110000D02*
X91560000Y-55830000D01*
X87910000Y-55830000D02*
X86260000Y-55830000D01*
X86260000Y-55830000D02*
X86260000Y-66110000D01*
X86260000Y-66110000D02*
X91560000Y-66110000D01*
X91560000Y-55830000D02*
X89910000Y-55830000D01*
X87910000Y-55830000D02*
G75*
G03*
X89910000Y-55830000I1000000J0D01*
G01*
X150395000Y-103769936D02*
X150395000Y-104224064D01*
X151865000Y-103769936D02*
X151865000Y-104224064D01*
X82015000Y-122147064D02*
X82015000Y-121692936D01*
X80545000Y-122147064D02*
X80545000Y-121692936D01*
X86260000Y-105903332D02*
X91560000Y-105903332D01*
X86260000Y-95623332D02*
X86260000Y-105903332D01*
X87910000Y-95623332D02*
X86260000Y-95623332D01*
X91560000Y-95623332D02*
X89910000Y-95623332D01*
X91560000Y-105903332D02*
X91560000Y-95623332D01*
X87910000Y-95623332D02*
G75*
G03*
X89910000Y-95623332I1000000J0D01*
G01*
X80545000Y-82353730D02*
X80545000Y-81899602D01*
X82015000Y-82353730D02*
X82015000Y-81899602D01*
X111532936Y-53240000D02*
X111987064Y-53240000D01*
X111532936Y-54710000D02*
X111987064Y-54710000D01*
X142501252Y-60225000D02*
X141978748Y-60225000D01*
X142501252Y-61695000D02*
X141978748Y-61695000D01*
X118645000Y-120877064D02*
X118645000Y-120422936D01*
X120115000Y-120877064D02*
X120115000Y-120422936D01*
X135575000Y-82090000D02*
X135575000Y-88090000D01*
X124775000Y-82090000D02*
X135575000Y-82090000D01*
X124775000Y-88090000D02*
X124775000Y-82090000D01*
X135575000Y-88090000D02*
X124775000Y-88090000D01*
X143960000Y-97559888D02*
X142444000Y-97559888D01*
X147491000Y-97879888D02*
X146040000Y-97879888D01*
X147578000Y-97319888D02*
X142422000Y-97319888D01*
X143960000Y-98960888D02*
X143099000Y-98960888D01*
X146971000Y-98880888D02*
X146040000Y-98880888D01*
X146653000Y-99200888D02*
X146040000Y-99200888D01*
X143960000Y-97719888D02*
X142472000Y-97719888D01*
X143960000Y-98280888D02*
X142652000Y-98280888D01*
X143960000Y-99200888D02*
X143347000Y-99200888D01*
X143960000Y-98440888D02*
X142732000Y-98440888D01*
X143960000Y-99440888D02*
X143681000Y-99440888D01*
X147398000Y-98160888D02*
X146040000Y-98160888D01*
X147310000Y-98360888D02*
X146040000Y-98360888D01*
X143960000Y-98360888D02*
X142690000Y-98360888D01*
X146178000Y-99520888D02*
X143822000Y-99520888D01*
X146901000Y-98960888D02*
X146040000Y-98960888D01*
X146826000Y-99040888D02*
X146040000Y-99040888D01*
X143960000Y-99400888D02*
X143617000Y-99400888D01*
X143960000Y-99280888D02*
X143446000Y-99280888D01*
X143960000Y-98000888D02*
X142545000Y-98000888D01*
X147573000Y-97399888D02*
X142427000Y-97399888D01*
X143960000Y-97639888D02*
X142457000Y-97639888D01*
X143960000Y-98720888D02*
X142905000Y-98720888D01*
X147065000Y-98760888D02*
X146040000Y-98760888D01*
X143960000Y-98840888D02*
X142996000Y-98840888D01*
X147556000Y-97559888D02*
X146040000Y-97559888D01*
X146383000Y-99400888D02*
X146040000Y-99400888D01*
X147579000Y-97279888D02*
X142421000Y-97279888D01*
X147428000Y-98080888D02*
X146040000Y-98080888D01*
X143960000Y-99320888D02*
X143500000Y-99320888D01*
X143960000Y-99160888D02*
X143301000Y-99160888D01*
X143960000Y-98920888D02*
X143063000Y-98920888D01*
X143960000Y-98640888D02*
X142851000Y-98640888D01*
X147565000Y-97479888D02*
X146040000Y-97479888D01*
X146699000Y-99160888D02*
X146040000Y-99160888D01*
X147035000Y-98800888D02*
X146040000Y-98800888D01*
X143960000Y-97799888D02*
X142489000Y-97799888D01*
X143960000Y-98480888D02*
X142753000Y-98480888D01*
X146554000Y-99280888D02*
X146040000Y-99280888D01*
X147365000Y-98240888D02*
X146040000Y-98240888D01*
X143960000Y-97879888D02*
X142509000Y-97879888D01*
X147455000Y-98000888D02*
X146040000Y-98000888D01*
X143960000Y-99360888D02*
X143557000Y-99360888D01*
X147511000Y-97799888D02*
X146040000Y-97799888D01*
X143960000Y-97679888D02*
X142464000Y-97679888D01*
X147528000Y-97719888D02*
X146040000Y-97719888D01*
X147543000Y-97639888D02*
X146040000Y-97639888D01*
X147414000Y-98120888D02*
X146040000Y-98120888D01*
X147501000Y-97839888D02*
X146040000Y-97839888D01*
X143960000Y-98560888D02*
X142800000Y-98560888D01*
X143960000Y-98680888D02*
X142878000Y-98680888D01*
X143960000Y-99000888D02*
X143136000Y-99000888D01*
X147290000Y-98400888D02*
X146040000Y-98400888D01*
X143960000Y-97839888D02*
X142499000Y-97839888D01*
X147095000Y-98720888D02*
X146040000Y-98720888D01*
X146098000Y-99560888D02*
X143902000Y-99560888D01*
X147580000Y-97239888D02*
X142420000Y-97239888D01*
X147175000Y-98600888D02*
X146040000Y-98600888D01*
X143960000Y-98800888D02*
X142965000Y-98800888D01*
X146605000Y-99240888D02*
X146040000Y-99240888D01*
X147268000Y-98440888D02*
X146040000Y-98440888D01*
X143960000Y-97519888D02*
X142439000Y-97519888D01*
X143960000Y-97439888D02*
X142431000Y-97439888D01*
X143960000Y-98200888D02*
X142618000Y-98200888D01*
X146475000Y-94395113D02*
X146475000Y-94895113D01*
X147550000Y-97599888D02*
X146040000Y-97599888D01*
X146864000Y-99000888D02*
X146040000Y-99000888D01*
X143960000Y-98760888D02*
X142935000Y-98760888D01*
X145805000Y-99680888D02*
X144195000Y-99680888D01*
X147561000Y-97519888D02*
X146040000Y-97519888D01*
X143960000Y-98520888D02*
X142776000Y-98520888D01*
X143960000Y-98160888D02*
X142602000Y-98160888D01*
X146443000Y-99360888D02*
X146040000Y-99360888D01*
X143960000Y-97479888D02*
X142435000Y-97479888D01*
X143960000Y-99240888D02*
X143395000Y-99240888D01*
X143960000Y-98880888D02*
X143029000Y-98880888D01*
X143960000Y-99120888D02*
X143257000Y-99120888D01*
X143960000Y-97920888D02*
X142520000Y-97920888D01*
X143960000Y-98120888D02*
X142586000Y-98120888D01*
X146743000Y-99120888D02*
X146040000Y-99120888D01*
X143960000Y-99480888D02*
X143749000Y-99480888D01*
X143960000Y-97759888D02*
X142480000Y-97759888D01*
X147468000Y-97960888D02*
X146040000Y-97960888D01*
X143960000Y-98320888D02*
X142671000Y-98320888D01*
X147247000Y-98480888D02*
X146040000Y-98480888D01*
X146319000Y-99440888D02*
X146040000Y-99440888D01*
X147329000Y-98320888D02*
X146040000Y-98320888D01*
X145677000Y-99720888D02*
X144323000Y-99720888D01*
X146500000Y-99320888D02*
X146040000Y-99320888D01*
X147122000Y-98680888D02*
X146040000Y-98680888D01*
X146011000Y-99600888D02*
X143989000Y-99600888D01*
X145284000Y-99800888D02*
X144716000Y-99800888D01*
X143960000Y-98400888D02*
X142710000Y-98400888D01*
X146725000Y-94645113D02*
X146225000Y-94645113D01*
X143960000Y-98080888D02*
X142572000Y-98080888D01*
X147576000Y-97359888D02*
X142424000Y-97359888D01*
X143960000Y-97960888D02*
X142532000Y-97960888D01*
X146785000Y-99080888D02*
X146040000Y-99080888D01*
X146251000Y-99480888D02*
X146040000Y-99480888D01*
X147200000Y-98560888D02*
X146040000Y-98560888D01*
X143960000Y-98040888D02*
X142558000Y-98040888D01*
X143960000Y-98240888D02*
X142635000Y-98240888D01*
X147442000Y-98040888D02*
X146040000Y-98040888D01*
X147224000Y-98520888D02*
X146040000Y-98520888D01*
X145518000Y-99760888D02*
X144482000Y-99760888D01*
X143960000Y-98600888D02*
X142825000Y-98600888D01*
X145915000Y-99640888D02*
X144085000Y-99640888D01*
X146937000Y-98920888D02*
X146040000Y-98920888D01*
X147382000Y-98200888D02*
X146040000Y-98200888D01*
X147480000Y-97920888D02*
X146040000Y-97920888D01*
X143960000Y-99080888D02*
X143215000Y-99080888D01*
X147569000Y-97439888D02*
X146040000Y-97439888D01*
X143960000Y-99040888D02*
X143174000Y-99040888D01*
X147520000Y-97759888D02*
X146040000Y-97759888D01*
X147348000Y-98280888D02*
X146040000Y-98280888D01*
X147580000Y-97199888D02*
X142420000Y-97199888D01*
X147004000Y-98840888D02*
X146040000Y-98840888D01*
X147149000Y-98640888D02*
X146040000Y-98640888D01*
X143960000Y-97599888D02*
X142450000Y-97599888D01*
X147536000Y-97679888D02*
X146040000Y-97679888D01*
X147620000Y-97199888D02*
G75*
G03*
X147620000Y-97199888I-2620000J0D01*
G01*
X109120000Y-105903332D02*
X114420000Y-105903332D01*
X109120000Y-95623332D02*
X109120000Y-105903332D01*
X114420000Y-95623332D02*
X112770000Y-95623332D01*
X114420000Y-105903332D02*
X114420000Y-95623332D01*
X110770000Y-95623332D02*
X109120000Y-95623332D01*
X110770000Y-95623332D02*
G75*
G03*
X112770000Y-95623332I1000000J0D01*
G01*
X111532936Y-114400000D02*
X111987064Y-114400000D01*
X111532936Y-112930000D02*
X111987064Y-112930000D01*
X151865000Y-66902064D02*
X151865000Y-66447936D01*
X150395000Y-66902064D02*
X150395000Y-66447936D01*
X111532936Y-93033332D02*
X111987064Y-93033332D01*
X111532936Y-94503332D02*
X111987064Y-94503332D01*
X159995000Y-76870000D02*
X159995000Y-79960000D01*
X159995000Y-79959830D02*
G75*
G03*
X165545000Y-78414538I2560000J1544830D01*
G01*
X165545000Y-78415462D02*
G75*
G03*
X159995000Y-76870170I-2990000J462D01*
G01*
X165355000Y-78415000D02*
G75*
G03*
X165355000Y-78415000I-2800000J0D01*
G01*
X162232936Y-59590000D02*
X162687064Y-59590000D01*
X162232936Y-61060000D02*
X162687064Y-61060000D01*
X142570000Y-76305000D02*
X142570000Y-79905000D01*
X142581522Y-79943478D02*
G75*
G03*
X147020000Y-78105000I1838478J1838478D01*
G01*
X147020001Y-78105000D02*
G75*
G03*
X142581522Y-76266522I-2600001J0D01*
G01*
X162232936Y-72701666D02*
X162687064Y-72701666D01*
X162232936Y-71231666D02*
X162687064Y-71231666D01*
X130175000Y-77495400D02*
X130175000Y-76225400D01*
X129540000Y-76860400D02*
X130810000Y-76860400D01*
X135153400Y-71120000D02*
G75*
G03*
X135153400Y-71120000I-4978400J0D01*
G01*
X101325113Y-63564112D02*
X102595113Y-63564112D01*
X97729113Y-64365112D02*
X99245113Y-64365112D01*
X97817113Y-63964112D02*
X99245113Y-63964112D01*
X98017113Y-63484112D02*
X99245113Y-63484112D01*
X97742113Y-64285112D02*
X99245113Y-64285112D01*
X101325113Y-63444112D02*
X102532113Y-63444112D01*
X97784113Y-64085112D02*
X99245113Y-64085112D01*
X97765113Y-64165112D02*
X99245113Y-64165112D01*
X101325113Y-64125112D02*
X102796113Y-64125112D01*
X101325113Y-63804112D02*
X102699113Y-63804112D01*
X101325113Y-63484112D02*
X102553113Y-63484112D01*
X101325113Y-63724112D02*
X102667113Y-63724112D01*
X97706113Y-64645112D02*
X102864113Y-64645112D01*
X101325113Y-64245112D02*
X102821113Y-64245112D01*
X97757113Y-64205112D02*
X99245113Y-64205112D01*
X101325113Y-63284112D02*
X102434113Y-63284112D01*
X101325113Y-62684112D02*
X101890113Y-62684112D01*
X97830113Y-63924112D02*
X99245113Y-63924112D01*
X101325113Y-64004112D02*
X102765113Y-64004112D01*
X98085113Y-63364112D02*
X99245113Y-63364112D01*
X97871113Y-63804112D02*
X99245113Y-63804112D01*
X97794113Y-64045112D02*
X99245113Y-64045112D01*
X97712113Y-64525112D02*
X102858113Y-64525112D01*
X98061113Y-63404112D02*
X99245113Y-63404112D01*
X97975113Y-63564112D02*
X99245113Y-63564112D01*
X101325113Y-62564112D02*
X101728113Y-62564112D01*
X97805113Y-64004112D02*
X99245113Y-64004112D01*
X98560113Y-67279887D02*
X99060113Y-67279887D01*
X98459113Y-62884112D02*
X99245113Y-62884112D01*
X101325113Y-62524112D02*
X101668113Y-62524112D01*
X101325113Y-63844112D02*
X102713113Y-63844112D01*
X98190113Y-63204112D02*
X99245113Y-63204112D01*
X98110113Y-63324112D02*
X99245113Y-63324112D01*
X97995113Y-63524112D02*
X99245113Y-63524112D01*
X98810113Y-67529887D02*
X98810113Y-67029887D01*
X98542113Y-62804112D02*
X99245113Y-62804112D01*
X97937113Y-63644112D02*
X99245113Y-63644112D01*
X98966113Y-62484112D02*
X99245113Y-62484112D01*
X101325113Y-63764112D02*
X102683113Y-63764112D01*
X101325113Y-63164112D02*
X102350113Y-63164112D01*
X101325113Y-63924112D02*
X102740113Y-63924112D01*
X100001113Y-62124112D02*
X100569113Y-62124112D01*
X99274113Y-62324112D02*
X101296113Y-62324112D01*
X101325113Y-62484112D02*
X101604113Y-62484112D01*
X98632113Y-62724112D02*
X99245113Y-62724112D01*
X99107113Y-62404112D02*
X101463113Y-62404112D01*
X101325113Y-62444112D02*
X101536113Y-62444112D01*
X101325113Y-63644112D02*
X102633113Y-63644112D01*
X98250113Y-63124112D02*
X99245113Y-63124112D01*
X99034113Y-62444112D02*
X99245113Y-62444112D01*
X101325113Y-63324112D02*
X102460113Y-63324112D01*
X97724113Y-64405112D02*
X99245113Y-64405112D01*
X97887113Y-63764112D02*
X99245113Y-63764112D01*
X101325113Y-62964112D02*
X102186113Y-62964112D01*
X101325113Y-63124112D02*
X102320113Y-63124112D01*
X98038113Y-63444112D02*
X99245113Y-63444112D01*
X97735113Y-64325112D02*
X99245113Y-64325112D01*
X101325113Y-64205112D02*
X102813113Y-64205112D01*
X97720113Y-64445112D02*
X99245113Y-64445112D01*
X101325113Y-64445112D02*
X102850113Y-64445112D01*
X101325113Y-63964112D02*
X102753113Y-63964112D01*
X99608113Y-62204112D02*
X100962113Y-62204112D01*
X101325113Y-62804112D02*
X102028113Y-62804112D01*
X101325113Y-63004112D02*
X102222113Y-63004112D01*
X101325113Y-63204112D02*
X102380113Y-63204112D01*
X101325113Y-62884112D02*
X102111113Y-62884112D01*
X99480113Y-62244112D02*
X101090113Y-62244112D01*
X97956113Y-63604112D02*
X99245113Y-63604112D01*
X99370113Y-62284112D02*
X101200113Y-62284112D01*
X101325113Y-64045112D02*
X102776113Y-64045112D01*
X101325113Y-63884112D02*
X102727113Y-63884112D01*
X101325113Y-64325112D02*
X102835113Y-64325112D01*
X101325113Y-63404112D02*
X102509113Y-63404112D01*
X97705113Y-64685112D02*
X102865113Y-64685112D01*
X97707113Y-64605112D02*
X102863113Y-64605112D01*
X97716113Y-64485112D02*
X99245113Y-64485112D01*
X101325113Y-64085112D02*
X102786113Y-64085112D01*
X101325113Y-62924112D02*
X102149113Y-62924112D01*
X98586113Y-62764112D02*
X99245113Y-62764112D01*
X101325113Y-64485112D02*
X102854113Y-64485112D01*
X98500113Y-62844112D02*
X99245113Y-62844112D01*
X97774113Y-64125112D02*
X99245113Y-64125112D01*
X97705113Y-64725112D02*
X102865113Y-64725112D01*
X97709113Y-64565112D02*
X102861113Y-64565112D01*
X101325113Y-64285112D02*
X102828113Y-64285112D01*
X97749113Y-64245112D02*
X99245113Y-64245112D01*
X101325113Y-63244112D02*
X102407113Y-63244112D01*
X101325113Y-64365112D02*
X102841113Y-64365112D01*
X97843113Y-63884112D02*
X99245113Y-63884112D01*
X98421113Y-62924112D02*
X99245113Y-62924112D01*
X101325113Y-64165112D02*
X102805113Y-64165112D01*
X101325113Y-63044112D02*
X102256113Y-63044112D01*
X98785113Y-62604112D02*
X99245113Y-62604112D01*
X101325113Y-63524112D02*
X102575113Y-63524112D01*
X98314113Y-63044112D02*
X99245113Y-63044112D01*
X98680113Y-62684112D02*
X99245113Y-62684112D01*
X99187113Y-62364112D02*
X101383113Y-62364112D01*
X98384113Y-62964112D02*
X99245113Y-62964112D01*
X101325113Y-63604112D02*
X102614113Y-63604112D01*
X101325113Y-63364112D02*
X102485113Y-63364112D01*
X101325113Y-62604112D02*
X101785113Y-62604112D01*
X98163113Y-63244112D02*
X99245113Y-63244112D01*
X101325113Y-62724112D02*
X101938113Y-62724112D01*
X101325113Y-62844112D02*
X102070113Y-62844112D01*
X101325113Y-62764112D02*
X101984113Y-62764112D01*
X98842113Y-62564112D02*
X99245113Y-62564112D01*
X97903113Y-63724112D02*
X99245113Y-63724112D01*
X97857113Y-63844112D02*
X99245113Y-63844112D01*
X99767113Y-62164112D02*
X100803113Y-62164112D01*
X98220113Y-63164112D02*
X99245113Y-63164112D01*
X101325113Y-63684112D02*
X102650113Y-63684112D01*
X101325113Y-62644112D02*
X101839113Y-62644112D01*
X98731113Y-62644112D02*
X99245113Y-62644112D01*
X97920113Y-63684112D02*
X99245113Y-63684112D01*
X98281113Y-63084112D02*
X99245113Y-63084112D01*
X98136113Y-63284112D02*
X99245113Y-63284112D01*
X101325113Y-63084112D02*
X102289113Y-63084112D01*
X101325113Y-64405112D02*
X102846113Y-64405112D01*
X98902113Y-62524112D02*
X99245113Y-62524112D01*
X98348113Y-63004112D02*
X99245113Y-63004112D01*
X102905113Y-64725112D02*
G75*
G03*
X102905113Y-64725112I-2620000J0D01*
G01*
X98084113Y-116952997D02*
X98084113Y-116609997D01*
X98684113Y-117604997D02*
X98684113Y-116609997D01*
X98764113Y-114529997D02*
X98764113Y-113474997D01*
X99404113Y-117997997D02*
X99404113Y-116609997D01*
X98444113Y-114529997D02*
X98444113Y-113743997D01*
X98164113Y-114529997D02*
X98164113Y-114069997D01*
X98124113Y-117012997D02*
X98124113Y-116609997D01*
X97924113Y-116667997D02*
X97924113Y-114471997D01*
X98844113Y-117718997D02*
X98844113Y-116609997D01*
X100205113Y-118148997D02*
X100205113Y-112990997D01*
X98204113Y-117123997D02*
X98204113Y-116609997D01*
X99685113Y-118080997D02*
X99685113Y-116609997D01*
X98804113Y-114529997D02*
X98804113Y-113447997D01*
X98084113Y-114529997D02*
X98084113Y-114186997D01*
X98924113Y-117769997D02*
X98924113Y-116609997D01*
X100085113Y-118142997D02*
X100085113Y-112996997D01*
X98204113Y-114529997D02*
X98204113Y-114015997D01*
X97964113Y-116747997D02*
X97964113Y-114391997D01*
X99124113Y-117879997D02*
X99124113Y-116609997D01*
X100165113Y-118147997D02*
X100165113Y-112991997D01*
X99725113Y-114529997D02*
X99725113Y-113049997D01*
X99845113Y-114529997D02*
X99845113Y-113026997D01*
X98844113Y-114529997D02*
X98844113Y-113420997D01*
X98324113Y-114529997D02*
X98324113Y-113870997D01*
X99805113Y-118105997D02*
X99805113Y-116609997D01*
X98164113Y-117069997D02*
X98164113Y-116609997D01*
X99284113Y-114529997D02*
X99284113Y-113187997D01*
X98044113Y-114529997D02*
X98044113Y-114250997D01*
X99805113Y-114529997D02*
X99805113Y-113033997D01*
X98044113Y-116888997D02*
X98044113Y-116609997D01*
X99004113Y-114529997D02*
X99004113Y-113322997D01*
X99364113Y-117983997D02*
X99364113Y-116609997D01*
X100005113Y-114529997D02*
X100005113Y-113004997D01*
X102839888Y-117294997D02*
X102839888Y-116794997D01*
X98684113Y-114529997D02*
X98684113Y-113534997D01*
X98564113Y-117506997D02*
X98564113Y-116609997D01*
X100005113Y-118134997D02*
X100005113Y-116609997D01*
X99564113Y-118049997D02*
X99564113Y-116609997D01*
X98964113Y-114529997D02*
X98964113Y-113345997D01*
X98924113Y-114529997D02*
X98924113Y-113369997D01*
X99484113Y-118024997D02*
X99484113Y-116609997D01*
X100045113Y-118138997D02*
X100045113Y-116609997D01*
X98004113Y-116820997D02*
X98004113Y-116609997D01*
X99004113Y-117816997D02*
X99004113Y-116609997D01*
X98724113Y-117634997D02*
X98724113Y-116609997D01*
X98644113Y-117573997D02*
X98644113Y-116609997D01*
X98564113Y-114529997D02*
X98564113Y-113632997D01*
X99605113Y-118060997D02*
X99605113Y-116609997D01*
X98004113Y-114529997D02*
X98004113Y-114318997D01*
X98884113Y-117744997D02*
X98884113Y-116609997D01*
X99645113Y-118070997D02*
X99645113Y-116609997D01*
X98244113Y-114529997D02*
X98244113Y-113964997D01*
X99564113Y-114529997D02*
X99564113Y-113089997D01*
X99404113Y-114529997D02*
X99404113Y-113141997D01*
X100245113Y-118149997D02*
X100245113Y-112989997D01*
X99885113Y-114529997D02*
X99885113Y-113019997D01*
X99444113Y-114529997D02*
X99444113Y-113127997D01*
X100125113Y-118145997D02*
X100125113Y-112993997D01*
X99244113Y-117934997D02*
X99244113Y-116609997D01*
X98364113Y-114529997D02*
X98364113Y-113826997D01*
X99084113Y-114529997D02*
X99084113Y-113279997D01*
X99044113Y-117837997D02*
X99044113Y-116609997D01*
X98964113Y-117793997D02*
X98964113Y-116609997D01*
X98804113Y-117691997D02*
X98804113Y-116609997D01*
X97684113Y-115853997D02*
X97684113Y-115285997D01*
X98124113Y-114529997D02*
X98124113Y-114126997D01*
X103089888Y-117044997D02*
X102589888Y-117044997D01*
X99284113Y-117951997D02*
X99284113Y-116609997D01*
X99685113Y-114529997D02*
X99685113Y-113058997D01*
X98244113Y-117174997D02*
X98244113Y-116609997D01*
X98484113Y-114529997D02*
X98484113Y-113705997D01*
X100045113Y-114529997D02*
X100045113Y-113000997D01*
X99965113Y-118130997D02*
X99965113Y-116609997D01*
X99725113Y-118089997D02*
X99725113Y-116609997D01*
X97804113Y-116374997D02*
X97804113Y-114764997D01*
X99244113Y-114529997D02*
X99244113Y-113204997D01*
X98724113Y-114529997D02*
X98724113Y-113504997D01*
X99124113Y-114529997D02*
X99124113Y-113259997D01*
X98604113Y-114529997D02*
X98604113Y-113598997D01*
X98524113Y-117470997D02*
X98524113Y-116609997D01*
X98884113Y-114529997D02*
X98884113Y-113394997D01*
X99925113Y-114529997D02*
X99925113Y-113013997D01*
X98284113Y-117222997D02*
X98284113Y-116609997D01*
X99845113Y-118112997D02*
X99845113Y-116609997D01*
X98644113Y-114529997D02*
X98644113Y-113565997D01*
X99324113Y-117967997D02*
X99324113Y-116609997D01*
X98764113Y-117664997D02*
X98764113Y-116609997D01*
X99364113Y-114529997D02*
X99364113Y-113155997D01*
X99204113Y-117917997D02*
X99204113Y-116609997D01*
X98604113Y-117540997D02*
X98604113Y-116609997D01*
X98524113Y-114529997D02*
X98524113Y-113668997D01*
X97724113Y-116087997D02*
X97724113Y-115051997D01*
X99925113Y-118125997D02*
X99925113Y-116609997D01*
X99324113Y-114529997D02*
X99324113Y-113171997D01*
X99765113Y-118097997D02*
X99765113Y-116609997D01*
X99044113Y-114529997D02*
X99044113Y-113301997D01*
X100285113Y-118149997D02*
X100285113Y-112989997D01*
X98484113Y-117433997D02*
X98484113Y-116609997D01*
X98444113Y-117395997D02*
X98444113Y-116609997D01*
X97884113Y-116580997D02*
X97884113Y-114558997D01*
X98324113Y-117268997D02*
X98324113Y-116609997D01*
X99885113Y-118119997D02*
X99885113Y-116609997D01*
X97764113Y-116246997D02*
X97764113Y-114892997D01*
X99524113Y-114529997D02*
X99524113Y-113101997D01*
X99164113Y-114529997D02*
X99164113Y-113240997D01*
X99204113Y-114529997D02*
X99204113Y-113221997D01*
X98404113Y-114529997D02*
X98404113Y-113784997D01*
X98364113Y-117312997D02*
X98364113Y-116609997D01*
X99164113Y-117898997D02*
X99164113Y-116609997D01*
X98404113Y-117354997D02*
X98404113Y-116609997D01*
X98284113Y-114529997D02*
X98284113Y-113916997D01*
X99524113Y-118037997D02*
X99524113Y-116609997D01*
X99605113Y-114529997D02*
X99605113Y-113078997D01*
X99645113Y-114529997D02*
X99645113Y-113068997D01*
X99084113Y-117859997D02*
X99084113Y-116609997D01*
X99444113Y-118011997D02*
X99444113Y-116609997D01*
X99765113Y-114529997D02*
X99765113Y-113041997D01*
X99965113Y-114529997D02*
X99965113Y-113008997D01*
X99484113Y-114529997D02*
X99484113Y-113114997D01*
X97844113Y-116484997D02*
X97844113Y-114654997D01*
X102905113Y-115569997D02*
G75*
G03*
X102905113Y-115569997I-2620000J0D01*
G01*
X143974113Y-86590000D02*
X143974113Y-85162000D01*
X143414113Y-86590000D02*
X143414113Y-85406000D01*
X143054113Y-86590000D02*
X143054113Y-85659000D01*
X144095113Y-86590000D02*
X144095113Y-85129000D01*
X142334113Y-88641000D02*
X142334113Y-86619000D01*
X143054113Y-89601000D02*
X143054113Y-88670000D01*
X142214113Y-88307000D02*
X142214113Y-86953000D01*
X142814113Y-86590000D02*
X142814113Y-85887000D01*
X142934113Y-86590000D02*
X142934113Y-85766000D01*
X143214113Y-86590000D02*
X143214113Y-85535000D01*
X143014113Y-86590000D02*
X143014113Y-85693000D01*
X144575113Y-90206000D02*
X144575113Y-85054000D01*
X143094113Y-86590000D02*
X143094113Y-85626000D01*
X144175113Y-86590000D02*
X144175113Y-85110000D01*
X147289888Y-89355000D02*
X147289888Y-88855000D01*
X144295113Y-90173000D02*
X144295113Y-88670000D01*
X144215113Y-86590000D02*
X144215113Y-85102000D01*
X144135113Y-90141000D02*
X144135113Y-88670000D01*
X144175113Y-90150000D02*
X144175113Y-88670000D01*
X144455113Y-90195000D02*
X144455113Y-88670000D01*
X142974113Y-89531000D02*
X142974113Y-88670000D01*
X142454113Y-86590000D02*
X142454113Y-86379000D01*
X143614113Y-89959000D02*
X143614113Y-88670000D01*
X142494113Y-86590000D02*
X142494113Y-86311000D01*
X142614113Y-86590000D02*
X142614113Y-86130000D01*
X142734113Y-89283000D02*
X142734113Y-88670000D01*
X147539888Y-89105000D02*
X147039888Y-89105000D01*
X143574113Y-86590000D02*
X143574113Y-85320000D01*
X143534113Y-89920000D02*
X143534113Y-88670000D01*
X143814113Y-86590000D02*
X143814113Y-85216000D01*
X144415113Y-90191000D02*
X144415113Y-88670000D01*
X143734113Y-90012000D02*
X143734113Y-88670000D01*
X144535113Y-90203000D02*
X144535113Y-85057000D01*
X143654113Y-86590000D02*
X143654113Y-85282000D01*
X143334113Y-89805000D02*
X143334113Y-88670000D01*
X142494113Y-88949000D02*
X142494113Y-88670000D01*
X143654113Y-89978000D02*
X143654113Y-88670000D01*
X143134113Y-89665000D02*
X143134113Y-88670000D01*
X143974113Y-90098000D02*
X143974113Y-88670000D01*
X144255113Y-86590000D02*
X144255113Y-85094000D01*
X144055113Y-90121000D02*
X144055113Y-88670000D01*
X143254113Y-89752000D02*
X143254113Y-88670000D01*
X142174113Y-88148000D02*
X142174113Y-87112000D01*
X142774113Y-86590000D02*
X142774113Y-85931000D01*
X142734113Y-86590000D02*
X142734113Y-85977000D01*
X143894113Y-86590000D02*
X143894113Y-85188000D01*
X144335113Y-90180000D02*
X144335113Y-88670000D01*
X144655113Y-90209000D02*
X144655113Y-85051000D01*
X144495113Y-86590000D02*
X144495113Y-85061000D01*
X144375113Y-86590000D02*
X144375113Y-85074000D01*
X142534113Y-86590000D02*
X142534113Y-86247000D01*
X144055113Y-86590000D02*
X144055113Y-85139000D01*
X143894113Y-90072000D02*
X143894113Y-88670000D01*
X143494113Y-86590000D02*
X143494113Y-85362000D01*
X142574113Y-89073000D02*
X142574113Y-88670000D01*
X143454113Y-89877000D02*
X143454113Y-88670000D01*
X142894113Y-89456000D02*
X142894113Y-88670000D01*
X143694113Y-86590000D02*
X143694113Y-85265000D01*
X142254113Y-88435000D02*
X142254113Y-86825000D01*
X143494113Y-89898000D02*
X143494113Y-88670000D01*
X143854113Y-86590000D02*
X143854113Y-85202000D01*
X142694113Y-89235000D02*
X142694113Y-88670000D01*
X142814113Y-89373000D02*
X142814113Y-88670000D01*
X142854113Y-86590000D02*
X142854113Y-85845000D01*
X142694113Y-86590000D02*
X142694113Y-86025000D01*
X144455113Y-86590000D02*
X144455113Y-85065000D01*
X143574113Y-89940000D02*
X143574113Y-88670000D01*
X143134113Y-86590000D02*
X143134113Y-85595000D01*
X144014113Y-86590000D02*
X144014113Y-85150000D01*
X144215113Y-90158000D02*
X144215113Y-88670000D01*
X144255113Y-90166000D02*
X144255113Y-88670000D01*
X143454113Y-86590000D02*
X143454113Y-85383000D01*
X144615113Y-90208000D02*
X144615113Y-85052000D01*
X143294113Y-86590000D02*
X143294113Y-85481000D01*
X143414113Y-89854000D02*
X143414113Y-88670000D01*
X143294113Y-89779000D02*
X143294113Y-88670000D01*
X143534113Y-86590000D02*
X143534113Y-85340000D01*
X143014113Y-89567000D02*
X143014113Y-88670000D01*
X142774113Y-89329000D02*
X142774113Y-88670000D01*
X144495113Y-90199000D02*
X144495113Y-88670000D01*
X144735113Y-90210000D02*
X144735113Y-85050000D01*
X144135113Y-86590000D02*
X144135113Y-85119000D01*
X142534113Y-89013000D02*
X142534113Y-88670000D01*
X143174113Y-89695000D02*
X143174113Y-88670000D01*
X142374113Y-88728000D02*
X142374113Y-86532000D01*
X142134113Y-87914000D02*
X142134113Y-87346000D01*
X142614113Y-89130000D02*
X142614113Y-88670000D01*
X142654113Y-86590000D02*
X142654113Y-86076000D01*
X142974113Y-86590000D02*
X142974113Y-85729000D01*
X143254113Y-86590000D02*
X143254113Y-85508000D01*
X143374113Y-86590000D02*
X143374113Y-85430000D01*
X144375113Y-90186000D02*
X144375113Y-88670000D01*
X143734113Y-86590000D02*
X143734113Y-85248000D01*
X143614113Y-86590000D02*
X143614113Y-85301000D01*
X144335113Y-86590000D02*
X144335113Y-85080000D01*
X144695113Y-90210000D02*
X144695113Y-85050000D01*
X143934113Y-86590000D02*
X143934113Y-85175000D01*
X143094113Y-89634000D02*
X143094113Y-88670000D01*
X144415113Y-86590000D02*
X144415113Y-85069000D01*
X143774113Y-86590000D02*
X143774113Y-85232000D01*
X143854113Y-90058000D02*
X143854113Y-88670000D01*
X142854113Y-89415000D02*
X142854113Y-88670000D01*
X144014113Y-90110000D02*
X144014113Y-88670000D01*
X142654113Y-89184000D02*
X142654113Y-88670000D01*
X142894113Y-86590000D02*
X142894113Y-85804000D01*
X143814113Y-90044000D02*
X143814113Y-88670000D01*
X142934113Y-89494000D02*
X142934113Y-88670000D01*
X144295113Y-86590000D02*
X144295113Y-85087000D01*
X142294113Y-88545000D02*
X142294113Y-86715000D01*
X142414113Y-88808000D02*
X142414113Y-86452000D01*
X143174113Y-86590000D02*
X143174113Y-85565000D01*
X143774113Y-90028000D02*
X143774113Y-88670000D01*
X143374113Y-89830000D02*
X143374113Y-88670000D01*
X143334113Y-86590000D02*
X143334113Y-85455000D01*
X142574113Y-86590000D02*
X142574113Y-86187000D01*
X142454113Y-88881000D02*
X142454113Y-88670000D01*
X143934113Y-90085000D02*
X143934113Y-88670000D01*
X143694113Y-89995000D02*
X143694113Y-88670000D01*
X143214113Y-89725000D02*
X143214113Y-88670000D01*
X144095113Y-90131000D02*
X144095113Y-88670000D01*
X147355113Y-87630000D02*
G75*
G03*
X147355113Y-87630000I-2620000J0D01*
G01*
X104240000Y-120877064D02*
X104240000Y-120422936D01*
X102770000Y-120877064D02*
X102770000Y-120422936D01*
X102770000Y-100557064D02*
X102770000Y-100102936D01*
X104240000Y-100557064D02*
X104240000Y-100102936D01*
X120115000Y-61187064D02*
X120115000Y-60732936D01*
X118645000Y-61187064D02*
X118645000Y-60732936D01*
X91560000Y-125800000D02*
X91560000Y-115520000D01*
X86260000Y-115520000D02*
X86260000Y-125800000D01*
X86260000Y-125800000D02*
X91560000Y-125800000D01*
X87910000Y-115520000D02*
X86260000Y-115520000D01*
X91560000Y-115520000D02*
X89910000Y-115520000D01*
X87910000Y-115520000D02*
G75*
G03*
X89910000Y-115520000I1000000J0D01*
G01*
X137650000Y-77332064D02*
X137650000Y-76877936D01*
X139120000Y-77332064D02*
X139120000Y-76877936D01*
X147501000Y-118159888D02*
X146040000Y-118159888D01*
X143960000Y-118520888D02*
X142618000Y-118520888D01*
X147536000Y-117999888D02*
X146040000Y-117999888D01*
X147149000Y-118960888D02*
X146040000Y-118960888D01*
X143960000Y-118159888D02*
X142499000Y-118159888D01*
X143960000Y-119080888D02*
X142935000Y-119080888D01*
X146475000Y-114715113D02*
X146475000Y-115215113D01*
X147268000Y-118760888D02*
X146040000Y-118760888D01*
X147511000Y-118119888D02*
X146040000Y-118119888D01*
X143960000Y-119160888D02*
X142996000Y-119160888D01*
X147095000Y-119040888D02*
X146040000Y-119040888D01*
X147580000Y-117559888D02*
X142420000Y-117559888D01*
X143960000Y-119360888D02*
X143174000Y-119360888D01*
X143960000Y-118280888D02*
X142532000Y-118280888D01*
X143960000Y-119000888D02*
X142878000Y-119000888D01*
X147556000Y-117879888D02*
X146040000Y-117879888D01*
X143960000Y-119040888D02*
X142905000Y-119040888D01*
X147382000Y-118520888D02*
X146040000Y-118520888D01*
X143960000Y-118680888D02*
X142690000Y-118680888D01*
X143960000Y-117839888D02*
X142439000Y-117839888D01*
X143960000Y-119680888D02*
X143557000Y-119680888D01*
X147573000Y-117719888D02*
X142427000Y-117719888D01*
X143960000Y-119480888D02*
X143301000Y-119480888D01*
X143960000Y-119520888D02*
X143347000Y-119520888D01*
X146725000Y-114965113D02*
X146225000Y-114965113D01*
X143960000Y-118079888D02*
X142480000Y-118079888D01*
X147065000Y-119080888D02*
X146040000Y-119080888D01*
X143960000Y-118240888D02*
X142520000Y-118240888D01*
X146653000Y-119520888D02*
X146040000Y-119520888D01*
X143960000Y-119600888D02*
X143446000Y-119600888D01*
X147348000Y-118600888D02*
X146040000Y-118600888D01*
X145805000Y-120000888D02*
X144195000Y-120000888D01*
X147528000Y-118039888D02*
X146040000Y-118039888D01*
X143960000Y-119400888D02*
X143215000Y-119400888D01*
X146098000Y-119880888D02*
X143902000Y-119880888D01*
X147520000Y-118079888D02*
X146040000Y-118079888D01*
X147224000Y-118840888D02*
X146040000Y-118840888D01*
X143960000Y-118640888D02*
X142671000Y-118640888D01*
X147550000Y-117919888D02*
X146040000Y-117919888D01*
X143960000Y-119320888D02*
X143136000Y-119320888D01*
X147035000Y-119120888D02*
X146040000Y-119120888D01*
X147247000Y-118800888D02*
X146040000Y-118800888D01*
X146554000Y-119600888D02*
X146040000Y-119600888D01*
X147290000Y-118720888D02*
X146040000Y-118720888D01*
X147468000Y-118280888D02*
X146040000Y-118280888D01*
X147200000Y-118880888D02*
X146040000Y-118880888D01*
X146319000Y-119760888D02*
X146040000Y-119760888D01*
X145518000Y-120080888D02*
X144482000Y-120080888D01*
X146785000Y-119400888D02*
X146040000Y-119400888D01*
X143960000Y-119240888D02*
X143063000Y-119240888D01*
X146251000Y-119800888D02*
X146040000Y-119800888D01*
X143960000Y-118119888D02*
X142489000Y-118119888D01*
X143960000Y-117759888D02*
X142431000Y-117759888D01*
X147480000Y-118240888D02*
X146040000Y-118240888D01*
X147576000Y-117679888D02*
X142424000Y-117679888D01*
X143960000Y-118960888D02*
X142851000Y-118960888D01*
X143960000Y-119560888D02*
X143395000Y-119560888D01*
X143960000Y-119720888D02*
X143617000Y-119720888D01*
X147543000Y-117959888D02*
X146040000Y-117959888D01*
X143960000Y-119200888D02*
X143029000Y-119200888D01*
X146901000Y-119280888D02*
X146040000Y-119280888D01*
X143960000Y-119760888D02*
X143681000Y-119760888D01*
X146443000Y-119680888D02*
X146040000Y-119680888D01*
X143960000Y-117959888D02*
X142457000Y-117959888D01*
X147329000Y-118640888D02*
X146040000Y-118640888D01*
X143960000Y-117999888D02*
X142464000Y-117999888D01*
X143960000Y-119120888D02*
X142965000Y-119120888D01*
X147580000Y-117519888D02*
X142420000Y-117519888D01*
X147455000Y-118320888D02*
X146040000Y-118320888D01*
X147579000Y-117599888D02*
X142421000Y-117599888D01*
X147569000Y-117759888D02*
X146040000Y-117759888D01*
X143960000Y-118039888D02*
X142472000Y-118039888D01*
X143960000Y-117799888D02*
X142435000Y-117799888D01*
X147004000Y-119160888D02*
X146040000Y-119160888D01*
X146605000Y-119560888D02*
X146040000Y-119560888D01*
X147491000Y-118199888D02*
X146040000Y-118199888D01*
X146011000Y-119920888D02*
X143989000Y-119920888D01*
X143960000Y-117919888D02*
X142450000Y-117919888D01*
X143960000Y-119280888D02*
X143099000Y-119280888D01*
X145284000Y-120120888D02*
X144716000Y-120120888D01*
X147428000Y-118400888D02*
X146040000Y-118400888D01*
X146864000Y-119320888D02*
X146040000Y-119320888D01*
X147565000Y-117799888D02*
X146040000Y-117799888D01*
X143960000Y-118600888D02*
X142652000Y-118600888D01*
X143960000Y-118400888D02*
X142572000Y-118400888D01*
X146971000Y-119200888D02*
X146040000Y-119200888D01*
X143960000Y-118480888D02*
X142602000Y-118480888D01*
X143960000Y-118199888D02*
X142509000Y-118199888D01*
X143960000Y-119640888D02*
X143500000Y-119640888D01*
X147175000Y-118920888D02*
X146040000Y-118920888D01*
X145915000Y-119960888D02*
X144085000Y-119960888D01*
X147578000Y-117639888D02*
X142422000Y-117639888D01*
X143960000Y-118360888D02*
X142558000Y-118360888D01*
X147365000Y-118560888D02*
X146040000Y-118560888D01*
X146500000Y-119640888D02*
X146040000Y-119640888D01*
X147398000Y-118480888D02*
X146040000Y-118480888D01*
X147442000Y-118360888D02*
X146040000Y-118360888D01*
X143960000Y-118800888D02*
X142753000Y-118800888D01*
X147414000Y-118440888D02*
X146040000Y-118440888D01*
X145677000Y-120040888D02*
X144323000Y-120040888D01*
X146178000Y-119840888D02*
X143822000Y-119840888D01*
X143960000Y-118920888D02*
X142825000Y-118920888D01*
X143960000Y-118560888D02*
X142635000Y-118560888D01*
X147310000Y-118680888D02*
X146040000Y-118680888D01*
X146937000Y-119240888D02*
X146040000Y-119240888D01*
X146743000Y-119440888D02*
X146040000Y-119440888D01*
X143960000Y-118440888D02*
X142586000Y-118440888D01*
X146699000Y-119480888D02*
X146040000Y-119480888D01*
X147122000Y-119000888D02*
X146040000Y-119000888D01*
X143960000Y-118320888D02*
X142545000Y-118320888D01*
X147561000Y-117839888D02*
X146040000Y-117839888D01*
X146383000Y-119720888D02*
X146040000Y-119720888D01*
X143960000Y-119440888D02*
X143257000Y-119440888D01*
X143960000Y-118840888D02*
X142776000Y-118840888D01*
X143960000Y-118760888D02*
X142732000Y-118760888D01*
X143960000Y-119800888D02*
X143749000Y-119800888D01*
X143960000Y-117879888D02*
X142444000Y-117879888D01*
X143960000Y-118880888D02*
X142800000Y-118880888D01*
X143960000Y-118720888D02*
X142710000Y-118720888D01*
X146826000Y-119360888D02*
X146040000Y-119360888D01*
X147620000Y-117519888D02*
G75*
G03*
X147620000Y-117519888I-2620000J0D01*
G01*
X151865000Y-117042824D02*
X151865000Y-117496952D01*
X150395000Y-117042824D02*
X150395000Y-117496952D01*
X137470000Y-119750000D02*
X137470000Y-122610000D01*
X137470000Y-122610000D02*
X139390000Y-122610000D01*
X139390000Y-122610000D02*
X139390000Y-119750000D01*
X105510000Y-74764602D02*
X105510000Y-75218730D01*
X104040000Y-74764602D02*
X104040000Y-75218730D01*
X80545000Y-102250396D02*
X80545000Y-101796268D01*
X82015000Y-102250396D02*
X82015000Y-101796268D01*
X118645000Y-81083730D02*
X118645000Y-80629602D01*
X120115000Y-81083730D02*
X120115000Y-80629602D01*
X159995000Y-53700000D02*
X159995000Y-56790000D01*
X165545000Y-55245462D02*
G75*
G03*
X159995000Y-53700170I-2990000J462D01*
G01*
X159995000Y-56789830D02*
G75*
G03*
X165545000Y-55244538I2560000J1544830D01*
G01*
X165355000Y-55245000D02*
G75*
G03*
X165355000Y-55245000I-2800000J0D01*
G01*
X162232936Y-82873332D02*
X162687064Y-82873332D01*
X162232936Y-84343332D02*
X162687064Y-84343332D01*
X104240000Y-80237064D02*
X104240000Y-79782936D01*
X102770000Y-80237064D02*
X102770000Y-79782936D01*
X163315000Y-118165000D02*
X163315000Y-100265000D01*
X163315000Y-100265000D02*
X161665000Y-100265000D01*
X158015000Y-100265000D02*
X158015000Y-118165000D01*
X158015000Y-118165000D02*
X163315000Y-118165000D01*
X159665000Y-100265000D02*
X158015000Y-100265000D01*
X159665000Y-100265000D02*
G75*
G03*
X161665000Y-100265000I1000000J0D01*
G01*
X162232936Y-94515000D02*
X162687064Y-94515000D01*
X162232936Y-95985000D02*
X162687064Y-95985000D01*
X89127064Y-94503332D02*
X88672936Y-94503332D01*
X89127064Y-93033332D02*
X88672936Y-93033332D01*
X104040000Y-114977936D02*
X104040000Y-115432064D01*
X105510000Y-114977936D02*
X105510000Y-115432064D01*
X89127064Y-54710000D02*
X88672936Y-54710000D01*
X89127064Y-53240000D02*
X88672936Y-53240000D01*
X105510000Y-54657936D02*
X105510000Y-55112064D01*
X104040000Y-54657936D02*
X104040000Y-55112064D01*
X150395000Y-71662936D02*
X150395000Y-72117064D01*
X151865000Y-71662936D02*
X151865000Y-72117064D01*
X165354000Y-128143000D02*
X165354000Y-121793000D01*
X165354000Y-121793000D02*
X155575000Y-121793000D01*
X155575000Y-128143000D02*
X165354000Y-128143000D01*
X155575000Y-121793000D02*
X155575000Y-128143000D01*
X99404113Y-57038000D02*
X99404113Y-55650000D01*
X98844113Y-53570000D02*
X98844113Y-52461000D01*
X99564113Y-57090000D02*
X99564113Y-55650000D01*
X98124113Y-53570000D02*
X98124113Y-53167000D01*
X99765113Y-53570000D02*
X99765113Y-52082000D01*
X99685113Y-57121000D02*
X99685113Y-55650000D01*
X98084113Y-53570000D02*
X98084113Y-53227000D01*
X99845113Y-57153000D02*
X99845113Y-55650000D01*
X98924113Y-56810000D02*
X98924113Y-55650000D01*
X99685113Y-53570000D02*
X99685113Y-52099000D01*
X99965113Y-57171000D02*
X99965113Y-55650000D01*
X99765113Y-57138000D02*
X99765113Y-55650000D01*
X100045113Y-57179000D02*
X100045113Y-55650000D01*
X98364113Y-56353000D02*
X98364113Y-55650000D01*
X99845113Y-53570000D02*
X99845113Y-52067000D01*
X98564113Y-56547000D02*
X98564113Y-55650000D01*
X99885113Y-53570000D02*
X99885113Y-52060000D01*
X98924113Y-53570000D02*
X98924113Y-52410000D01*
X100005113Y-53570000D02*
X100005113Y-52045000D01*
X98244113Y-56215000D02*
X98244113Y-55650000D01*
X98164113Y-56110000D02*
X98164113Y-55650000D01*
X99524113Y-53570000D02*
X99524113Y-52142000D01*
X99044113Y-56878000D02*
X99044113Y-55650000D01*
X99164113Y-56939000D02*
X99164113Y-55650000D01*
X99564113Y-53570000D02*
X99564113Y-52130000D01*
X99725113Y-57130000D02*
X99725113Y-55650000D01*
X103089888Y-56085000D02*
X102589888Y-56085000D01*
X98724113Y-53570000D02*
X98724113Y-52545000D01*
X97684113Y-54894000D02*
X97684113Y-54326000D01*
X98204113Y-56164000D02*
X98204113Y-55650000D01*
X98484113Y-53570000D02*
X98484113Y-52746000D01*
X98204113Y-53570000D02*
X98204113Y-53056000D01*
X99605113Y-57101000D02*
X99605113Y-55650000D01*
X99084113Y-56900000D02*
X99084113Y-55650000D01*
X100205113Y-57189000D02*
X100205113Y-52031000D01*
X97724113Y-55128000D02*
X97724113Y-54092000D01*
X98764113Y-56705000D02*
X98764113Y-55650000D01*
X100005113Y-57175000D02*
X100005113Y-55650000D01*
X98564113Y-53570000D02*
X98564113Y-52673000D01*
X98764113Y-53570000D02*
X98764113Y-52515000D01*
X99204113Y-56958000D02*
X99204113Y-55650000D01*
X98644113Y-56614000D02*
X98644113Y-55650000D01*
X98364113Y-53570000D02*
X98364113Y-52867000D01*
X98844113Y-56759000D02*
X98844113Y-55650000D01*
X97764113Y-55287000D02*
X97764113Y-53933000D01*
X97924113Y-55708000D02*
X97924113Y-53512000D01*
X100125113Y-57186000D02*
X100125113Y-52034000D01*
X99645113Y-53570000D02*
X99645113Y-52109000D01*
X102839888Y-56335000D02*
X102839888Y-55835000D01*
X99965113Y-53570000D02*
X99965113Y-52049000D01*
X99204113Y-53570000D02*
X99204113Y-52262000D01*
X100285113Y-57190000D02*
X100285113Y-52030000D01*
X98444113Y-56436000D02*
X98444113Y-55650000D01*
X99364113Y-57024000D02*
X99364113Y-55650000D01*
X100245113Y-57190000D02*
X100245113Y-52030000D01*
X99484113Y-57065000D02*
X99484113Y-55650000D01*
X98284113Y-53570000D02*
X98284113Y-52957000D01*
X99885113Y-57160000D02*
X99885113Y-55650000D01*
X100085113Y-57183000D02*
X100085113Y-52037000D01*
X99605113Y-53570000D02*
X99605113Y-52119000D01*
X98884113Y-56785000D02*
X98884113Y-55650000D01*
X98604113Y-53570000D02*
X98604113Y-52639000D01*
X99044113Y-53570000D02*
X99044113Y-52342000D01*
X99805113Y-57146000D02*
X99805113Y-55650000D01*
X99164113Y-53570000D02*
X99164113Y-52281000D01*
X98404113Y-56395000D02*
X98404113Y-55650000D01*
X98084113Y-55993000D02*
X98084113Y-55650000D01*
X98884113Y-53570000D02*
X98884113Y-52435000D01*
X97844113Y-55525000D02*
X97844113Y-53695000D01*
X99925113Y-53570000D02*
X99925113Y-52054000D01*
X98124113Y-56053000D02*
X98124113Y-55650000D01*
X98044113Y-53570000D02*
X98044113Y-53291000D01*
X98684113Y-56645000D02*
X98684113Y-55650000D01*
X98804113Y-56732000D02*
X98804113Y-55650000D01*
X98804113Y-53570000D02*
X98804113Y-52488000D01*
X98644113Y-53570000D02*
X98644113Y-52606000D01*
X99124113Y-56920000D02*
X99124113Y-55650000D01*
X99004113Y-56857000D02*
X99004113Y-55650000D01*
X99925113Y-57166000D02*
X99925113Y-55650000D01*
X98524113Y-53570000D02*
X98524113Y-52709000D01*
X99284113Y-53570000D02*
X99284113Y-52228000D01*
X99404113Y-53570000D02*
X99404113Y-52182000D01*
X99805113Y-53570000D02*
X99805113Y-52074000D01*
X100165113Y-57188000D02*
X100165113Y-52032000D01*
X99444113Y-57052000D02*
X99444113Y-55650000D01*
X99645113Y-57111000D02*
X99645113Y-55650000D01*
X98284113Y-56263000D02*
X98284113Y-55650000D01*
X98964113Y-53570000D02*
X98964113Y-52386000D01*
X98444113Y-53570000D02*
X98444113Y-52784000D01*
X98404113Y-53570000D02*
X98404113Y-52825000D01*
X99364113Y-53570000D02*
X99364113Y-52196000D01*
X99524113Y-57078000D02*
X99524113Y-55650000D01*
X98044113Y-55929000D02*
X98044113Y-55650000D01*
X99725113Y-53570000D02*
X99725113Y-52090000D01*
X99484113Y-53570000D02*
X99484113Y-52155000D01*
X99244113Y-53570000D02*
X99244113Y-52245000D01*
X98004113Y-55861000D02*
X98004113Y-55650000D01*
X98164113Y-53570000D02*
X98164113Y-53110000D01*
X98484113Y-56474000D02*
X98484113Y-55650000D01*
X99324113Y-53570000D02*
X99324113Y-52212000D01*
X99124113Y-53570000D02*
X99124113Y-52300000D01*
X99084113Y-53570000D02*
X99084113Y-52320000D01*
X98324113Y-53570000D02*
X98324113Y-52911000D01*
X99284113Y-56992000D02*
X99284113Y-55650000D01*
X98964113Y-56834000D02*
X98964113Y-55650000D01*
X99244113Y-56975000D02*
X99244113Y-55650000D01*
X97804113Y-55415000D02*
X97804113Y-53805000D01*
X99444113Y-53570000D02*
X99444113Y-52168000D01*
X98684113Y-53570000D02*
X98684113Y-52575000D01*
X97884113Y-55621000D02*
X97884113Y-53599000D01*
X98004113Y-53570000D02*
X98004113Y-53359000D01*
X98244113Y-53570000D02*
X98244113Y-53005000D01*
X98524113Y-56511000D02*
X98524113Y-55650000D01*
X98724113Y-56675000D02*
X98724113Y-55650000D01*
X98324113Y-56309000D02*
X98324113Y-55650000D01*
X98604113Y-56581000D02*
X98604113Y-55650000D01*
X99324113Y-57008000D02*
X99324113Y-55650000D01*
X100045113Y-53570000D02*
X100045113Y-52041000D01*
X97964113Y-55788000D02*
X97964113Y-53432000D01*
X99004113Y-53570000D02*
X99004113Y-52363000D01*
X102905113Y-54610000D02*
G75*
G03*
X102905113Y-54610000I-2620000J0D01*
G01*
X159995000Y-65285000D02*
X159995000Y-68375000D01*
X165545000Y-66830462D02*
G75*
G03*
X159995000Y-65285170I-2990000J462D01*
G01*
X159995000Y-68374830D02*
G75*
G03*
X165545000Y-66829538I2560000J1544830D01*
G01*
X165355000Y-66830000D02*
G75*
G03*
X165355000Y-66830000I-2800000J0D01*
G01*
X143960000Y-125520888D02*
X142618000Y-125520888D01*
X147501000Y-125159888D02*
X146040000Y-125159888D01*
X145915000Y-126960888D02*
X144085000Y-126960888D01*
X147468000Y-125280888D02*
X146040000Y-125280888D01*
X143960000Y-126680888D02*
X143557000Y-126680888D01*
X143960000Y-125079888D02*
X142480000Y-125079888D01*
X143960000Y-125440888D02*
X142586000Y-125440888D01*
X145284000Y-127120888D02*
X144716000Y-127120888D01*
X145518000Y-127080888D02*
X144482000Y-127080888D01*
X147348000Y-125600888D02*
X146040000Y-125600888D01*
X143960000Y-125640888D02*
X142671000Y-125640888D01*
X147550000Y-124919888D02*
X146040000Y-124919888D01*
X147035000Y-126120888D02*
X146040000Y-126120888D01*
X143960000Y-126480888D02*
X143301000Y-126480888D01*
X143960000Y-124999888D02*
X142464000Y-124999888D01*
X147398000Y-125480888D02*
X146040000Y-125480888D01*
X147247000Y-125800888D02*
X146040000Y-125800888D01*
X147442000Y-125360888D02*
X146040000Y-125360888D01*
X143960000Y-126520888D02*
X143347000Y-126520888D01*
X147175000Y-125920888D02*
X146040000Y-125920888D01*
X143960000Y-126160888D02*
X142996000Y-126160888D01*
X146937000Y-126240888D02*
X146040000Y-126240888D01*
X143960000Y-125320888D02*
X142545000Y-125320888D01*
X147579000Y-124599888D02*
X142421000Y-124599888D01*
X147455000Y-125320888D02*
X146040000Y-125320888D01*
X146743000Y-126440888D02*
X146040000Y-126440888D01*
X147569000Y-124759888D02*
X146040000Y-124759888D01*
X147511000Y-125119888D02*
X146040000Y-125119888D01*
X143960000Y-124879888D02*
X142444000Y-124879888D01*
X143960000Y-126280888D02*
X143099000Y-126280888D01*
X143960000Y-124799888D02*
X142435000Y-124799888D01*
X143960000Y-126800888D02*
X143749000Y-126800888D01*
X146725000Y-121965113D02*
X146225000Y-121965113D01*
X146383000Y-126720888D02*
X146040000Y-126720888D01*
X146653000Y-126520888D02*
X146040000Y-126520888D01*
X143960000Y-126760888D02*
X143681000Y-126760888D01*
X147528000Y-125039888D02*
X146040000Y-125039888D01*
X143960000Y-125560888D02*
X142635000Y-125560888D01*
X145677000Y-127040888D02*
X144323000Y-127040888D01*
X146178000Y-126840888D02*
X143822000Y-126840888D01*
X143960000Y-126360888D02*
X143174000Y-126360888D01*
X143960000Y-125360888D02*
X142558000Y-125360888D01*
X147290000Y-125720888D02*
X146040000Y-125720888D01*
X147580000Y-124559888D02*
X142420000Y-124559888D01*
X147122000Y-126000888D02*
X146040000Y-126000888D01*
X143960000Y-125280888D02*
X142532000Y-125280888D01*
X145805000Y-127000888D02*
X144195000Y-127000888D01*
X147536000Y-124999888D02*
X146040000Y-124999888D01*
X143960000Y-125720888D02*
X142710000Y-125720888D01*
X143960000Y-126720888D02*
X143617000Y-126720888D01*
X147556000Y-124879888D02*
X146040000Y-124879888D01*
X143960000Y-126040888D02*
X142905000Y-126040888D01*
X143960000Y-125960888D02*
X142851000Y-125960888D01*
X146864000Y-126320888D02*
X146040000Y-126320888D01*
X143960000Y-126400888D02*
X143215000Y-126400888D01*
X143960000Y-125880888D02*
X142800000Y-125880888D01*
X143960000Y-126080888D02*
X142935000Y-126080888D01*
X147561000Y-124839888D02*
X146040000Y-124839888D01*
X146554000Y-126600888D02*
X146040000Y-126600888D01*
X143960000Y-126320888D02*
X143136000Y-126320888D01*
X146901000Y-126280888D02*
X146040000Y-126280888D01*
X143960000Y-124959888D02*
X142457000Y-124959888D01*
X146319000Y-126760888D02*
X146040000Y-126760888D01*
X147095000Y-126040888D02*
X146040000Y-126040888D01*
X147329000Y-125640888D02*
X146040000Y-125640888D01*
X147491000Y-125199888D02*
X146040000Y-125199888D01*
X143960000Y-125039888D02*
X142472000Y-125039888D01*
X147580000Y-124519888D02*
X142420000Y-124519888D01*
X143960000Y-126000888D02*
X142878000Y-126000888D01*
X143960000Y-125400888D02*
X142572000Y-125400888D01*
X147565000Y-124799888D02*
X146040000Y-124799888D01*
X147268000Y-125760888D02*
X146040000Y-125760888D01*
X143960000Y-126200888D02*
X143029000Y-126200888D01*
X146475000Y-121715113D02*
X146475000Y-122215113D01*
X143960000Y-125480888D02*
X142602000Y-125480888D01*
X146011000Y-126920888D02*
X143989000Y-126920888D01*
X146785000Y-126400888D02*
X146040000Y-126400888D01*
X147414000Y-125440888D02*
X146040000Y-125440888D01*
X147382000Y-125520888D02*
X146040000Y-125520888D01*
X146443000Y-126680888D02*
X146040000Y-126680888D01*
X147200000Y-125880888D02*
X146040000Y-125880888D01*
X143960000Y-125600888D02*
X142652000Y-125600888D01*
X143960000Y-125760888D02*
X142732000Y-125760888D01*
X143960000Y-125240888D02*
X142520000Y-125240888D01*
X143960000Y-126240888D02*
X143063000Y-126240888D01*
X143960000Y-125840888D02*
X142776000Y-125840888D01*
X146699000Y-126480888D02*
X146040000Y-126480888D01*
X143960000Y-126640888D02*
X143500000Y-126640888D01*
X143960000Y-124919888D02*
X142450000Y-124919888D01*
X143960000Y-124759888D02*
X142431000Y-124759888D01*
X143960000Y-125159888D02*
X142499000Y-125159888D01*
X146826000Y-126360888D02*
X146040000Y-126360888D01*
X143960000Y-124839888D02*
X142439000Y-124839888D01*
X146098000Y-126880888D02*
X143902000Y-126880888D01*
X143960000Y-125119888D02*
X142489000Y-125119888D01*
X143960000Y-126120888D02*
X142965000Y-126120888D01*
X146605000Y-126560888D02*
X146040000Y-126560888D01*
X147543000Y-124959888D02*
X146040000Y-124959888D01*
X143960000Y-125680888D02*
X142690000Y-125680888D01*
X147004000Y-126160888D02*
X146040000Y-126160888D01*
X143960000Y-126440888D02*
X143257000Y-126440888D01*
X146251000Y-126800888D02*
X146040000Y-126800888D01*
X147576000Y-124679888D02*
X142424000Y-124679888D01*
X146971000Y-126200888D02*
X146040000Y-126200888D01*
X147149000Y-125960888D02*
X146040000Y-125960888D01*
X146500000Y-126640888D02*
X146040000Y-126640888D01*
X143960000Y-126560888D02*
X143395000Y-126560888D01*
X143960000Y-126600888D02*
X143446000Y-126600888D01*
X147520000Y-125079888D02*
X146040000Y-125079888D01*
X147310000Y-125680888D02*
X146040000Y-125680888D01*
X147365000Y-125560888D02*
X146040000Y-125560888D01*
X147065000Y-126080888D02*
X146040000Y-126080888D01*
X143960000Y-125800888D02*
X142753000Y-125800888D01*
X147480000Y-125240888D02*
X146040000Y-125240888D01*
X147428000Y-125400888D02*
X146040000Y-125400888D01*
X147224000Y-125840888D02*
X146040000Y-125840888D01*
X147573000Y-124719888D02*
X142427000Y-124719888D01*
X143960000Y-125199888D02*
X142509000Y-125199888D01*
X147578000Y-124639888D02*
X142422000Y-124639888D01*
X143960000Y-125920888D02*
X142825000Y-125920888D01*
X147620000Y-124519888D02*
G75*
G03*
X147620000Y-124519888I-2620000J0D01*
G01*
X124150000Y-119725000D02*
X124150000Y-116865000D01*
X122230000Y-116865000D02*
X122230000Y-119725000D01*
X122230000Y-119725000D02*
X124150000Y-119725000D01*
X109120000Y-125800000D02*
X114420000Y-125800000D01*
X114420000Y-125800000D02*
X114420000Y-115520000D01*
X109120000Y-115520000D02*
X109120000Y-125800000D01*
X110770000Y-115520000D02*
X109120000Y-115520000D01*
X114420000Y-115520000D02*
X112770000Y-115520000D01*
X110770000Y-115520000D02*
G75*
G03*
X112770000Y-115520000I1000000J0D01*
G01*
X124150000Y-99650000D02*
X124150000Y-96790000D01*
X122230000Y-96790000D02*
X122230000Y-99650000D01*
X122230000Y-99650000D02*
X124150000Y-99650000D01*
X105510000Y-94871268D02*
X105510000Y-95325396D01*
X104040000Y-94871268D02*
X104040000Y-95325396D01*
X98204113Y-76483999D02*
X98204113Y-75969999D01*
X99084113Y-73889999D02*
X99084113Y-72639999D01*
X98284113Y-73889999D02*
X98284113Y-73276999D01*
X98004113Y-76180999D02*
X98004113Y-75969999D01*
X99324113Y-77327999D02*
X99324113Y-75969999D01*
X98724113Y-73889999D02*
X98724113Y-72864999D01*
X98524113Y-73889999D02*
X98524113Y-73028999D01*
X99324113Y-73889999D02*
X99324113Y-72531999D01*
X99244113Y-73889999D02*
X99244113Y-72564999D01*
X100045113Y-77498999D02*
X100045113Y-75969999D01*
X98884113Y-77104999D02*
X98884113Y-75969999D01*
X99605113Y-73889999D02*
X99605113Y-72438999D01*
X99404113Y-73889999D02*
X99404113Y-72501999D01*
X99444113Y-73889999D02*
X99444113Y-72487999D01*
X99204113Y-77277999D02*
X99204113Y-75969999D01*
X98404113Y-76714999D02*
X98404113Y-75969999D01*
X99925113Y-73889999D02*
X99925113Y-72373999D01*
X99965113Y-73889999D02*
X99965113Y-72368999D01*
X99004113Y-73889999D02*
X99004113Y-72682999D01*
X98724113Y-76994999D02*
X98724113Y-75969999D01*
X98764113Y-73889999D02*
X98764113Y-72834999D01*
X98084113Y-73889999D02*
X98084113Y-73546999D01*
X98444113Y-73889999D02*
X98444113Y-73103999D01*
X99484113Y-73889999D02*
X99484113Y-72474999D01*
X98644113Y-73889999D02*
X98644113Y-72925999D01*
X98124113Y-73889999D02*
X98124113Y-73486999D01*
X99004113Y-77176999D02*
X99004113Y-75969999D01*
X98524113Y-76830999D02*
X98524113Y-75969999D01*
X99885113Y-73889999D02*
X99885113Y-72379999D01*
X98604113Y-76900999D02*
X98604113Y-75969999D01*
X98484113Y-73889999D02*
X98484113Y-73065999D01*
X98684113Y-73889999D02*
X98684113Y-72894999D01*
X97684113Y-75213999D02*
X97684113Y-74645999D01*
X99124113Y-77239999D02*
X99124113Y-75969999D01*
X100205113Y-77508999D02*
X100205113Y-72350999D01*
X98804113Y-77051999D02*
X98804113Y-75969999D01*
X98804113Y-73889999D02*
X98804113Y-72807999D01*
X98564113Y-76866999D02*
X98564113Y-75969999D01*
X98364113Y-73889999D02*
X98364113Y-73186999D01*
X100285113Y-77509999D02*
X100285113Y-72349999D01*
X97724113Y-75447999D02*
X97724113Y-74411999D01*
X97764113Y-75606999D02*
X97764113Y-74252999D01*
X98164113Y-76429999D02*
X98164113Y-75969999D01*
X99645113Y-73889999D02*
X99645113Y-72428999D01*
X99364113Y-77343999D02*
X99364113Y-75969999D01*
X97884113Y-75940999D02*
X97884113Y-73918999D01*
X99244113Y-77294999D02*
X99244113Y-75969999D01*
X98764113Y-77024999D02*
X98764113Y-75969999D01*
X98924113Y-73889999D02*
X98924113Y-72729999D01*
X99044113Y-77197999D02*
X99044113Y-75969999D01*
X99805113Y-73889999D02*
X99805113Y-72393999D01*
X98884113Y-73889999D02*
X98884113Y-72754999D01*
X100005113Y-77494999D02*
X100005113Y-75969999D01*
X99805113Y-77465999D02*
X99805113Y-75969999D01*
X98404113Y-73889999D02*
X98404113Y-73144999D01*
X98244113Y-73889999D02*
X98244113Y-73324999D01*
X100005113Y-73889999D02*
X100005113Y-72364999D01*
X98164113Y-73889999D02*
X98164113Y-73429999D01*
X98324113Y-76628999D02*
X98324113Y-75969999D01*
X99965113Y-77490999D02*
X99965113Y-75969999D01*
X99484113Y-77384999D02*
X99484113Y-75969999D01*
X99524113Y-73889999D02*
X99524113Y-72461999D01*
X98444113Y-76755999D02*
X98444113Y-75969999D01*
X99685113Y-77440999D02*
X99685113Y-75969999D01*
X99164113Y-73889999D02*
X99164113Y-72600999D01*
X100165113Y-77507999D02*
X100165113Y-72351999D01*
X99845113Y-73889999D02*
X99845113Y-72386999D01*
X98644113Y-76933999D02*
X98644113Y-75969999D01*
X99725113Y-73889999D02*
X99725113Y-72409999D01*
X98244113Y-76534999D02*
X98244113Y-75969999D01*
X97924113Y-76027999D02*
X97924113Y-73831999D01*
X99765113Y-73889999D02*
X99765113Y-72401999D01*
X99685113Y-73889999D02*
X99685113Y-72418999D01*
X98124113Y-76372999D02*
X98124113Y-75969999D01*
X98044113Y-76248999D02*
X98044113Y-75969999D01*
X98364113Y-76672999D02*
X98364113Y-75969999D01*
X98604113Y-73889999D02*
X98604113Y-72958999D01*
X99284113Y-77311999D02*
X99284113Y-75969999D01*
X98964113Y-77153999D02*
X98964113Y-75969999D01*
X98924113Y-77129999D02*
X98924113Y-75969999D01*
X97844113Y-75844999D02*
X97844113Y-74014999D01*
X99284113Y-73889999D02*
X99284113Y-72547999D01*
X98844113Y-73889999D02*
X98844113Y-72780999D01*
X99364113Y-73889999D02*
X99364113Y-72515999D01*
X99645113Y-77430999D02*
X99645113Y-75969999D01*
X99845113Y-77472999D02*
X99845113Y-75969999D01*
X98324113Y-73889999D02*
X98324113Y-73230999D01*
X97804113Y-75734999D02*
X97804113Y-74124999D01*
X99524113Y-77397999D02*
X99524113Y-75969999D01*
X99204113Y-73889999D02*
X99204113Y-72581999D01*
X99765113Y-77457999D02*
X99765113Y-75969999D01*
X100245113Y-77509999D02*
X100245113Y-72349999D01*
X98484113Y-76793999D02*
X98484113Y-75969999D01*
X99564113Y-73889999D02*
X99564113Y-72449999D01*
X98964113Y-73889999D02*
X98964113Y-72705999D01*
X98564113Y-73889999D02*
X98564113Y-72992999D01*
X102839888Y-76654999D02*
X102839888Y-76154999D01*
X99084113Y-77219999D02*
X99084113Y-75969999D01*
X99925113Y-77485999D02*
X99925113Y-75969999D01*
X98284113Y-76582999D02*
X98284113Y-75969999D01*
X99885113Y-77479999D02*
X99885113Y-75969999D01*
X97964113Y-76107999D02*
X97964113Y-73751999D01*
X98044113Y-73889999D02*
X98044113Y-73610999D01*
X100125113Y-77505999D02*
X100125113Y-72353999D01*
X99124113Y-73889999D02*
X99124113Y-72619999D01*
X99444113Y-77371999D02*
X99444113Y-75969999D01*
X100045113Y-73889999D02*
X100045113Y-72360999D01*
X98084113Y-76312999D02*
X98084113Y-75969999D01*
X98844113Y-77078999D02*
X98844113Y-75969999D01*
X99044113Y-73889999D02*
X99044113Y-72661999D01*
X99605113Y-77420999D02*
X99605113Y-75969999D01*
X98004113Y-73889999D02*
X98004113Y-73678999D01*
X99404113Y-77357999D02*
X99404113Y-75969999D01*
X100085113Y-77502999D02*
X100085113Y-72356999D01*
X99164113Y-77258999D02*
X99164113Y-75969999D01*
X103089888Y-76404999D02*
X102589888Y-76404999D01*
X99564113Y-77409999D02*
X99564113Y-75969999D01*
X98204113Y-73889999D02*
X98204113Y-73375999D01*
X99725113Y-77449999D02*
X99725113Y-75969999D01*
X98684113Y-76964999D02*
X98684113Y-75969999D01*
X102905113Y-74929999D02*
G75*
G03*
X102905113Y-74929999I-2620000J0D01*
G01*
X146685000Y-51435000D02*
X131445000Y-51435000D01*
X131445000Y-51435000D02*
X131445000Y-59055000D01*
X146685000Y-59055000D02*
X131445000Y-59055000D01*
X146685000Y-51435000D02*
X146685000Y-59055000D01*
X146685000Y-52705000D02*
X131445000Y-52705000D01*
%LPC*%
D12*
X144780000Y-70376395D03*
D13*
X144780000Y-67876395D03*
D12*
X127010000Y-116950000D03*
D14*
X127010000Y-119490000D03*
X127010000Y-122030000D03*
X127010000Y-124570000D03*
X134630000Y-124570000D03*
X134630000Y-122030000D03*
X134630000Y-119490000D03*
X134630000Y-116950000D03*
D15*
X97155000Y-58690000D03*
X97155000Y-60690000D03*
D16*
X81280000Y-63230000D03*
X81280000Y-61230000D03*
D15*
X97155000Y-119650000D03*
X97155000Y-121650000D03*
D17*
X89900000Y-73871666D03*
X87900000Y-73871666D03*
D16*
X119380000Y-101753332D03*
X119380000Y-99753332D03*
D18*
X134852500Y-60960000D03*
X136927500Y-60960000D03*
D12*
X145000000Y-102997000D03*
D13*
X145000000Y-105497000D03*
D12*
X100285113Y-86295111D03*
D13*
X100285113Y-83795111D03*
D19*
X74930000Y-98213332D03*
D20*
X74930000Y-100753332D03*
X74930000Y-103293332D03*
D13*
X100285113Y-124435113D03*
D12*
X100285113Y-126935113D03*
D21*
X138430000Y-101990000D03*
X138430000Y-99940000D03*
D12*
X85100000Y-77056666D03*
D14*
X85100000Y-79596666D03*
X85100000Y-82136666D03*
X85100000Y-84676666D03*
X92720000Y-84676666D03*
X92720000Y-82136666D03*
X92720000Y-79596666D03*
X92720000Y-77056666D03*
D22*
X161285000Y-90000000D03*
D23*
X163825000Y-90000000D03*
D17*
X89900000Y-113665000D03*
X87900000Y-113665000D03*
D15*
X97155000Y-99330000D03*
X97155000Y-101330000D03*
D19*
X74930000Y-78316666D03*
D20*
X74930000Y-80856666D03*
X74930000Y-83396666D03*
D12*
X107960000Y-57160000D03*
D14*
X107960000Y-59700000D03*
X107960000Y-62240000D03*
X107960000Y-64780000D03*
X115580000Y-64780000D03*
X115580000Y-62240000D03*
X115580000Y-59700000D03*
X115580000Y-57160000D03*
D19*
X74930000Y-118110000D03*
D20*
X74930000Y-120650000D03*
X74930000Y-123190000D03*
D15*
X151130000Y-95949888D03*
X151130000Y-97949888D03*
X151130000Y-123269888D03*
X151130000Y-125269888D03*
D12*
X101535113Y-95249998D03*
D13*
X99035113Y-95249998D03*
D24*
X110760000Y-73871666D03*
X112760000Y-73871666D03*
D15*
X97155000Y-79010000D03*
X97155000Y-81010000D03*
D19*
X74930000Y-58420000D03*
D20*
X74930000Y-60960000D03*
X74930000Y-63500000D03*
D12*
X127010000Y-96953332D03*
D14*
X127010000Y-99493332D03*
X127010000Y-102033332D03*
X127010000Y-104573332D03*
X134630000Y-104573332D03*
X134630000Y-102033332D03*
X134630000Y-99493332D03*
X134630000Y-96953332D03*
D15*
X151130000Y-76105000D03*
X151130000Y-78105000D03*
D16*
X103505000Y-58690000D03*
X103505000Y-60690000D03*
D15*
X151130000Y-82185000D03*
X151130000Y-84185000D03*
D12*
X107960000Y-77056666D03*
D14*
X107960000Y-79596666D03*
X107960000Y-82136666D03*
X107960000Y-84676666D03*
X115580000Y-84676666D03*
X115580000Y-82136666D03*
X115580000Y-79596666D03*
X115580000Y-77056666D03*
D12*
X100285113Y-106615110D03*
D13*
X100285113Y-104115110D03*
D12*
X85100000Y-57160000D03*
D14*
X85100000Y-59700000D03*
X85100000Y-62240000D03*
X85100000Y-64780000D03*
X92720000Y-64780000D03*
X92720000Y-62240000D03*
X92720000Y-59700000D03*
X92720000Y-57160000D03*
D15*
X151130000Y-102997000D03*
X151130000Y-104997000D03*
D16*
X81280000Y-122920000D03*
X81280000Y-120920000D03*
D12*
X85100000Y-96953332D03*
D14*
X85100000Y-99493332D03*
X85100000Y-102033332D03*
X85100000Y-104573332D03*
X92720000Y-104573332D03*
X92720000Y-102033332D03*
X92720000Y-99493332D03*
X92720000Y-96953332D03*
D16*
X81280000Y-83126666D03*
X81280000Y-81126666D03*
D24*
X110760000Y-53975000D03*
X112760000Y-53975000D03*
D25*
X143277500Y-60960000D03*
X141202500Y-60960000D03*
D16*
X119380000Y-121650000D03*
X119380000Y-119650000D03*
D23*
X132715000Y-84090000D03*
X127635000Y-84090000D03*
D12*
X145000000Y-95949888D03*
D13*
X145000000Y-98449888D03*
D12*
X107960000Y-96953332D03*
D14*
X107960000Y-99493332D03*
X107960000Y-102033332D03*
X107960000Y-104573332D03*
X115580000Y-104573332D03*
X115580000Y-102033332D03*
X115580000Y-99493332D03*
X115580000Y-96953332D03*
D24*
X110760000Y-113665000D03*
X112760000Y-113665000D03*
D16*
X151130000Y-67675000D03*
X151130000Y-65675000D03*
D24*
X110760000Y-93768332D03*
X112760000Y-93768332D03*
D22*
X161285000Y-78415000D03*
D23*
X163825000Y-78415000D03*
D24*
X161460000Y-60325000D03*
X163460000Y-60325000D03*
D26*
X144420000Y-76835000D03*
D27*
X144420000Y-78105000D03*
X144420000Y-79375000D03*
D24*
X161460000Y-71966666D03*
X163460000Y-71966666D03*
D28*
X132175000Y-72390000D03*
X132175000Y-69850000D03*
D12*
X100285113Y-65975112D03*
D13*
X100285113Y-63475112D03*
D12*
X101535113Y-115569997D03*
D13*
X99035113Y-115569997D03*
D12*
X145985113Y-87630000D03*
D13*
X143485113Y-87630000D03*
D16*
X103505000Y-121650000D03*
X103505000Y-119650000D03*
X103505000Y-101330000D03*
X103505000Y-99330000D03*
X119380000Y-61960000D03*
X119380000Y-59960000D03*
D12*
X85100000Y-116850000D03*
D14*
X85100000Y-119390000D03*
X85100000Y-121930000D03*
X85100000Y-124470000D03*
X92720000Y-124470000D03*
X92720000Y-121930000D03*
X92720000Y-119390000D03*
X92720000Y-116850000D03*
D16*
X138385000Y-78105000D03*
X138385000Y-76105000D03*
D12*
X145000000Y-116269888D03*
D13*
X145000000Y-118769888D03*
D15*
X151130000Y-116269888D03*
X151130000Y-118269888D03*
D21*
X138430000Y-121775000D03*
X138430000Y-119725000D03*
D15*
X104775000Y-73991666D03*
X104775000Y-75991666D03*
D16*
X81280000Y-103023332D03*
X81280000Y-101023332D03*
X119380000Y-81856666D03*
X119380000Y-79856666D03*
D22*
X161285000Y-55245000D03*
D23*
X163825000Y-55245000D03*
D24*
X161460000Y-83608332D03*
X163460000Y-83608332D03*
D16*
X103505000Y-81010000D03*
X103505000Y-79010000D03*
D12*
X156855000Y-101595000D03*
D14*
X156855000Y-104135000D03*
X156855000Y-106675000D03*
X156855000Y-109215000D03*
X156855000Y-111755000D03*
X156855000Y-114295000D03*
X156855000Y-116835000D03*
X164475000Y-116835000D03*
X164475000Y-114295000D03*
X164475000Y-111755000D03*
X164475000Y-109215000D03*
X164475000Y-106675000D03*
X164475000Y-104135000D03*
X164475000Y-101595000D03*
D24*
X161460000Y-95250000D03*
X163460000Y-95250000D03*
D17*
X89900000Y-93768332D03*
X87900000Y-93768332D03*
D15*
X104775000Y-114205000D03*
X104775000Y-116205000D03*
D17*
X89900000Y-53975000D03*
X87900000Y-53975000D03*
D15*
X104775000Y-53885000D03*
X104775000Y-55885000D03*
X151130000Y-70890000D03*
X151130000Y-72890000D03*
D19*
X157937200Y-126111000D03*
D20*
X160477200Y-126111000D03*
X163017200Y-126111000D03*
D12*
X101535113Y-54610000D03*
D13*
X99035113Y-54610000D03*
D22*
X161285000Y-66830000D03*
D23*
X163825000Y-66830000D03*
D12*
X145000000Y-123269888D03*
D13*
X145000000Y-125769888D03*
D21*
X123190000Y-118890000D03*
X123190000Y-116840000D03*
D12*
X107960000Y-116850000D03*
D14*
X107960000Y-119390000D03*
X107960000Y-121930000D03*
X107960000Y-124470000D03*
X115580000Y-124470000D03*
X115580000Y-121930000D03*
X115580000Y-119390000D03*
X115580000Y-116850000D03*
D21*
X123190000Y-98815000D03*
X123190000Y-96765000D03*
D15*
X104775000Y-94098332D03*
X104775000Y-96098332D03*
D12*
X101535113Y-74929999D03*
D13*
X99035113Y-74929999D03*
D29*
X144145000Y-55245000D03*
D30*
X139065000Y-55245000D03*
X133985000Y-55245000D03*
M02*
